<svg width="1363" height="301" viewBox="0 0 1363 301" fill="none" xmlns="http://www.w3.org/2000/svg">
<g style="mix-blend-mode:exclusion">
<rect width="1363" height="301" rx="15" fill="white" fill-opacity="0.05"/>
</g>
<path d="M0 15C0 6.71573 6.71573 0 15 0H37V301H15C6.71573 301 0 294.284 0 286V15Z" fill="#006D77"/>
<g style="mix-blend-mode:exclusion">
<path d="M121.89 136.749V144H101.05V136.749H121.89ZM104.407 104.898V144H94.981V104.898H104.407ZM119.205 120.421V127.43H101.05V120.421H119.205ZM121.971 104.898V112.176H101.05V104.898H121.971ZM133.008 114.942L137.09 122.945L141.307 114.942H150.706L143.079 129.095L151.109 144H141.629L137.09 135.406L132.579 144H123.099L131.128 129.095L123.528 114.942H133.008ZM162.818 120.528V155.172H153.768V114.942H162.2L162.818 120.528ZM180.65 129.122V129.686C180.65 131.799 180.408 133.759 179.925 135.567C179.441 137.376 178.725 138.951 177.776 140.294C176.827 141.637 175.646 142.684 174.231 143.436C172.835 144.17 171.215 144.537 169.371 144.537C167.634 144.537 166.139 144.152 164.886 143.382C163.632 142.612 162.585 141.547 161.744 140.187C160.902 138.826 160.222 137.268 159.703 135.514C159.183 133.759 158.772 131.906 158.467 129.955V129.229C158.772 127.135 159.183 125.192 159.703 123.402C160.222 121.594 160.902 120.018 161.744 118.675C162.585 117.333 163.624 116.285 164.859 115.533C166.112 114.781 167.607 114.405 169.344 114.405C171.188 114.405 172.808 114.754 174.205 115.453C175.619 116.151 176.801 117.153 177.75 118.46C178.716 119.75 179.441 121.298 179.925 123.106C180.408 124.915 180.65 126.92 180.65 129.122ZM171.6 129.686V129.122C171.6 127.994 171.519 126.965 171.358 126.034C171.197 125.085 170.937 124.261 170.579 123.563C170.239 122.865 169.782 122.328 169.209 121.952C168.637 121.576 167.929 121.388 167.088 121.388C166.121 121.388 165.306 121.54 164.644 121.844C164 122.131 163.48 122.578 163.086 123.187C162.71 123.778 162.442 124.521 162.281 125.416C162.138 126.293 162.075 127.323 162.093 128.504V130.707C162.057 132.067 162.191 133.267 162.496 134.305C162.8 135.326 163.328 136.122 164.08 136.695C164.832 137.268 165.853 137.555 167.142 137.555C168.001 137.555 168.717 137.358 169.29 136.964C169.863 136.552 170.319 135.988 170.66 135.272C171 134.538 171.242 133.696 171.385 132.748C171.528 131.799 171.6 130.778 171.6 129.686ZM198.75 144.537C196.387 144.537 194.275 144.17 192.413 143.436C190.551 142.684 188.975 141.655 187.686 140.348C186.415 139.041 185.439 137.537 184.759 135.836C184.096 134.135 183.765 132.336 183.765 130.438V129.417C183.765 127.287 184.061 125.318 184.651 123.509C185.242 121.683 186.119 120.09 187.283 118.729C188.447 117.368 189.906 116.312 191.661 115.56C193.415 114.79 195.456 114.405 197.784 114.405C199.843 114.405 201.687 114.736 203.316 115.399C204.945 116.061 206.324 117.01 207.452 118.246C208.597 119.481 209.466 120.976 210.057 122.73C210.665 124.485 210.97 126.454 210.97 128.639V132.318H187.229V126.651H202.134V125.953C202.152 124.986 201.982 124.163 201.624 123.482C201.284 122.802 200.783 122.283 200.12 121.925C199.458 121.567 198.652 121.388 197.703 121.388C196.718 121.388 195.904 121.603 195.259 122.032C194.633 122.462 194.14 123.053 193.782 123.805C193.442 124.539 193.2 125.389 193.057 126.356C192.914 127.323 192.842 128.343 192.842 129.417V130.438C192.842 131.512 192.986 132.488 193.272 133.365C193.576 134.243 194.006 134.994 194.561 135.621C195.134 136.23 195.814 136.704 196.602 137.044C197.408 137.385 198.321 137.555 199.341 137.555C200.577 137.555 201.794 137.322 202.994 136.856C204.193 136.391 205.223 135.621 206.082 134.547L210.191 139.435C209.6 140.276 208.759 141.091 207.667 141.878C206.592 142.666 205.303 143.311 203.799 143.812C202.295 144.295 200.612 144.537 198.75 144.537ZM223.538 121.146V144H214.488V114.942H222.974L223.538 121.146ZM222.464 128.478L220.342 128.531C220.342 126.311 220.611 124.333 221.148 122.596C221.685 120.842 222.446 119.356 223.431 118.138C224.415 116.921 225.588 115.999 226.949 115.372C228.327 114.728 229.858 114.405 231.541 114.405C232.884 114.405 234.11 114.602 235.22 114.996C236.348 115.39 237.315 116.026 238.121 116.903C238.944 117.78 239.571 118.944 240 120.394C240.448 121.826 240.672 123.599 240.672 125.711V144H231.568V125.685C231.568 124.521 231.407 123.635 231.084 123.026C230.762 122.399 230.297 121.97 229.688 121.737C229.079 121.504 228.336 121.388 227.459 121.388C226.528 121.388 225.74 121.567 225.096 121.925C224.451 122.283 223.932 122.784 223.538 123.429C223.162 124.055 222.885 124.798 222.706 125.658C222.544 126.517 222.464 127.457 222.464 128.478ZM260.921 135.836C260.921 135.335 260.751 134.905 260.411 134.547C260.088 134.171 259.515 133.831 258.692 133.526C257.868 133.204 256.714 132.882 255.228 132.56C253.813 132.255 252.479 131.852 251.226 131.351C249.991 130.85 248.908 130.241 247.977 129.525C247.046 128.809 246.312 127.958 245.774 126.974C245.255 125.989 244.996 124.861 244.996 123.59C244.996 122.354 245.255 121.191 245.774 120.099C246.312 118.989 247.09 118.013 248.111 117.171C249.149 116.312 250.411 115.641 251.897 115.157C253.383 114.656 255.075 114.405 256.973 114.405C259.587 114.405 261.843 114.808 263.741 115.614C265.639 116.402 267.098 117.512 268.118 118.944C269.157 120.358 269.676 121.996 269.676 123.858H260.625C260.625 123.124 260.5 122.498 260.25 121.979C260.017 121.459 259.632 121.065 259.095 120.797C258.558 120.51 257.841 120.367 256.946 120.367C256.32 120.367 255.747 120.484 255.228 120.716C254.726 120.949 254.323 121.271 254.019 121.683C253.715 122.095 253.562 122.578 253.562 123.133C253.562 123.527 253.652 123.885 253.831 124.208C254.028 124.512 254.323 124.798 254.717 125.067C255.111 125.318 255.612 125.55 256.221 125.765C256.83 125.962 257.564 126.141 258.423 126.302C260.375 126.66 262.201 127.171 263.902 127.833C265.603 128.495 266.981 129.435 268.038 130.653C269.112 131.87 269.649 133.508 269.649 135.567C269.649 136.856 269.354 138.047 268.763 139.139C268.172 140.213 267.321 141.162 266.211 141.986C265.101 142.792 263.768 143.418 262.21 143.866C260.652 144.313 258.898 144.537 256.946 144.537C254.171 144.537 251.826 144.045 249.91 143.06C247.994 142.057 246.544 140.804 245.56 139.3C244.593 137.778 244.109 136.239 244.109 134.681H252.542C252.578 135.576 252.793 136.31 253.187 136.883C253.598 137.456 254.144 137.877 254.825 138.146C255.505 138.414 256.293 138.548 257.188 138.548C258.012 138.548 258.692 138.432 259.229 138.199C259.784 137.966 260.205 137.653 260.491 137.259C260.778 136.847 260.921 136.373 260.921 135.836ZM287.964 144.537C285.601 144.537 283.488 144.17 281.626 143.436C279.764 142.684 278.189 141.655 276.9 140.348C275.629 139.041 274.653 137.537 273.973 135.836C273.31 134.135 272.979 132.336 272.979 130.438V129.417C272.979 127.287 273.274 125.318 273.865 123.509C274.456 121.683 275.333 120.09 276.497 118.729C277.661 117.368 279.12 116.312 280.875 115.56C282.629 114.79 284.67 114.405 286.998 114.405C289.056 114.405 290.901 114.736 292.53 115.399C294.159 116.061 295.538 117.01 296.666 118.246C297.811 119.481 298.68 120.976 299.271 122.73C299.879 124.485 300.184 126.454 300.184 128.639V132.318H276.443V126.651H291.348V125.953C291.366 124.986 291.196 124.163 290.838 123.482C290.498 122.802 289.996 122.283 289.334 121.925C288.672 121.567 287.866 121.388 286.917 121.388C285.932 121.388 285.118 121.603 284.473 122.032C283.847 122.462 283.354 123.053 282.996 123.805C282.656 124.539 282.414 125.389 282.271 126.356C282.128 127.323 282.056 128.343 282.056 129.417V130.438C282.056 131.512 282.199 132.488 282.486 133.365C282.79 134.243 283.22 134.994 283.775 135.621C284.348 136.23 285.028 136.704 285.816 137.044C286.622 137.385 287.535 137.555 288.555 137.555C289.791 137.555 291.008 137.322 292.208 136.856C293.407 136.391 294.437 135.621 295.296 134.547L299.405 139.435C298.814 140.276 297.972 141.091 296.88 141.878C295.806 142.666 294.517 143.311 293.013 143.812C291.509 144.295 289.826 144.537 287.964 144.537ZM340.225 130.76H349.625C349.499 133.482 348.765 135.881 347.422 137.958C346.08 140.034 344.218 141.655 341.836 142.818C339.473 143.964 336.68 144.537 333.458 144.537C330.844 144.537 328.507 144.098 326.448 143.221C324.407 142.344 322.671 141.082 321.238 139.435C319.824 137.787 318.741 135.791 317.989 133.446C317.255 131.1 316.888 128.46 316.888 125.523V123.402C316.888 120.466 317.273 117.825 318.042 115.479C318.83 113.116 319.94 111.111 321.373 109.464C322.823 107.799 324.559 106.528 326.583 105.65C328.606 104.773 330.853 104.334 333.323 104.334C336.725 104.334 339.598 104.943 341.944 106.161C344.289 107.378 346.106 109.052 347.396 111.183C348.685 113.295 349.445 115.703 349.678 118.407H340.279C340.243 116.939 339.992 115.712 339.527 114.728C339.061 113.725 338.327 112.973 337.325 112.472C336.322 111.97 334.988 111.72 333.323 111.72C332.16 111.72 331.148 111.935 330.289 112.364C329.429 112.794 328.713 113.474 328.14 114.405C327.567 115.336 327.138 116.545 326.851 118.031C326.583 119.499 326.448 121.271 326.448 123.348V125.523C326.448 127.6 326.574 129.373 326.824 130.841C327.075 132.309 327.478 133.508 328.033 134.439C328.588 135.37 329.304 136.06 330.181 136.507C331.076 136.937 332.168 137.152 333.458 137.152C334.89 137.152 336.098 136.928 337.083 136.48C338.068 136.015 338.829 135.317 339.366 134.386C339.903 133.437 340.189 132.228 340.225 130.76ZM367.725 144.537C365.362 144.537 363.249 144.17 361.387 143.436C359.525 142.684 357.95 141.655 356.661 140.348C355.389 139.041 354.414 137.537 353.733 135.836C353.071 134.135 352.74 132.336 352.74 130.438V129.417C352.74 127.287 353.035 125.318 353.626 123.509C354.217 121.683 355.094 120.09 356.258 118.729C357.422 117.368 358.881 116.312 360.635 115.56C362.39 114.79 364.431 114.405 366.758 114.405C368.817 114.405 370.661 114.736 372.291 115.399C373.92 116.061 375.298 117.01 376.426 118.246C377.572 119.481 378.44 120.976 379.031 122.73C379.64 124.485 379.944 126.454 379.944 128.639V132.318H356.204V126.651H371.109V125.953C371.127 124.986 370.957 124.163 370.599 123.482C370.258 122.802 369.757 122.283 369.095 121.925C368.432 121.567 367.627 121.388 366.678 121.388C365.693 121.388 364.878 121.603 364.234 122.032C363.607 122.462 363.115 123.053 362.757 123.805C362.417 124.539 362.175 125.389 362.032 126.356C361.889 127.323 361.817 128.343 361.817 129.417V130.438C361.817 131.512 361.96 132.488 362.247 133.365C362.551 134.243 362.981 134.994 363.536 135.621C364.109 136.23 364.789 136.704 365.577 137.044C366.382 137.385 367.295 137.555 368.316 137.555C369.551 137.555 370.769 137.322 371.968 136.856C373.168 136.391 374.197 135.621 375.057 134.547L379.166 139.435C378.575 140.276 377.733 141.091 376.641 141.878C375.567 142.666 374.278 143.311 372.774 143.812C371.27 144.295 369.587 144.537 367.725 144.537ZM392.513 121.146V144H383.462V114.942H391.949L392.513 121.146ZM391.438 128.478L389.317 128.531C389.317 126.311 389.585 124.333 390.123 122.596C390.66 120.842 391.421 119.356 392.405 118.138C393.39 116.921 394.563 115.999 395.923 115.372C397.302 114.728 398.833 114.405 400.516 114.405C401.858 114.405 403.085 114.602 404.195 114.996C405.323 115.39 406.29 116.026 407.095 116.903C407.919 117.78 408.545 118.944 408.975 120.394C409.423 121.826 409.646 123.599 409.646 125.711V144H400.542V125.685C400.542 124.521 400.381 123.635 400.059 123.026C399.737 122.399 399.271 121.97 398.663 121.737C398.054 121.504 397.311 121.388 396.434 121.388C395.503 121.388 394.715 121.567 394.07 121.925C393.426 122.283 392.907 122.784 392.513 123.429C392.137 124.055 391.859 124.798 391.68 125.658C391.519 126.517 391.438 127.457 391.438 128.478ZM429.976 114.942V121.227H412.466V114.942H429.976ZM416.146 107.718H425.196V134.52C425.196 135.29 425.285 135.89 425.464 136.319C425.643 136.731 425.948 137.027 426.377 137.206C426.825 137.367 427.416 137.447 428.15 137.447C428.669 137.447 429.099 137.438 429.439 137.42C429.779 137.385 430.101 137.34 430.406 137.286V143.758C429.636 144.009 428.83 144.197 427.989 144.322C427.147 144.465 426.252 144.537 425.303 144.537C423.37 144.537 421.714 144.233 420.335 143.624C418.974 143.015 417.936 142.057 417.22 140.75C416.504 139.444 416.146 137.743 416.146 135.648V107.718ZM447.647 144.537C445.284 144.537 443.171 144.17 441.309 143.436C439.447 142.684 437.872 141.655 436.583 140.348C435.311 139.041 434.336 137.537 433.655 135.836C432.993 134.135 432.662 132.336 432.662 130.438V129.417C432.662 127.287 432.957 125.318 433.548 123.509C434.139 121.683 435.016 120.09 436.18 118.729C437.343 117.368 438.803 116.312 440.557 115.56C442.312 114.79 444.353 114.405 446.68 114.405C448.739 114.405 450.583 114.736 452.212 115.399C453.842 116.061 455.22 117.01 456.348 118.246C457.494 119.481 458.362 120.976 458.953 122.73C459.562 124.485 459.866 126.454 459.866 128.639V132.318H436.126V126.651H451.031V125.953C451.049 124.986 450.879 124.163 450.521 123.482C450.18 122.802 449.679 122.283 449.017 121.925C448.354 121.567 447.549 121.388 446.6 121.388C445.615 121.388 444.8 121.603 444.156 122.032C443.529 122.462 443.037 123.053 442.679 123.805C442.339 124.539 442.097 125.389 441.954 126.356C441.81 127.323 441.739 128.343 441.739 129.417V130.438C441.739 131.512 441.882 132.488 442.168 133.365C442.473 134.243 442.903 134.994 443.458 135.621C444.03 136.23 444.711 136.704 445.499 137.044C446.304 137.385 447.217 137.555 448.238 137.555C449.473 137.555 450.691 137.322 451.89 136.856C453.09 136.391 454.119 135.621 454.979 134.547L459.087 139.435C458.497 140.276 457.655 141.091 456.563 141.878C455.489 142.666 454.2 143.311 452.696 143.812C451.192 144.295 449.509 144.537 447.647 144.537ZM472.676 122.14V144H463.626V114.942H472.085L472.676 122.14ZM481.27 114.728L481.109 123.133C480.751 123.097 480.267 123.053 479.659 122.999C479.05 122.945 478.54 122.918 478.128 122.918C477.072 122.918 476.159 123.044 475.389 123.294C474.637 123.527 474.01 123.885 473.509 124.369C473.025 124.834 472.667 125.425 472.435 126.141C472.22 126.857 472.121 127.69 472.139 128.639L470.501 127.564C470.501 125.613 470.689 123.84 471.065 122.247C471.459 120.636 472.014 119.248 472.73 118.084C473.446 116.903 474.314 115.999 475.335 115.372C476.355 114.728 477.501 114.405 478.772 114.405C479.22 114.405 479.659 114.432 480.088 114.486C480.536 114.54 480.93 114.62 481.27 114.728Z" fill="white"/>
</g>
<g style="mix-blend-mode:exclusion">
<path d="M96.563 55.1172H100.904L107.295 73.3862L113.687 55.1172H118.028L109.039 80H105.552L96.563 55.1172ZM94.2217 55.1172H98.5454L99.3315 72.9248V80H94.2217V55.1172ZM116.045 55.1172H120.386V80H115.259V72.9248L116.045 55.1172ZM123.787 70.9424V70.5835C123.787 69.2277 123.981 67.9801 124.368 66.8408C124.756 65.6901 125.319 64.6932 126.06 63.8501C126.801 63.007 127.712 62.3519 128.794 61.8848C129.877 61.4062 131.119 61.167 132.52 61.167C133.921 61.167 135.169 61.4062 136.263 61.8848C137.356 62.3519 138.274 63.007 139.014 63.8501C139.766 64.6932 140.336 65.6901 140.723 66.8408C141.111 67.9801 141.304 69.2277 141.304 70.5835V70.9424C141.304 72.2868 141.111 73.5343 140.723 74.6851C140.336 75.8244 139.766 76.8213 139.014 77.6758C138.274 78.5189 137.362 79.174 136.28 79.6411C135.197 80.1082 133.956 80.3418 132.554 80.3418C131.153 80.3418 129.905 80.1082 128.812 79.6411C127.729 79.174 126.812 78.5189 126.06 77.6758C125.319 76.8213 124.756 75.8244 124.368 74.6851C123.981 73.5343 123.787 72.2868 123.787 70.9424ZM128.709 70.5835V70.9424C128.709 71.7171 128.777 72.4406 128.914 73.1128C129.051 73.785 129.267 74.3774 129.563 74.8901C129.871 75.3914 130.27 75.7845 130.76 76.0693C131.25 76.3542 131.848 76.4966 132.554 76.4966C133.238 76.4966 133.825 76.3542 134.314 76.0693C134.804 75.7845 135.197 75.3914 135.494 74.8901C135.79 74.3774 136.006 73.785 136.143 73.1128C136.291 72.4406 136.365 71.7171 136.365 70.9424V70.5835C136.365 69.8315 136.291 69.1252 136.143 68.4644C136.006 67.7922 135.784 67.1997 135.477 66.687C135.18 66.1629 134.787 65.7528 134.297 65.4565C133.807 65.1603 133.215 65.0122 132.52 65.0122C131.825 65.0122 131.233 65.1603 130.743 65.4565C130.264 65.7528 129.871 66.1629 129.563 66.687C129.267 67.1997 129.051 67.7922 128.914 68.4644C128.777 69.1252 128.709 69.8315 128.709 70.5835ZM155.267 75.5737V61.5088H160.188V80H155.557L155.267 75.5737ZM155.813 71.7798L157.266 71.7456C157.266 72.9761 157.124 74.1211 156.839 75.1807C156.554 76.2288 156.127 77.1403 155.557 77.915C154.987 78.6784 154.27 79.2765 153.404 79.7095C152.538 80.131 151.518 80.3418 150.345 80.3418C149.445 80.3418 148.613 80.2165 147.85 79.9658C147.098 79.7038 146.448 79.2993 145.901 78.7524C145.366 78.1942 144.944 77.4821 144.637 76.6162C144.34 75.7389 144.192 74.6851 144.192 73.4546V61.5088H149.114V73.4888C149.114 74.0356 149.177 74.4971 149.302 74.873C149.439 75.249 149.627 75.5566 149.866 75.7959C150.105 76.0352 150.385 76.2061 150.704 76.3086C151.034 76.4111 151.399 76.4624 151.797 76.4624C152.811 76.4624 153.609 76.2573 154.19 75.8472C154.782 75.437 155.198 74.8787 155.438 74.1724C155.688 73.4546 155.813 72.6571 155.813 71.7798ZM173.946 74.8901C173.946 74.5369 173.843 74.2179 173.638 73.9331C173.433 73.6483 173.051 73.3862 172.493 73.147C171.946 72.8963 171.154 72.6685 170.118 72.4634C169.183 72.2583 168.312 72.002 167.503 71.6943C166.705 71.3753 166.01 70.9937 165.418 70.5493C164.837 70.105 164.381 69.5809 164.051 68.9771C163.72 68.3618 163.555 67.6611 163.555 66.875C163.555 66.1003 163.72 65.3711 164.051 64.6875C164.393 64.0039 164.877 63.4001 165.503 62.876C166.141 62.3405 166.916 61.9246 167.828 61.6284C168.75 61.3208 169.787 61.167 170.938 61.167C172.544 61.167 173.923 61.4233 175.074 61.936C176.236 62.4487 177.125 63.1551 177.74 64.0552C178.366 64.9438 178.68 65.9578 178.68 67.0972H173.758C173.758 66.6187 173.655 66.1914 173.45 65.8154C173.257 65.4281 172.949 65.1261 172.527 64.9097C172.117 64.6818 171.582 64.5679 170.921 64.5679C170.374 64.5679 169.901 64.6647 169.502 64.8584C169.104 65.0407 168.796 65.2913 168.58 65.6104C168.375 65.918 168.272 66.2598 168.272 66.6357C168.272 66.9206 168.329 67.1769 168.443 67.4048C168.568 67.6213 168.768 67.8206 169.041 68.0029C169.314 68.1852 169.668 68.3561 170.101 68.5156C170.545 68.6637 171.092 68.8005 171.741 68.9258C173.074 69.1992 174.265 69.5581 175.313 70.0024C176.361 70.4354 177.193 71.0278 177.808 71.7798C178.423 72.5203 178.731 73.4945 178.731 74.7021C178.731 75.5225 178.549 76.2744 178.184 76.958C177.819 77.6416 177.295 78.2397 176.612 78.7524C175.928 79.2537 175.108 79.6468 174.151 79.9316C173.205 80.2051 172.14 80.3418 170.955 80.3418C169.235 80.3418 167.776 80.0342 166.58 79.4189C165.395 78.8037 164.495 78.0233 163.88 77.0776C163.276 76.1206 162.974 75.1408 162.974 74.1382H167.64C167.662 74.8104 167.833 75.3516 168.152 75.7617C168.483 76.1719 168.899 76.4681 169.4 76.6504C169.913 76.8327 170.465 76.9238 171.058 76.9238C171.696 76.9238 172.225 76.8384 172.647 76.6675C173.069 76.4852 173.388 76.2459 173.604 75.9497C173.832 75.6421 173.946 75.2889 173.946 74.8901ZM190.984 61.5088V64.9951H180.218V61.5088H190.984ZM182.884 56.9458H187.806V74.4287C187.806 74.9642 187.874 75.3743 188.011 75.6592C188.159 75.944 188.375 76.1434 188.66 76.2573C188.945 76.3599 189.304 76.4111 189.737 76.4111C190.044 76.4111 190.318 76.3997 190.557 76.377C190.808 76.3428 191.019 76.3086 191.189 76.2744L191.207 79.8975C190.785 80.0342 190.329 80.1424 189.839 80.2222C189.349 80.3019 188.808 80.3418 188.216 80.3418C187.133 80.3418 186.188 80.1652 185.379 79.812C184.581 79.4474 183.966 78.8664 183.533 78.0688C183.1 77.2713 182.884 76.2231 182.884 74.9243V56.9458ZM203.768 75.8301V67.5928C203.768 67.0003 203.671 66.4933 203.477 66.0718C203.283 65.6388 202.981 65.3027 202.571 65.0635C202.173 64.8242 201.654 64.7046 201.016 64.7046C200.469 64.7046 199.996 64.8014 199.598 64.9951C199.199 65.1774 198.891 65.4451 198.675 65.7983C198.458 66.1401 198.35 66.5446 198.35 67.0117H193.428C193.428 66.2256 193.611 65.4793 193.975 64.7729C194.34 64.0666 194.869 63.4456 195.564 62.9102C196.259 62.3633 197.085 61.936 198.042 61.6284C199.011 61.3208 200.093 61.167 201.29 61.167C202.725 61.167 204.001 61.4062 205.118 61.8848C206.234 62.3633 207.111 63.0811 207.75 64.0381C208.399 64.9951 208.724 66.1914 208.724 67.627V75.5396C208.724 76.5535 208.786 77.3853 208.912 78.0347C209.037 78.6727 209.219 79.231 209.458 79.7095V80H204.485C204.246 79.4987 204.064 78.8721 203.938 78.1201C203.825 77.3568 203.768 76.5934 203.768 75.8301ZM204.417 68.7378L204.451 71.5234H201.7C201.05 71.5234 200.486 71.5975 200.008 71.7456C199.529 71.8937 199.136 72.1045 198.829 72.3779C198.521 72.64 198.293 72.9476 198.145 73.3008C198.008 73.654 197.94 74.0413 197.94 74.4629C197.94 74.8844 198.037 75.2661 198.23 75.6079C198.424 75.9383 198.703 76.2004 199.068 76.394C199.432 76.5763 199.86 76.6675 200.35 76.6675C201.09 76.6675 201.734 76.5194 202.281 76.2231C202.828 75.9269 203.249 75.5623 203.545 75.1294C203.853 74.6965 204.013 74.2863 204.024 73.8989L205.323 75.9839C205.14 76.451 204.89 76.9352 204.571 77.4365C204.263 77.9378 203.87 78.4106 203.392 78.855C202.913 79.2879 202.338 79.6468 201.666 79.9316C200.993 80.2051 200.196 80.3418 199.273 80.3418C198.099 80.3418 197.034 80.1082 196.077 79.6411C195.132 79.1626 194.38 78.5075 193.821 77.6758C193.274 76.8327 193.001 75.8757 193.001 74.8047C193.001 73.8363 193.183 72.9761 193.548 72.2241C193.912 71.4722 194.448 70.8398 195.154 70.3271C195.872 69.8031 196.766 69.41 197.837 69.1479C198.908 68.8745 200.15 68.7378 201.563 68.7378H204.417ZM218.79 80H213.833V59.8682C213.833 58.4668 214.107 57.2876 214.654 56.3306C215.212 55.3621 215.993 54.633 216.995 54.1431C218.009 53.6418 219.211 53.3911 220.601 53.3911C221.057 53.3911 221.495 53.4253 221.917 53.4937C222.339 53.5506 222.749 53.6247 223.147 53.7158L223.096 57.4243C222.88 57.3674 222.652 57.3275 222.413 57.3047C222.173 57.2819 221.894 57.2705 221.575 57.2705C220.983 57.2705 220.476 57.373 220.054 57.5781C219.644 57.7718 219.331 58.0623 219.114 58.4497C218.898 58.8371 218.79 59.3099 218.79 59.8682V80ZM222.481 61.5088V64.9951H211.082V61.5088H222.481ZM235.042 75.8301V67.5928C235.042 67.0003 234.945 66.4933 234.751 66.0718C234.558 65.6388 234.256 65.3027 233.846 65.0635C233.447 64.8242 232.929 64.7046 232.291 64.7046C231.744 64.7046 231.271 64.8014 230.872 64.9951C230.473 65.1774 230.166 65.4451 229.949 65.7983C229.733 66.1401 229.625 66.5446 229.625 67.0117H224.703C224.703 66.2256 224.885 65.4793 225.25 64.7729C225.614 64.0666 226.144 63.4456 226.839 62.9102C227.534 62.3633 228.36 61.936 229.317 61.6284C230.285 61.3208 231.368 61.167 232.564 61.167C234 61.167 235.276 61.4062 236.392 61.8848C237.509 62.3633 238.386 63.0811 239.024 64.0381C239.673 64.9951 239.998 66.1914 239.998 67.627V75.5396C239.998 76.5535 240.061 77.3853 240.186 78.0347C240.311 78.6727 240.494 79.231 240.733 79.7095V80H235.76C235.521 79.4987 235.338 78.8721 235.213 78.1201C235.099 77.3568 235.042 76.5934 235.042 75.8301ZM235.691 68.7378L235.726 71.5234H232.974C232.325 71.5234 231.761 71.5975 231.282 71.7456C230.804 71.8937 230.411 72.1045 230.103 72.3779C229.795 72.64 229.568 72.9476 229.419 73.3008C229.283 73.654 229.214 74.0413 229.214 74.4629C229.214 74.8844 229.311 75.2661 229.505 75.6079C229.699 75.9383 229.978 76.2004 230.342 76.394C230.707 76.5763 231.134 76.6675 231.624 76.6675C232.365 76.6675 233.008 76.5194 233.555 76.2231C234.102 75.9269 234.524 75.5623 234.82 75.1294C235.127 74.6965 235.287 74.2863 235.298 73.8989L236.597 75.9839C236.415 76.451 236.164 76.9352 235.845 77.4365C235.538 77.9378 235.145 78.4106 234.666 78.855C234.188 79.2879 233.612 79.6468 232.94 79.9316C232.268 80.2051 231.47 80.3418 230.547 80.3418C229.374 80.3418 228.309 80.1082 227.352 79.6411C226.406 79.1626 225.654 78.5075 225.096 77.6758C224.549 76.8327 224.275 75.8757 224.275 74.8047C224.275 73.8363 224.458 72.9761 224.822 72.2241C225.187 71.4722 225.722 70.8398 226.429 70.3271C227.146 69.8031 228.041 69.41 229.112 69.1479C230.183 68.8745 231.425 68.7378 232.837 68.7378H235.691ZM258.267 55.1172V80H253.157V55.1172H258.267ZM272.759 74.8901C272.759 74.5369 272.657 74.2179 272.452 73.9331C272.247 73.6483 271.865 73.3862 271.307 73.147C270.76 72.8963 269.968 72.6685 268.931 72.4634C267.997 72.2583 267.125 72.002 266.316 71.6943C265.519 71.3753 264.824 70.9937 264.231 70.5493C263.65 70.105 263.195 69.5809 262.864 68.9771C262.534 68.3618 262.369 67.6611 262.369 66.875C262.369 66.1003 262.534 65.3711 262.864 64.6875C263.206 64.0039 263.69 63.4001 264.317 62.876C264.955 62.3405 265.73 61.9246 266.641 61.6284C267.564 61.3208 268.601 61.167 269.751 61.167C271.358 61.167 272.736 61.4233 273.887 61.936C275.049 62.4487 275.938 63.1551 276.553 64.0552C277.18 64.9438 277.493 65.9578 277.493 67.0972H272.571C272.571 66.6187 272.469 66.1914 272.264 65.8154C272.07 65.4281 271.762 65.1261 271.341 64.9097C270.931 64.6818 270.395 64.5679 269.734 64.5679C269.188 64.5679 268.715 64.6647 268.316 64.8584C267.917 65.0407 267.61 65.2913 267.393 65.6104C267.188 65.918 267.085 66.2598 267.085 66.6357C267.085 66.9206 267.142 67.1769 267.256 67.4048C267.382 67.6213 267.581 67.8206 267.854 68.0029C268.128 68.1852 268.481 68.3561 268.914 68.5156C269.358 68.6637 269.905 68.8005 270.555 68.9258C271.888 69.1992 273.078 69.5581 274.126 70.0024C275.175 70.4354 276.006 71.0278 276.622 71.7798C277.237 72.5203 277.544 73.4945 277.544 74.7021C277.544 75.5225 277.362 76.2744 276.998 76.958C276.633 77.6416 276.109 78.2397 275.425 78.7524C274.742 79.2537 273.921 79.6468 272.964 79.9316C272.019 80.2051 270.953 80.3418 269.769 80.3418C268.048 80.3418 266.59 80.0342 265.394 79.4189C264.209 78.8037 263.309 78.0233 262.693 77.0776C262.09 76.1206 261.788 75.1408 261.788 74.1382H266.453C266.476 74.8104 266.647 75.3516 266.966 75.7617C267.296 76.1719 267.712 76.4681 268.213 76.6504C268.726 76.8327 269.279 76.9238 269.871 76.9238C270.509 76.9238 271.039 76.8384 271.46 76.6675C271.882 76.4852 272.201 76.2459 272.417 75.9497C272.645 75.6421 272.759 75.2889 272.759 74.8901ZM285.662 65.3369V80H280.723V61.5088H285.354L285.662 65.3369ZM284.979 70.105H283.611C283.611 68.8175 283.765 67.6326 284.073 66.5503C284.392 65.4565 284.853 64.5109 285.457 63.7134C286.072 62.9045 286.83 62.2778 287.73 61.8335C288.63 61.3892 289.673 61.167 290.857 61.167C291.678 61.167 292.43 61.2923 293.113 61.543C293.797 61.7822 294.384 62.1639 294.874 62.688C295.375 63.2007 295.762 63.8729 296.036 64.7046C296.309 65.5249 296.446 66.5104 296.446 67.6611V80H291.524V68.208C291.524 67.3649 291.41 66.7155 291.182 66.2598C290.954 65.804 290.63 65.485 290.208 65.3027C289.798 65.1204 289.302 65.0293 288.721 65.0293C288.083 65.0293 287.525 65.1603 287.046 65.4224C286.579 65.6844 286.192 66.049 285.884 66.5161C285.577 66.9718 285.349 67.5073 285.201 68.1226C285.053 68.7378 284.979 69.3986 284.979 70.105ZM295.984 69.541L294.224 69.7632C294.224 68.5555 294.372 67.4333 294.668 66.3965C294.976 65.3597 295.426 64.4482 296.019 63.6621C296.622 62.876 297.369 62.2664 298.257 61.8335C299.146 61.3892 300.171 61.167 301.333 61.167C302.222 61.167 303.031 61.298 303.76 61.5601C304.489 61.8107 305.11 62.2152 305.623 62.7734C306.147 63.3203 306.546 64.0381 306.819 64.9268C307.104 65.8154 307.247 66.9035 307.247 68.1909V80H302.308V68.1909C302.308 67.3364 302.194 66.687 301.966 66.2427C301.749 65.7869 301.43 65.4736 301.009 65.3027C300.599 65.1204 300.109 65.0293 299.539 65.0293C298.947 65.0293 298.428 65.1489 297.984 65.3882C297.54 65.616 297.169 65.9351 296.873 66.3452C296.577 66.7554 296.355 67.2339 296.207 67.7808C296.058 68.3162 295.984 68.903 295.984 69.541ZM321.038 75.8301V67.5928C321.038 67.0003 320.941 66.4933 320.748 66.0718C320.554 65.6388 320.252 65.3027 319.842 65.0635C319.443 64.8242 318.925 64.7046 318.287 64.7046C317.74 64.7046 317.267 64.8014 316.868 64.9951C316.469 65.1774 316.162 65.4451 315.945 65.7983C315.729 66.1401 315.621 66.5446 315.621 67.0117H310.699C310.699 66.2256 310.881 65.4793 311.246 64.7729C311.61 64.0666 312.14 63.4456 312.835 62.9102C313.53 62.3633 314.356 61.936 315.313 61.6284C316.281 61.3208 317.364 61.167 318.56 61.167C319.996 61.167 321.272 61.4062 322.388 61.8848C323.505 62.3633 324.382 63.0811 325.02 64.0381C325.669 64.9951 325.994 66.1914 325.994 67.627V75.5396C325.994 76.5535 326.057 77.3853 326.182 78.0347C326.307 78.6727 326.49 79.231 326.729 79.7095V80H321.756C321.517 79.4987 321.334 78.8721 321.209 78.1201C321.095 77.3568 321.038 76.5934 321.038 75.8301ZM321.688 68.7378L321.722 71.5234H318.97C318.321 71.5234 317.757 71.5975 317.278 71.7456C316.8 71.8937 316.407 72.1045 316.099 72.3779C315.792 72.64 315.564 72.9476 315.416 73.3008C315.279 73.654 315.21 74.0413 315.21 74.4629C315.21 74.8844 315.307 75.2661 315.501 75.6079C315.695 75.9383 315.974 76.2004 316.338 76.394C316.703 76.5763 317.13 76.6675 317.62 76.6675C318.361 76.6675 319.004 76.5194 319.551 76.2231C320.098 75.9269 320.52 75.5623 320.816 75.1294C321.124 74.6965 321.283 74.2863 321.294 73.8989L322.593 75.9839C322.411 76.451 322.16 76.9352 321.841 77.4365C321.534 77.9378 321.141 78.4106 320.662 78.855C320.184 79.2879 319.608 79.6468 318.936 79.9316C318.264 80.2051 317.466 80.3418 316.543 80.3418C315.37 80.3418 314.305 80.1082 313.348 79.6411C312.402 79.1626 311.65 78.5075 311.092 77.6758C310.545 76.8327 310.271 75.8757 310.271 74.8047C310.271 73.8363 310.454 72.9761 310.818 72.2241C311.183 71.4722 311.718 70.8398 312.425 70.3271C313.143 69.8031 314.037 69.41 315.108 69.1479C316.179 68.8745 317.421 68.7378 318.833 68.7378H321.688ZM334.983 61.5088V80H330.044V61.5088H334.983ZM329.737 56.6895C329.737 55.9717 329.987 55.3792 330.489 54.9121C330.99 54.445 331.662 54.2114 332.505 54.2114C333.337 54.2114 334.004 54.445 334.505 54.9121C335.018 55.3792 335.274 55.9717 335.274 56.6895C335.274 57.4072 335.018 57.9997 334.505 58.4668C334.004 58.9339 333.337 59.1675 332.505 59.1675C331.662 59.1675 330.99 58.9339 330.489 58.4668C329.987 57.9997 329.737 57.4072 329.737 56.6895ZM344.246 53.75V80H339.307V53.75H344.246Z" fill="white" fill-opacity="0.5"/>
</g>
<g style="mix-blend-mode:exclusion">
<rect x="92" y="181" width="1179" height="80" rx="13.3333" fill="white" fill-opacity="0.1"/>
</g>
<g style="mix-blend-mode:exclusion">
<rect x="105" y="194.333" width="212" height="53.3333" rx="6.66667" fill="white" fill-opacity="0.35"/>
</g>
<path d="M171.823 213.167H177.792C178.958 213.167 179.972 213.34 180.833 213.687C181.694 214.035 182.358 214.549 182.823 215.229C183.295 215.91 183.531 216.75 183.531 217.75C183.531 218.618 183.396 219.344 183.125 219.927C182.854 220.51 182.476 220.993 181.99 221.375C181.51 221.75 180.951 222.059 180.312 222.302L179.115 222.979H174.104L174.083 220.156H177.792C178.257 220.156 178.642 220.073 178.948 219.906C179.253 219.74 179.483 219.503 179.635 219.198C179.795 218.885 179.875 218.514 179.875 218.083C179.875 217.646 179.795 217.271 179.635 216.958C179.476 216.646 179.24 216.406 178.927 216.24C178.622 216.073 178.243 215.99 177.792 215.99H175.479V228.333H171.823V213.167ZM180.125 228.333L176.771 221.625L180.646 221.604L184.042 228.177V228.333H180.125ZM191.031 228.542C190.115 228.542 189.295 228.399 188.573 228.115C187.851 227.823 187.24 227.424 186.74 226.917C186.247 226.41 185.868 225.826 185.604 225.167C185.347 224.507 185.219 223.809 185.219 223.073V222.677C185.219 221.851 185.333 221.087 185.562 220.385C185.792 219.677 186.132 219.059 186.583 218.531C187.035 218.003 187.601 217.594 188.281 217.302C188.962 217.003 189.753 216.854 190.656 216.854C191.455 216.854 192.17 216.983 192.802 217.24C193.434 217.497 193.969 217.865 194.406 218.344C194.851 218.823 195.187 219.403 195.417 220.083C195.653 220.764 195.771 221.528 195.771 222.375V223.802H186.562V221.604H192.344V221.333C192.351 220.958 192.285 220.639 192.146 220.375C192.014 220.111 191.819 219.91 191.562 219.771C191.306 219.632 190.993 219.562 190.625 219.562C190.243 219.562 189.927 219.646 189.677 219.812C189.434 219.979 189.243 220.208 189.104 220.5C188.972 220.785 188.878 221.115 188.823 221.49C188.767 221.865 188.74 222.26 188.74 222.677V223.073C188.74 223.49 188.795 223.868 188.906 224.208C189.024 224.549 189.191 224.84 189.406 225.083C189.628 225.319 189.892 225.503 190.198 225.635C190.51 225.767 190.865 225.833 191.26 225.833C191.74 225.833 192.212 225.743 192.677 225.562C193.142 225.382 193.542 225.083 193.875 224.667L195.469 226.562C195.24 226.889 194.913 227.205 194.49 227.51C194.073 227.816 193.573 228.066 192.99 228.26C192.406 228.448 191.753 228.542 191.031 228.542ZM203.052 225.5V220.854C203.052 220.535 203.007 220.26 202.917 220.031C202.826 219.802 202.684 219.625 202.49 219.5C202.295 219.368 202.035 219.302 201.708 219.302C201.444 219.302 201.219 219.347 201.031 219.437C200.844 219.528 200.701 219.663 200.604 219.844C200.507 220.024 200.458 220.253 200.458 220.531H196.948C196.948 220.01 197.062 219.528 197.292 219.083C197.528 218.632 197.861 218.24 198.292 217.906C198.729 217.573 199.25 217.316 199.854 217.135C200.465 216.948 201.146 216.854 201.896 216.854C202.792 216.854 203.59 217.003 204.292 217.302C205 217.601 205.559 218.049 205.969 218.646C206.378 219.236 206.583 219.979 206.583 220.875V225.49C206.583 226.226 206.625 226.785 206.708 227.167C206.792 227.542 206.91 227.872 207.062 228.156V228.333H203.542C203.375 227.986 203.25 227.562 203.167 227.062C203.09 226.556 203.052 226.035 203.052 225.5ZM203.479 221.448L203.5 223.323H201.948C201.622 223.323 201.344 223.368 201.115 223.458C200.892 223.549 200.712 223.674 200.573 223.833C200.441 223.986 200.344 224.16 200.281 224.354C200.226 224.549 200.198 224.753 200.198 224.969C200.198 225.177 200.247 225.365 200.344 225.531C200.448 225.691 200.587 225.816 200.76 225.906C200.934 225.997 201.128 226.042 201.344 226.042C201.733 226.042 202.062 225.969 202.333 225.823C202.611 225.67 202.823 225.486 202.969 225.271C203.115 225.056 203.187 224.854 203.187 224.667L203.958 226.104C203.819 226.382 203.66 226.663 203.479 226.948C203.306 227.233 203.087 227.497 202.823 227.74C202.566 227.976 202.25 228.17 201.875 228.323C201.5 228.469 201.045 228.542 200.51 228.542C199.816 228.542 199.177 228.399 198.594 228.115C198.017 227.83 197.556 227.434 197.208 226.927C196.861 226.413 196.687 225.823 196.687 225.156C196.687 224.573 196.792 224.052 197 223.594C197.215 223.135 197.538 222.747 197.969 222.427C198.399 222.108 198.948 221.865 199.615 221.698C200.281 221.531 201.066 221.448 201.969 221.448H203.479ZM213.292 225.833C213.618 225.833 213.896 225.774 214.125 225.656C214.361 225.531 214.538 225.358 214.656 225.135C214.781 224.906 214.84 224.632 214.833 224.312H218.135C218.142 225.16 217.934 225.903 217.51 226.542C217.094 227.174 216.524 227.667 215.802 228.021C215.087 228.368 214.278 228.542 213.375 228.542C212.493 228.542 211.722 228.399 211.062 228.115C210.403 227.823 209.851 227.42 209.406 226.906C208.969 226.385 208.639 225.778 208.417 225.083C208.201 224.389 208.094 223.635 208.094 222.823V222.583C208.094 221.771 208.201 221.017 208.417 220.323C208.639 219.622 208.969 219.014 209.406 218.5C209.851 217.979 210.399 217.576 211.052 217.292C211.712 217 212.479 216.854 213.354 216.854C214.292 216.854 215.118 217.031 215.833 217.385C216.556 217.74 217.122 218.253 217.531 218.927C217.941 219.601 218.142 220.417 218.135 221.375H214.833C214.84 221.035 214.788 220.729 214.677 220.458C214.566 220.187 214.392 219.972 214.156 219.812C213.927 219.646 213.632 219.562 213.271 219.562C212.91 219.562 212.618 219.642 212.396 219.802C212.174 219.962 212.003 220.184 211.885 220.469C211.774 220.747 211.698 221.066 211.656 221.427C211.622 221.788 211.604 222.174 211.604 222.583V222.823C211.604 223.24 211.622 223.632 211.656 224C211.698 224.361 211.778 224.681 211.896 224.958C212.014 225.229 212.184 225.444 212.406 225.604C212.628 225.757 212.924 225.833 213.292 225.833ZM225.573 217.062V219.5H218.781V217.062H225.573ZM220.208 214.26H223.719V224.656C223.719 224.955 223.753 225.187 223.823 225.354C223.892 225.514 224.01 225.628 224.177 225.698C224.351 225.76 224.58 225.792 224.865 225.792C225.066 225.792 225.233 225.788 225.365 225.781C225.497 225.767 225.622 225.75 225.74 225.729V228.24C225.441 228.337 225.128 228.41 224.802 228.458C224.476 228.514 224.128 228.542 223.76 228.542C223.01 228.542 222.368 228.424 221.833 228.187C221.306 227.951 220.903 227.58 220.625 227.073C220.347 226.566 220.208 225.906 220.208 225.094V214.26ZM233.167 223.573V213.167H236.812V223.573C236.812 224.587 236.58 225.465 236.115 226.208C235.656 226.951 235.031 227.528 234.24 227.937C233.455 228.34 232.573 228.542 231.594 228.542C230.58 228.542 229.677 228.372 228.885 228.031C228.101 227.691 227.483 227.167 227.031 226.458C226.587 225.75 226.365 224.847 226.365 223.75H230.031C230.031 224.264 230.09 224.667 230.208 224.958C230.326 225.243 230.5 225.444 230.729 225.562C230.965 225.674 231.253 225.729 231.594 225.729C231.927 225.729 232.208 225.646 232.437 225.479C232.674 225.306 232.854 225.059 232.979 224.74C233.104 224.413 233.167 224.024 233.167 223.573ZM246.948 224.302C246.948 224.066 246.913 223.854 246.844 223.667C246.774 223.472 246.646 223.292 246.458 223.125C246.271 222.958 246 222.792 245.646 222.625C245.299 222.451 244.84 222.271 244.271 222.083C243.604 221.861 242.962 221.611 242.344 221.333C241.726 221.049 241.174 220.719 240.687 220.344C240.201 219.962 239.816 219.517 239.531 219.01C239.247 218.497 239.104 217.899 239.104 217.219C239.104 216.566 239.25 215.979 239.542 215.458C239.833 214.931 240.24 214.483 240.76 214.115C241.288 213.74 241.906 213.455 242.615 213.26C243.323 213.059 244.097 212.958 244.937 212.958C246.049 212.958 247.028 213.153 247.875 213.542C248.729 213.924 249.396 214.469 249.875 215.177C250.361 215.878 250.604 216.708 250.604 217.667H246.969C246.969 217.285 246.889 216.948 246.729 216.656C246.576 216.365 246.344 216.135 246.031 215.969C245.719 215.802 245.326 215.719 244.854 215.719C244.396 215.719 244.01 215.788 243.698 215.927C243.385 216.066 243.149 216.253 242.99 216.49C242.83 216.719 242.75 216.972 242.75 217.25C242.75 217.479 242.812 217.687 242.937 217.875C243.069 218.056 243.253 218.226 243.49 218.385C243.733 218.545 244.024 218.698 244.365 218.844C244.712 218.99 245.101 219.132 245.531 219.271C246.337 219.528 247.052 219.816 247.677 220.135C248.309 220.448 248.84 220.806 249.271 221.208C249.708 221.604 250.038 222.056 250.26 222.562C250.49 223.069 250.604 223.642 250.604 224.281C250.604 224.962 250.472 225.566 250.208 226.094C249.944 226.622 249.566 227.069 249.073 227.437C248.58 227.799 247.99 228.073 247.302 228.26C246.615 228.448 245.847 228.542 245 228.542C244.222 228.542 243.455 228.444 242.698 228.25C241.948 228.049 241.267 227.743 240.656 227.333C240.045 226.917 239.556 226.385 239.187 225.74C238.826 225.087 238.646 224.312 238.646 223.417H242.312C242.312 223.861 242.372 224.236 242.49 224.542C242.608 224.847 242.781 225.094 243.01 225.281C243.24 225.462 243.521 225.594 243.854 225.677C244.187 225.753 244.569 225.792 245 225.792C245.465 225.792 245.84 225.726 246.125 225.594C246.41 225.455 246.618 225.274 246.75 225.052C246.882 224.823 246.948 224.573 246.948 224.302Z" fill="white"/>
<g style="mix-blend-mode:exclusion">
<rect x="337" y="194.333" width="212" height="53.3333" rx="6.66667" fill="white" fill-opacity="0.35"/>
</g>
<path d="M402.104 225.521V228.333H394.021V225.521H402.104ZM395.323 213.167V228.333H391.667V213.167H395.323ZM401.062 219.187V221.906H394.021V219.187H401.062ZM402.135 213.167V215.99H394.021V213.167H402.135ZM407.146 212.333V228.333H403.625V212.333H407.146ZM414.771 228.542C413.854 228.542 413.035 228.399 412.312 228.115C411.59 227.823 410.979 227.424 410.479 226.917C409.986 226.41 409.608 225.826 409.344 225.167C409.087 224.507 408.958 223.809 408.958 223.073V222.677C408.958 221.851 409.073 221.087 409.302 220.385C409.531 219.677 409.872 219.059 410.323 218.531C410.774 218.003 411.34 217.594 412.021 217.302C412.701 217.003 413.493 216.854 414.396 216.854C415.194 216.854 415.91 216.983 416.542 217.24C417.174 217.497 417.708 217.865 418.146 218.344C418.59 218.823 418.927 219.403 419.156 220.083C419.392 220.764 419.51 221.528 419.51 222.375V223.802H410.302V221.604H416.083V221.333C416.09 220.958 416.024 220.639 415.885 220.375C415.753 220.111 415.559 219.91 415.302 219.771C415.045 219.632 414.733 219.562 414.365 219.562C413.983 219.562 413.667 219.646 413.417 219.812C413.174 219.979 412.983 220.208 412.844 220.5C412.712 220.785 412.618 221.115 412.562 221.49C412.507 221.865 412.479 222.26 412.479 222.677V223.073C412.479 223.49 412.535 223.868 412.646 224.208C412.764 224.549 412.931 224.84 413.146 225.083C413.368 225.319 413.632 225.503 413.937 225.635C414.25 225.767 414.604 225.833 415 225.833C415.479 225.833 415.951 225.743 416.417 225.562C416.882 225.382 417.281 225.083 417.615 224.667L419.208 226.562C418.979 226.889 418.653 227.205 418.229 227.51C417.812 227.816 417.312 228.066 416.729 228.26C416.146 228.448 415.493 228.542 414.771 228.542ZM425.698 225.833C426.024 225.833 426.302 225.774 426.531 225.656C426.767 225.531 426.944 225.358 427.062 225.135C427.187 224.906 427.247 224.632 427.24 224.312H430.542C430.549 225.16 430.34 225.903 429.917 226.542C429.5 227.174 428.931 227.667 428.208 228.021C427.493 228.368 426.684 228.542 425.781 228.542C424.899 228.542 424.128 228.399 423.469 228.115C422.809 227.823 422.257 227.42 421.812 226.906C421.375 226.385 421.045 225.778 420.823 225.083C420.608 224.389 420.5 223.635 420.5 222.823V222.583C420.5 221.771 420.608 221.017 420.823 220.323C421.045 219.622 421.375 219.014 421.812 218.5C422.257 217.979 422.806 217.576 423.458 217.292C424.118 217 424.885 216.854 425.76 216.854C426.698 216.854 427.524 217.031 428.24 217.385C428.962 217.74 429.528 218.253 429.937 218.927C430.347 219.601 430.549 220.417 430.542 221.375H427.24C427.247 221.035 427.194 220.729 427.083 220.458C426.972 220.187 426.799 219.972 426.562 219.812C426.333 219.646 426.038 219.562 425.677 219.562C425.316 219.562 425.024 219.642 424.802 219.802C424.58 219.962 424.41 220.184 424.292 220.469C424.181 220.747 424.104 221.066 424.062 221.427C424.028 221.788 424.01 222.174 424.01 222.583V222.823C424.01 223.24 424.028 223.632 424.062 224C424.104 224.361 424.184 224.681 424.302 224.958C424.42 225.229 424.59 225.444 424.812 225.604C425.035 225.757 425.33 225.833 425.698 225.833ZM437.979 217.062V219.5H431.187V217.062H437.979ZM432.615 214.26H436.125V224.656C436.125 224.955 436.16 225.187 436.229 225.354C436.299 225.514 436.417 225.628 436.583 225.698C436.757 225.76 436.986 225.792 437.271 225.792C437.472 225.792 437.639 225.788 437.771 225.781C437.903 225.767 438.028 225.75 438.146 225.729V228.24C437.847 228.337 437.535 228.41 437.208 228.458C436.882 228.514 436.535 228.542 436.167 228.542C435.417 228.542 434.774 228.424 434.24 228.187C433.712 227.951 433.309 227.58 433.031 227.073C432.753 226.566 432.615 225.906 432.615 225.094V214.26ZM442.917 219.854V228.333H439.406V217.062H442.687L442.917 219.854ZM446.25 216.979L446.187 220.24C446.049 220.226 445.861 220.208 445.625 220.187C445.389 220.167 445.191 220.156 445.031 220.156C444.622 220.156 444.267 220.205 443.969 220.302C443.677 220.392 443.434 220.531 443.24 220.719C443.052 220.899 442.913 221.128 442.823 221.406C442.74 221.684 442.701 222.007 442.708 222.375L442.073 221.958C442.073 221.201 442.146 220.514 442.292 219.896C442.444 219.271 442.66 218.733 442.937 218.281C443.215 217.823 443.552 217.472 443.948 217.229C444.344 216.979 444.788 216.854 445.281 216.854C445.455 216.854 445.625 216.865 445.792 216.885C445.965 216.906 446.118 216.937 446.25 216.979ZM446.646 222.812V222.594C446.646 221.767 446.764 221.007 447 220.312C447.236 219.611 447.583 219.003 448.042 218.49C448.5 217.976 449.066 217.576 449.74 217.292C450.413 217 451.191 216.854 452.073 216.854C452.962 216.854 453.743 217 454.417 217.292C455.097 217.576 455.667 217.976 456.125 218.49C456.583 219.003 456.931 219.611 457.167 220.312C457.403 221.007 457.521 221.767 457.521 222.594V222.812C457.521 223.632 457.403 224.392 457.167 225.094C456.931 225.788 456.583 226.396 456.125 226.917C455.667 227.431 455.101 227.83 454.427 228.115C453.753 228.399 452.976 228.542 452.094 228.542C451.212 228.542 450.431 228.399 449.75 228.115C449.069 227.83 448.5 227.431 448.042 226.917C447.583 226.396 447.236 225.788 447 225.094C446.764 224.392 446.646 223.632 446.646 222.812ZM450.156 222.594V222.812C450.156 223.236 450.188 223.632 450.25 224C450.313 224.368 450.417 224.691 450.563 224.969C450.708 225.24 450.906 225.451 451.156 225.604C451.406 225.757 451.719 225.833 452.094 225.833C452.462 225.833 452.767 225.757 453.01 225.604C453.26 225.451 453.458 225.24 453.604 224.969C453.75 224.691 453.854 224.368 453.917 224C453.979 223.632 454.01 223.236 454.01 222.812V222.594C454.01 222.184 453.979 221.799 453.917 221.437C453.854 221.069 453.75 220.747 453.604 220.469C453.458 220.184 453.26 219.962 453.01 219.802C452.76 219.642 452.448 219.562 452.073 219.562C451.705 219.562 451.396 219.642 451.146 219.802C450.903 219.962 450.708 220.184 450.563 220.469C450.417 220.747 450.313 221.069 450.25 221.437C450.188 221.799 450.156 222.184 450.156 222.594ZM462.531 219.469V228.333H459.021V217.062H462.313L462.531 219.469ZM462.115 222.312L461.292 222.333C461.292 221.472 461.396 220.705 461.604 220.031C461.813 219.351 462.108 218.774 462.49 218.302C462.872 217.83 463.326 217.472 463.854 217.229C464.389 216.979 464.983 216.854 465.635 216.854C466.156 216.854 466.632 216.931 467.063 217.083C467.5 217.236 467.875 217.483 468.188 217.823C468.507 218.163 468.75 218.615 468.917 219.177C469.09 219.733 469.177 220.42 469.177 221.24V228.333H465.646V221.229C465.646 220.778 465.583 220.434 465.458 220.198C465.333 219.955 465.153 219.788 464.917 219.698C464.681 219.608 464.392 219.562 464.052 219.562C463.691 219.562 463.385 219.632 463.135 219.771C462.885 219.91 462.684 220.104 462.531 220.354C462.385 220.597 462.278 220.885 462.208 221.219C462.146 221.552 462.115 221.917 462.115 222.312ZM477.323 223.573V213.167H480.969V223.573C480.969 224.587 480.736 225.465 480.271 226.208C479.812 226.951 479.187 227.528 478.396 227.937C477.611 228.34 476.729 228.542 475.75 228.542C474.736 228.542 473.833 228.372 473.042 228.031C472.257 227.691 471.639 227.167 471.187 226.458C470.743 225.75 470.521 224.847 470.521 223.75H474.187C474.187 224.264 474.247 224.667 474.365 224.958C474.483 225.243 474.656 225.444 474.885 225.562C475.122 225.674 475.41 225.729 475.75 225.729C476.083 225.729 476.365 225.646 476.594 225.479C476.83 225.306 477.01 225.059 477.135 224.74C477.26 224.413 477.323 224.024 477.323 223.573ZM491.104 224.302C491.104 224.066 491.069 223.854 491 223.667C490.931 223.472 490.802 223.292 490.615 223.125C490.427 222.958 490.156 222.792 489.802 222.625C489.455 222.451 488.997 222.271 488.427 222.083C487.76 221.861 487.118 221.611 486.5 221.333C485.882 221.049 485.33 220.719 484.844 220.344C484.358 219.962 483.972 219.517 483.687 219.01C483.403 218.497 483.26 217.899 483.26 217.219C483.26 216.566 483.406 215.979 483.698 215.458C483.99 214.931 484.396 214.483 484.917 214.115C485.444 213.74 486.062 213.455 486.771 213.26C487.479 213.059 488.253 212.958 489.094 212.958C490.205 212.958 491.184 213.153 492.031 213.542C492.885 213.924 493.552 214.469 494.031 215.177C494.517 215.878 494.76 216.708 494.76 217.667H491.125C491.125 217.285 491.045 216.948 490.885 216.656C490.733 216.365 490.5 216.135 490.187 215.969C489.875 215.802 489.483 215.719 489.01 215.719C488.552 215.719 488.167 215.788 487.854 215.927C487.542 216.066 487.306 216.253 487.146 216.49C486.986 216.719 486.906 216.972 486.906 217.25C486.906 217.479 486.969 217.687 487.094 217.875C487.226 218.056 487.41 218.226 487.646 218.385C487.889 218.545 488.181 218.698 488.521 218.844C488.868 218.99 489.257 219.132 489.687 219.271C490.493 219.528 491.208 219.816 491.833 220.135C492.465 220.448 492.997 220.806 493.427 221.208C493.865 221.604 494.194 222.056 494.417 222.562C494.646 223.069 494.76 223.642 494.76 224.281C494.76 224.962 494.628 225.566 494.365 226.094C494.101 226.622 493.722 227.069 493.229 227.437C492.736 227.799 492.146 228.073 491.458 228.26C490.771 228.448 490.003 228.542 489.156 228.542C488.378 228.542 487.611 228.444 486.854 228.25C486.104 228.049 485.424 227.743 484.812 227.333C484.201 226.917 483.712 226.385 483.344 225.74C482.983 225.087 482.802 224.312 482.802 223.417H486.469C486.469 223.861 486.528 224.236 486.646 224.542C486.764 224.847 486.937 225.094 487.167 225.281C487.396 225.462 487.677 225.594 488.01 225.677C488.344 225.753 488.726 225.792 489.156 225.792C489.622 225.792 489.997 225.726 490.281 225.594C490.566 225.455 490.774 225.274 490.906 225.052C491.038 224.823 491.104 224.573 491.104 224.302Z" fill="white"/>
<g style="mix-blend-mode:exclusion">
<rect x="569" y="194.333" width="212" height="53.3333" rx="6.66667" fill="white" fill-opacity="0.35"/>
</g>
<path d="M592.76 213.167V228.333H589.115V213.167H592.76ZM594.729 222.812V222.594C594.729 221.767 594.847 221.007 595.083 220.312C595.319 219.611 595.667 219.003 596.125 218.49C596.583 217.976 597.149 217.576 597.823 217.292C598.497 217 599.274 216.854 600.156 216.854C601.045 216.854 601.826 217 602.5 217.292C603.181 217.576 603.75 217.976 604.208 218.49C604.667 219.003 605.014 219.611 605.25 220.312C605.486 221.007 605.604 221.767 605.604 222.594V222.812C605.604 223.632 605.486 224.392 605.25 225.094C605.014 225.788 604.667 226.396 604.208 226.917C603.75 227.431 603.184 227.83 602.51 228.115C601.837 228.399 601.059 228.542 600.177 228.542C599.295 228.542 598.514 228.399 597.833 228.115C597.153 227.83 596.583 227.431 596.125 226.917C595.667 226.396 595.319 225.788 595.083 225.094C594.847 224.392 594.729 223.632 594.729 222.812ZM598.24 222.594V222.812C598.24 223.236 598.271 223.632 598.333 224C598.396 224.368 598.5 224.691 598.646 224.969C598.792 225.24 598.99 225.451 599.24 225.604C599.49 225.757 599.802 225.833 600.177 225.833C600.545 225.833 600.851 225.757 601.094 225.604C601.344 225.451 601.542 225.24 601.688 224.969C601.833 224.691 601.938 224.368 602 224C602.063 223.632 602.094 223.236 602.094 222.812V222.594C602.094 222.184 602.063 221.799 602 221.437C601.938 221.069 601.833 220.747 601.688 220.469C601.542 220.184 601.344 219.962 601.094 219.802C600.844 219.642 600.531 219.562 600.156 219.562C599.788 219.562 599.479 219.642 599.229 219.802C598.986 219.962 598.792 220.184 598.646 220.469C598.5 220.747 598.396 221.069 598.333 221.437C598.271 221.799 598.24 222.184 598.24 222.594ZM610.615 219.469V228.333H607.104V217.062H610.396L610.615 219.469ZM610.198 222.312L609.375 222.333C609.375 221.472 609.479 220.705 609.688 220.031C609.896 219.351 610.191 218.774 610.573 218.302C610.955 217.83 611.41 217.472 611.938 217.229C612.472 216.979 613.066 216.854 613.719 216.854C614.24 216.854 614.715 216.931 615.146 217.083C615.583 217.236 615.958 217.483 616.271 217.823C616.59 218.163 616.833 218.615 617 219.177C617.174 219.733 617.26 220.42 617.26 221.24V228.333H613.729V221.229C613.729 220.778 613.667 220.434 613.542 220.198C613.417 219.955 613.236 219.788 613 219.698C612.764 219.608 612.476 219.562 612.135 219.562C611.774 219.562 611.469 219.632 611.219 219.771C610.969 219.91 610.767 220.104 610.615 220.354C610.469 220.597 610.361 220.885 610.292 221.219C610.229 221.552 610.198 221.917 610.198 222.312ZM622.917 217.062V228.333H619.396V217.062H622.917ZM619.188 214.156C619.188 213.656 619.368 213.247 619.729 212.927C620.09 212.608 620.559 212.448 621.135 212.448C621.712 212.448 622.181 212.608 622.542 212.927C622.903 213.247 623.083 213.656 623.083 214.156C623.083 214.656 622.903 215.066 622.542 215.385C622.181 215.705 621.712 215.865 621.135 215.865C620.559 215.865 620.09 215.705 619.729 215.385C619.368 215.066 619.188 214.656 619.188 214.156ZM629.844 225.833C630.17 225.833 630.448 225.774 630.677 225.656C630.913 225.531 631.09 225.358 631.208 225.135C631.333 224.906 631.392 224.632 631.385 224.312H634.688C634.694 225.16 634.486 225.903 634.063 226.542C633.646 227.174 633.076 227.667 632.354 228.021C631.639 228.368 630.83 228.542 629.927 228.542C629.045 228.542 628.274 228.399 627.615 228.115C626.955 227.823 626.403 227.42 625.958 226.906C625.521 226.385 625.191 225.778 624.969 225.083C624.753 224.389 624.646 223.635 624.646 222.823V222.583C624.646 221.771 624.753 221.017 624.969 220.323C625.191 219.622 625.521 219.014 625.958 218.5C626.403 217.979 626.951 217.576 627.604 217.292C628.264 217 629.031 216.854 629.906 216.854C630.844 216.854 631.67 217.031 632.385 217.385C633.108 217.74 633.674 218.253 634.083 218.927C634.493 219.601 634.694 220.417 634.688 221.375H631.385C631.392 221.035 631.34 220.729 631.229 220.458C631.118 220.187 630.944 219.972 630.708 219.812C630.479 219.646 630.184 219.562 629.823 219.562C629.462 219.562 629.17 219.642 628.948 219.802C628.726 219.962 628.556 220.184 628.438 220.469C628.326 220.747 628.25 221.066 628.208 221.427C628.174 221.788 628.156 222.174 628.156 222.583V222.823C628.156 223.24 628.174 223.632 628.208 224C628.25 224.361 628.33 224.681 628.448 224.958C628.566 225.229 628.736 225.444 628.958 225.604C629.181 225.757 629.476 225.833 629.844 225.833ZM644.927 224.979L647.01 217.062H649.208L648.427 221.031L646.365 228.333H644.604L644.927 224.979ZM644.104 217.062L645.396 224.917L645.542 228.333H643.406L640.74 217.062H644.104ZM651.063 224.75L652.365 217.062H655.729L653.083 228.333H650.948L651.063 224.75ZM649.458 217.062L651.563 224.958L651.885 228.333H650.104L648.083 221.052L647.333 217.062H649.458ZM660.708 217.062V228.333H657.187V217.062H660.708ZM656.979 214.156C656.979 213.656 657.16 213.247 657.521 212.927C657.882 212.608 658.351 212.448 658.927 212.448C659.503 212.448 659.972 212.608 660.333 212.927C660.694 213.247 660.875 213.656 660.875 214.156C660.875 214.656 660.694 215.066 660.333 215.385C659.972 215.705 659.503 215.865 658.927 215.865C658.351 215.865 657.882 215.705 657.521 215.385C657.16 215.066 656.979 214.656 656.979 214.156ZM668.812 217.062V219.5H662.021V217.062H668.812ZM663.448 214.26H666.958V224.656C666.958 224.955 666.993 225.187 667.062 225.354C667.132 225.514 667.25 225.628 667.417 225.698C667.59 225.76 667.819 225.792 668.104 225.792C668.306 225.792 668.472 225.788 668.604 225.781C668.736 225.767 668.861 225.75 668.979 225.729V228.24C668.681 228.337 668.368 228.41 668.042 228.458C667.715 228.514 667.368 228.542 667 228.542C666.25 228.542 665.608 228.424 665.073 228.187C664.545 227.951 664.142 227.58 663.865 227.073C663.587 226.566 663.448 225.906 663.448 225.094V214.26ZM673.646 212.333V228.333H670.135V212.333H673.646ZM673.229 222.312L672.406 222.333C672.406 221.542 672.503 220.812 672.698 220.146C672.892 219.479 673.17 218.899 673.531 218.406C673.892 217.913 674.326 217.531 674.833 217.26C675.34 216.99 675.903 216.854 676.521 216.854C677.076 216.854 677.583 216.934 678.042 217.094C678.507 217.253 678.906 217.51 679.24 217.865C679.58 218.219 679.84 218.681 680.021 219.25C680.208 219.819 680.302 220.514 680.302 221.333V228.333H676.771V221.312C676.771 220.854 676.705 220.5 676.573 220.25C676.448 219.993 676.267 219.816 676.031 219.719C675.795 219.615 675.507 219.562 675.167 219.562C674.757 219.562 674.424 219.632 674.167 219.771C673.91 219.91 673.712 220.104 673.573 220.354C673.441 220.597 673.351 220.885 673.302 221.219C673.253 221.552 673.229 221.917 673.229 222.312ZM694.156 216.354L690.458 228.333H686.531L692.104 213.167H694.594L694.156 216.354ZM697.219 228.333L693.51 216.354L693.031 213.167H695.552L701.156 228.333H697.219ZM697.073 222.677V225.5H689.292V222.677H697.073ZM705.052 219.469V228.333H701.542V217.062H704.833L705.052 219.469ZM704.635 222.312L703.813 222.333C703.813 221.472 703.917 220.705 704.125 220.031C704.333 219.351 704.628 218.774 705.01 218.302C705.392 217.83 705.847 217.472 706.375 217.229C706.91 216.979 707.503 216.854 708.156 216.854C708.677 216.854 709.153 216.931 709.583 217.083C710.021 217.236 710.396 217.483 710.708 217.823C711.028 218.163 711.271 218.615 711.438 219.177C711.611 219.733 711.698 220.42 711.698 221.24V228.333H708.167V221.229C708.167 220.778 708.104 220.434 707.979 220.198C707.854 219.955 707.674 219.788 707.438 219.698C707.201 219.608 706.913 219.562 706.573 219.562C706.212 219.562 705.906 219.632 705.656 219.771C705.406 219.91 705.205 220.104 705.052 220.354C704.906 220.597 704.799 220.885 704.729 221.219C704.667 221.552 704.635 221.917 704.635 222.312ZM720.729 217.062H723.917V227.896C723.917 228.937 723.677 229.819 723.198 230.542C722.719 231.271 722.049 231.823 721.188 232.198C720.333 232.58 719.333 232.771 718.188 232.771C717.681 232.771 717.163 232.705 716.635 232.573C716.108 232.448 715.615 232.26 715.156 232.01C714.698 231.76 714.313 231.451 714 231.083L715.469 229.021C715.753 229.34 716.111 229.611 716.542 229.833C716.972 230.062 717.479 230.177 718.063 230.177C718.569 230.177 718.993 230.087 719.333 229.906C719.681 229.726 719.944 229.462 720.125 229.115C720.306 228.774 720.396 228.361 720.396 227.875V219.729L720.729 217.062ZM713.24 222.833V222.615C713.24 221.76 713.344 220.983 713.552 220.281C713.767 219.573 714.073 218.965 714.469 218.458C714.872 217.944 715.358 217.549 715.927 217.271C716.497 216.993 717.139 216.854 717.854 216.854C718.625 216.854 719.257 217.003 719.75 217.302C720.25 217.594 720.649 218.003 720.948 218.531C721.253 219.059 721.49 219.677 721.656 220.385C721.83 221.087 721.976 221.844 722.094 222.656V222.917C721.976 223.681 721.813 224.403 721.604 225.083C721.403 225.757 721.139 226.354 720.813 226.875C720.486 227.396 720.076 227.806 719.583 228.104C719.097 228.396 718.514 228.542 717.833 228.542C717.125 228.542 716.486 228.399 715.917 228.115C715.354 227.83 714.872 227.431 714.469 226.917C714.073 226.403 713.767 225.799 713.552 225.104C713.344 224.41 713.24 223.653 713.24 222.833ZM716.75 222.615V222.833C716.75 223.257 716.788 223.649 716.865 224.01C716.948 224.372 717.073 224.691 717.24 224.969C717.406 225.24 717.611 225.451 717.854 225.604C718.104 225.757 718.396 225.833 718.729 225.833C719.236 225.833 719.646 225.726 719.958 225.51C720.271 225.295 720.497 224.99 720.635 224.594C720.774 224.198 720.833 223.733 720.813 223.198V222.375C720.826 221.917 720.795 221.514 720.719 221.167C720.642 220.812 720.521 220.517 720.354 220.281C720.194 220.045 719.979 219.868 719.708 219.75C719.444 219.625 719.125 219.562 718.75 219.562C718.424 219.562 718.135 219.639 717.885 219.792C717.635 219.944 717.427 220.16 717.26 220.437C717.094 220.708 716.965 221.031 716.875 221.406C716.792 221.774 716.75 222.177 716.75 222.615ZM732.521 225.594V217.062H736.042V228.333H732.75L732.521 225.594ZM732.854 223.302L733.771 223.281C733.771 224.038 733.681 224.74 733.5 225.385C733.319 226.024 733.052 226.58 732.698 227.052C732.351 227.524 731.92 227.892 731.406 228.156C730.899 228.413 730.313 228.542 729.646 228.542C729.09 228.542 728.58 228.465 728.115 228.312C727.656 228.153 727.26 227.906 726.927 227.573C726.594 227.233 726.333 226.799 726.146 226.271C725.965 225.736 725.875 225.097 725.875 224.354V217.062H729.385V224.375C729.385 224.625 729.417 224.84 729.479 225.021C729.542 225.201 729.632 225.354 729.75 225.479C729.868 225.597 730.014 225.687 730.188 225.75C730.368 225.806 730.573 225.833 730.802 225.833C731.33 225.833 731.743 225.722 732.042 225.5C732.34 225.278 732.549 224.976 732.667 224.594C732.792 224.212 732.854 223.781 732.854 223.302ZM741.688 212.333V228.333H738.167V212.333H741.688ZM749.708 225.5V220.854C749.708 220.535 749.663 220.26 749.573 220.031C749.483 219.802 749.34 219.625 749.146 219.5C748.951 219.368 748.691 219.302 748.365 219.302C748.101 219.302 747.875 219.347 747.688 219.437C747.5 219.528 747.358 219.663 747.26 219.844C747.163 220.024 747.115 220.253 747.115 220.531H743.604C743.604 220.01 743.719 219.528 743.948 219.083C744.184 218.632 744.517 218.24 744.948 217.906C745.385 217.573 745.906 217.316 746.51 217.135C747.122 216.948 747.802 216.854 748.552 216.854C749.448 216.854 750.247 217.003 750.948 217.302C751.656 217.601 752.215 218.049 752.625 218.646C753.035 219.236 753.24 219.979 753.24 220.875V225.49C753.24 226.226 753.281 226.785 753.365 227.167C753.448 227.542 753.566 227.872 753.719 228.156V228.333H750.198C750.031 227.986 749.906 227.562 749.823 227.062C749.747 226.556 749.708 226.035 749.708 225.5ZM750.135 221.448L750.156 223.323H748.604C748.278 223.323 748 223.368 747.771 223.458C747.549 223.549 747.368 223.674 747.229 223.833C747.097 223.986 747 224.16 746.938 224.354C746.882 224.549 746.854 224.753 746.854 224.969C746.854 225.177 746.903 225.365 747 225.531C747.104 225.691 747.243 225.816 747.417 225.906C747.59 225.997 747.785 226.042 748 226.042C748.389 226.042 748.719 225.969 748.99 225.823C749.267 225.67 749.479 225.486 749.625 225.271C749.771 225.056 749.844 224.854 749.844 224.667L750.615 226.104C750.476 226.382 750.316 226.663 750.135 226.948C749.962 227.233 749.743 227.497 749.479 227.74C749.222 227.976 748.906 228.17 748.531 228.323C748.156 228.469 747.701 228.542 747.167 228.542C746.472 228.542 745.833 228.399 745.25 228.115C744.674 227.83 744.212 227.434 743.865 226.927C743.517 226.413 743.344 225.823 743.344 225.156C743.344 224.573 743.448 224.052 743.656 223.594C743.872 223.135 744.194 222.747 744.625 222.427C745.056 222.108 745.604 221.865 746.271 221.698C746.938 221.531 747.722 221.448 748.625 221.448H750.135ZM758.729 219.854V228.333H755.219V217.062H758.5L758.729 219.854ZM762.063 216.979L762 220.24C761.861 220.226 761.674 220.208 761.438 220.187C761.201 220.167 761.003 220.156 760.844 220.156C760.434 220.156 760.08 220.205 759.781 220.302C759.49 220.392 759.247 220.531 759.052 220.719C758.865 220.899 758.726 221.128 758.635 221.406C758.552 221.684 758.514 222.007 758.521 222.375L757.885 221.958C757.885 221.201 757.958 220.514 758.104 219.896C758.257 219.271 758.472 218.733 758.75 218.281C759.028 217.823 759.365 217.472 759.76 217.229C760.156 216.979 760.601 216.854 761.094 216.854C761.267 216.854 761.438 216.865 761.604 216.885C761.778 216.906 761.931 216.937 762.063 216.979Z" fill="white"/>
<g style="mix-blend-mode:exclusion">
<rect x="801" y="194.333" width="212" height="53.3333" rx="6.66667" fill="white" fill-opacity="0.35"/>
</g>
<path d="M883.073 225.521V228.333H875.406V225.521H883.073ZM876.708 213.167V228.333H873.052V213.167H876.708ZM890.302 225.5V220.854C890.302 220.535 890.257 220.26 890.167 220.031C890.076 219.802 889.934 219.625 889.74 219.5C889.545 219.368 889.285 219.302 888.958 219.302C888.694 219.302 888.469 219.347 888.281 219.437C888.094 219.528 887.951 219.663 887.854 219.844C887.757 220.024 887.708 220.253 887.708 220.531H884.198C884.198 220.01 884.312 219.528 884.542 219.083C884.778 218.632 885.111 218.24 885.542 217.906C885.979 217.573 886.5 217.316 887.104 217.135C887.715 216.948 888.396 216.854 889.146 216.854C890.042 216.854 890.84 217.003 891.542 217.302C892.25 217.601 892.809 218.049 893.219 218.646C893.628 219.236 893.833 219.979 893.833 220.875V225.49C893.833 226.226 893.875 226.785 893.958 227.167C894.042 227.542 894.16 227.872 894.312 228.156V228.333H890.792C890.625 227.986 890.5 227.562 890.417 227.062C890.34 226.556 890.302 226.035 890.302 225.5ZM890.729 221.448L890.75 223.323H889.198C888.872 223.323 888.594 223.368 888.365 223.458C888.142 223.549 887.962 223.674 887.823 223.833C887.691 223.986 887.594 224.16 887.531 224.354C887.476 224.549 887.448 224.753 887.448 224.969C887.448 225.177 887.497 225.365 887.594 225.531C887.698 225.691 887.837 225.816 888.01 225.906C888.184 225.997 888.378 226.042 888.594 226.042C888.983 226.042 889.312 225.969 889.583 225.823C889.861 225.67 890.073 225.486 890.219 225.271C890.365 225.056 890.437 224.854 890.437 224.667L891.208 226.104C891.069 226.382 890.91 226.663 890.729 226.948C890.556 227.233 890.337 227.497 890.073 227.74C889.816 227.976 889.5 228.17 889.125 228.323C888.75 228.469 888.295 228.542 887.76 228.542C887.066 228.542 886.427 228.399 885.844 228.115C885.267 227.83 884.806 227.434 884.458 226.927C884.111 226.413 883.937 225.823 883.937 225.156C883.937 224.573 884.042 224.052 884.25 223.594C884.465 223.135 884.788 222.747 885.219 222.427C885.649 222.108 886.198 221.865 886.865 221.698C887.531 221.531 888.316 221.448 889.219 221.448H890.729ZM899.323 219.854V228.333H895.812V217.062H899.094L899.323 219.854ZM902.656 216.979L902.594 220.24C902.455 220.226 902.267 220.208 902.031 220.187C901.795 220.167 901.597 220.156 901.437 220.156C901.028 220.156 900.674 220.205 900.375 220.302C900.083 220.392 899.84 220.531 899.646 220.719C899.458 220.899 899.319 221.128 899.229 221.406C899.146 221.684 899.108 222.007 899.115 222.375L898.479 221.958C898.479 221.201 898.552 220.514 898.698 219.896C898.851 219.271 899.066 218.733 899.344 218.281C899.622 217.823 899.958 217.472 900.354 217.229C900.75 216.979 901.194 216.854 901.687 216.854C901.861 216.854 902.031 216.865 902.198 216.885C902.372 216.906 902.524 216.937 902.656 216.979ZM909.406 225.5V220.854C909.406 220.535 909.361 220.26 909.271 220.031C909.181 219.802 909.038 219.625 908.844 219.5C908.649 219.368 908.389 219.302 908.063 219.302C907.799 219.302 907.573 219.347 907.385 219.437C907.198 219.528 907.056 219.663 906.958 219.844C906.861 220.024 906.813 220.253 906.813 220.531H903.302C903.302 220.01 903.417 219.528 903.646 219.083C903.882 218.632 904.215 218.24 904.646 217.906C905.083 217.573 905.604 217.316 906.208 217.135C906.819 216.948 907.5 216.854 908.25 216.854C909.146 216.854 909.944 217.003 910.646 217.302C911.354 217.601 911.913 218.049 912.323 218.646C912.733 219.236 912.938 219.979 912.938 220.875V225.49C912.938 226.226 912.979 226.785 913.063 227.167C913.146 227.542 913.264 227.872 913.417 228.156V228.333H909.896C909.729 227.986 909.604 227.562 909.521 227.062C909.444 226.556 909.406 226.035 909.406 225.5ZM909.833 221.448L909.854 223.323H908.302C907.976 223.323 907.698 223.368 907.469 223.458C907.247 223.549 907.066 223.674 906.927 223.833C906.795 223.986 906.698 224.16 906.635 224.354C906.58 224.549 906.552 224.753 906.552 224.969C906.552 225.177 906.601 225.365 906.698 225.531C906.802 225.691 906.941 225.816 907.115 225.906C907.288 225.997 907.483 226.042 907.698 226.042C908.087 226.042 908.417 225.969 908.688 225.823C908.965 225.67 909.177 225.486 909.323 225.271C909.469 225.056 909.542 224.854 909.542 224.667L910.313 226.104C910.174 226.382 910.014 226.663 909.833 226.948C909.66 227.233 909.441 227.497 909.177 227.74C908.92 227.976 908.604 228.17 908.229 228.323C907.854 228.469 907.399 228.542 906.865 228.542C906.17 228.542 905.531 228.399 904.948 228.115C904.372 227.83 903.91 227.434 903.563 226.927C903.215 226.413 903.042 225.823 903.042 225.156C903.042 224.573 903.146 224.052 903.354 223.594C903.569 223.135 903.892 222.747 904.323 222.427C904.753 222.108 905.302 221.865 905.969 221.698C906.635 221.531 907.42 221.448 908.323 221.448H909.833ZM918.781 225.927L921 217.062H924.698L921.01 228.333H918.823L918.781 225.927ZM917.469 217.062L919.656 225.927L919.635 228.333H917.437L913.76 217.062H917.469ZM931.052 228.542C930.135 228.542 929.316 228.399 928.594 228.115C927.872 227.823 927.26 227.424 926.76 226.917C926.267 226.41 925.889 225.826 925.625 225.167C925.368 224.507 925.24 223.809 925.24 223.073V222.677C925.24 221.851 925.354 221.087 925.583 220.385C925.812 219.677 926.153 219.059 926.604 218.531C927.056 218.003 927.622 217.594 928.302 217.302C928.983 217.003 929.774 216.854 930.677 216.854C931.476 216.854 932.191 216.983 932.823 217.24C933.455 217.497 933.99 217.865 934.427 218.344C934.872 218.823 935.208 219.403 935.437 220.083C935.674 220.764 935.792 221.528 935.792 222.375V223.802H926.583V221.604H932.365V221.333C932.372 220.958 932.306 220.639 932.167 220.375C932.035 220.111 931.84 219.91 931.583 219.771C931.326 219.632 931.014 219.562 930.646 219.562C930.264 219.562 929.948 219.646 929.698 219.812C929.455 219.979 929.264 220.208 929.125 220.5C928.993 220.785 928.899 221.115 928.844 221.49C928.788 221.865 928.76 222.26 928.76 222.677V223.073C928.76 223.49 928.816 223.868 928.927 224.208C929.045 224.549 929.212 224.84 929.427 225.083C929.649 225.319 929.913 225.503 930.219 225.635C930.531 225.767 930.885 225.833 931.281 225.833C931.76 225.833 932.233 225.743 932.698 225.562C933.163 225.382 933.562 225.083 933.896 224.667L935.49 226.562C935.26 226.889 934.934 227.205 934.51 227.51C934.094 227.816 933.594 228.066 933.01 228.26C932.427 228.448 931.774 228.542 931.052 228.542ZM940.927 212.333V228.333H937.406V212.333H940.927Z" fill="white"/>
<g style="mix-blend-mode:exclusion">
<rect x="1033" y="194.333" width="212" height="53.3333" rx="6.66667" fill="white" fill-opacity="0.35"/>
</g>
<path d="M1107.26 213.167H1110.24L1113.62 223.719L1117.01 213.167H1119.99L1114.83 228.333H1112.42L1107.26 213.167ZM1105.45 213.167H1108.53L1109.1 224.792V228.333H1105.45V213.167ZM1118.72 213.167H1121.81V228.333H1118.15V224.792L1118.72 213.167ZM1127.45 227.01L1130.36 217.062H1134.14L1129.6 230.01C1129.51 230.295 1129.38 230.601 1129.22 230.927C1129.06 231.26 1128.84 231.576 1128.56 231.875C1128.28 232.174 1127.93 232.417 1127.49 232.604C1127.06 232.792 1126.52 232.885 1125.89 232.885C1125.55 232.885 1125.3 232.868 1125.14 232.833C1124.98 232.806 1124.75 232.753 1124.43 232.677V230.167C1124.52 230.167 1124.59 230.167 1124.66 230.167C1124.73 230.167 1124.8 230.167 1124.89 230.167C1125.26 230.167 1125.56 230.128 1125.78 230.052C1126.01 229.976 1126.18 229.865 1126.3 229.719C1126.43 229.573 1126.52 229.396 1126.59 229.187L1127.45 227.01ZM1126.71 217.062L1128.93 224.948L1129.31 228.667H1126.96L1122.95 217.062H1126.71ZM1143.03 224.302C1143.03 224.066 1143 223.854 1142.93 223.667C1142.86 223.472 1142.73 223.292 1142.54 223.125C1142.35 222.958 1142.08 222.792 1141.73 222.625C1141.38 222.451 1140.92 222.271 1140.35 222.083C1139.69 221.861 1139.05 221.611 1138.43 221.333C1137.81 221.049 1137.26 220.719 1136.77 220.344C1136.28 219.962 1135.9 219.517 1135.61 219.01C1135.33 218.497 1135.19 217.899 1135.19 217.219C1135.19 216.566 1135.33 215.979 1135.63 215.458C1135.92 214.931 1136.32 214.483 1136.84 214.115C1137.37 213.74 1137.99 213.455 1138.7 213.26C1139.41 213.059 1140.18 212.958 1141.02 212.958C1142.13 212.958 1143.11 213.153 1143.96 213.542C1144.81 213.924 1145.48 214.469 1145.96 215.177C1146.44 215.878 1146.69 216.708 1146.69 217.667H1143.05C1143.05 217.285 1142.97 216.948 1142.81 216.656C1142.66 216.365 1142.43 216.135 1142.11 215.969C1141.8 215.802 1141.41 215.719 1140.94 215.719C1140.48 215.719 1140.09 215.788 1139.78 215.927C1139.47 216.066 1139.23 216.253 1139.07 216.49C1138.91 216.719 1138.83 216.972 1138.83 217.25C1138.83 217.479 1138.9 217.687 1139.02 217.875C1139.15 218.056 1139.34 218.226 1139.57 218.385C1139.82 218.545 1140.11 218.698 1140.45 218.844C1140.8 218.99 1141.18 219.132 1141.61 219.271C1142.42 219.528 1143.14 219.816 1143.76 220.135C1144.39 220.448 1144.92 220.806 1145.35 221.208C1145.79 221.604 1146.12 222.056 1146.34 222.562C1146.57 223.069 1146.69 223.642 1146.69 224.281C1146.69 224.962 1146.56 225.566 1146.29 226.094C1146.03 226.622 1145.65 227.069 1145.16 227.437C1144.66 227.799 1144.07 228.073 1143.39 228.26C1142.7 228.448 1141.93 228.542 1141.08 228.542C1140.31 228.542 1139.54 228.444 1138.78 228.25C1138.03 228.049 1137.35 227.743 1136.74 227.333C1136.13 226.917 1135.64 226.385 1135.27 225.74C1134.91 225.087 1134.73 224.312 1134.73 223.417H1138.4C1138.4 223.861 1138.45 224.236 1138.57 224.542C1138.69 224.847 1138.86 225.094 1139.09 225.281C1139.32 225.462 1139.6 225.594 1139.94 225.677C1140.27 225.753 1140.65 225.792 1141.08 225.792C1141.55 225.792 1141.92 225.726 1142.21 225.594C1142.49 225.455 1142.7 225.274 1142.83 225.052C1142.97 224.823 1143.03 224.573 1143.03 224.302ZM1157.03 225.833L1161.26 229.187L1158.99 231.104L1154.83 227.75L1157.03 225.833ZM1161.44 220.448V221.062C1161.44 222.222 1161.27 223.264 1160.95 224.187C1160.63 225.104 1160.17 225.889 1159.57 226.542C1158.98 227.187 1158.28 227.684 1157.48 228.031C1156.67 228.372 1155.78 228.542 1154.81 228.542C1153.83 228.542 1152.94 228.372 1152.12 228.031C1151.32 227.684 1150.62 227.187 1150.02 226.542C1149.43 225.889 1148.97 225.104 1148.65 224.187C1148.33 223.264 1148.17 222.222 1148.17 221.062V220.448C1148.17 219.288 1148.33 218.247 1148.65 217.323C1148.97 216.399 1149.43 215.615 1150.01 214.969C1150.6 214.316 1151.3 213.819 1152.1 213.479C1152.92 213.132 1153.81 212.958 1154.79 212.958C1155.76 212.958 1156.65 213.132 1157.46 213.479C1158.27 213.819 1158.97 214.316 1159.56 214.969C1160.16 215.615 1160.62 216.399 1160.95 217.323C1161.27 218.247 1161.44 219.288 1161.44 220.448ZM1157.72 221.062V220.427C1157.72 219.677 1157.65 219.017 1157.52 218.448C1157.4 217.872 1157.21 217.389 1156.96 217C1156.71 216.611 1156.4 216.319 1156.03 216.125C1155.67 215.924 1155.26 215.823 1154.79 215.823C1154.31 215.823 1153.88 215.924 1153.52 216.125C1153.16 216.319 1152.86 216.611 1152.61 217C1152.37 217.389 1152.19 217.872 1152.06 218.448C1151.94 219.017 1151.89 219.677 1151.89 220.427V221.062C1151.89 221.806 1151.94 222.465 1152.06 223.042C1152.19 223.611 1152.37 224.094 1152.61 224.49C1152.86 224.885 1153.17 225.184 1153.53 225.385C1153.9 225.587 1154.33 225.687 1154.81 225.687C1155.28 225.687 1155.69 225.587 1156.05 225.385C1156.41 225.184 1156.72 224.885 1156.96 224.49C1157.21 224.094 1157.4 223.611 1157.52 223.042C1157.65 222.465 1157.72 221.806 1157.72 221.062ZM1173.32 225.521V228.333H1165.66V225.521H1173.32ZM1166.96 213.167V228.333H1163.3V213.167H1166.96Z" fill="white"/>
</svg>
