<svg width="1363" height="167" viewBox="0 0 1363 167" fill="none" xmlns="http://www.w3.org/2000/svg">
<g style="mix-blend-mode:exclusion">
<rect width="1363" height="167" rx="15" fill="white" fill-opacity="0.05"/>
</g>
<g style="mix-blend-mode:exclusion">
<path d="M0 15C0 6.71573 6.71573 0 15 0H37V167H15C6.71573 167 0 160.284 0 152V15Z" fill="white" fill-opacity="0.25"/>
</g>
<g style="mix-blend-mode:exclusion">
<path d="M100.906 50.9219L93.3945 48.2383V45.0859L103.602 49.375V51.6367L100.906 50.9219ZM93.3945 53.1719L100.918 50.4297L103.602 49.7852V52.0352L93.3945 56.3242V53.1719ZM123.348 55.2578V58H114.266V55.2578H123.348ZM115.414 40.9375V58H111.898V40.9375H115.414ZM122.164 47.8867V50.5586H114.266V47.8867H122.164ZM123.336 40.9375V43.6914H114.266V40.9375H123.336ZM127.906 45.3203L130.004 49.1758L132.16 45.3203H135.758L132.172 51.5195L135.922 58H132.312L130.027 53.9219L127.742 58H124.133L127.883 51.5195L124.297 45.3203H127.906ZM140.773 47.7578V62.875H137.398V45.3203H140.527L140.773 47.7578ZM148.801 51.5195V51.7656C148.801 52.6875 148.691 53.543 148.473 54.332C148.262 55.1211 147.949 55.8086 147.535 56.3945C147.121 56.9727 146.605 57.4258 145.988 57.7539C145.379 58.0742 144.676 58.2344 143.879 58.2344C143.105 58.2344 142.434 58.0781 141.863 57.7656C141.293 57.4531 140.812 57.0156 140.422 56.4531C140.039 55.8828 139.73 55.2227 139.496 54.4727C139.262 53.7227 139.082 52.918 138.957 52.0586V51.4141C139.082 50.4922 139.262 49.6484 139.496 48.8828C139.73 48.1094 140.039 47.4414 140.422 46.8789C140.812 46.3086 141.289 45.8672 141.852 45.5547C142.422 45.2422 143.09 45.0859 143.855 45.0859C144.66 45.0859 145.367 45.2383 145.977 45.543C146.594 45.8477 147.109 46.2852 147.523 46.8555C147.945 47.4258 148.262 48.1055 148.473 48.8945C148.691 49.6836 148.801 50.5586 148.801 51.5195ZM145.414 51.7656V51.5195C145.414 50.9805 145.367 50.4844 145.273 50.0312C145.188 49.5703 145.047 49.168 144.852 48.8242C144.664 48.4805 144.414 48.2148 144.102 48.0273C143.797 47.832 143.426 47.7344 142.988 47.7344C142.527 47.7344 142.133 47.8086 141.805 47.957C141.484 48.1055 141.223 48.3203 141.02 48.6016C140.816 48.8828 140.664 49.2188 140.562 49.6094C140.461 50 140.398 50.4414 140.375 50.9336V52.5625C140.414 53.1406 140.523 53.6602 140.703 54.1211C140.883 54.5742 141.16 54.9336 141.535 55.1992C141.91 55.4648 142.402 55.5977 143.012 55.5977C143.457 55.5977 143.832 55.5 144.137 55.3047C144.441 55.1016 144.688 54.8242 144.875 54.4727C145.07 54.1211 145.207 53.7148 145.285 53.2539C145.371 52.793 145.414 52.2969 145.414 51.7656ZM156.734 58.2344C155.75 58.2344 154.867 58.0781 154.086 57.7656C153.305 57.4453 152.641 57.0039 152.094 56.4414C151.555 55.8789 151.141 55.2266 150.852 54.4844C150.562 53.7344 150.418 52.9375 150.418 52.0938V51.625C150.418 50.6641 150.555 49.7852 150.828 48.9883C151.102 48.1914 151.492 47.5 152 46.9141C152.516 46.3281 153.141 45.8789 153.875 45.5664C154.609 45.2461 155.438 45.0859 156.359 45.0859C157.258 45.0859 158.055 45.2344 158.75 45.5312C159.445 45.8281 160.027 46.25 160.496 46.7969C160.973 47.3438 161.332 48 161.574 48.7656C161.816 49.5234 161.938 50.3672 161.938 51.2969V52.7031H151.859V50.4531H158.621V50.1953C158.621 49.7266 158.535 49.3086 158.363 48.9414C158.199 48.5664 157.949 48.2695 157.613 48.0508C157.277 47.832 156.848 47.7227 156.324 47.7227C155.879 47.7227 155.496 47.8203 155.176 48.0156C154.855 48.2109 154.594 48.4844 154.391 48.8359C154.195 49.1875 154.047 49.6016 153.945 50.0781C153.852 50.5469 153.805 51.0625 153.805 51.625V52.0938C153.805 52.6016 153.875 53.0703 154.016 53.5C154.164 53.9297 154.371 54.3008 154.637 54.6133C154.91 54.9258 155.238 55.168 155.621 55.3398C156.012 55.5117 156.453 55.5977 156.945 55.5977C157.555 55.5977 158.121 55.4805 158.645 55.2461C159.176 55.0039 159.633 54.6406 160.016 54.1562L161.656 55.9375C161.391 56.3203 161.027 56.6875 160.566 57.0391C160.113 57.3906 159.566 57.6797 158.926 57.9062C158.285 58.125 157.555 58.2344 156.734 58.2344ZM167.164 48.0273V58H163.789V45.3203H166.953L167.164 48.0273ZM166.672 51.2148H165.758C165.758 50.2773 165.879 49.4336 166.121 48.6836C166.363 47.9258 166.703 47.2812 167.141 46.75C167.578 46.2109 168.098 45.8008 168.699 45.5195C169.309 45.2305 169.988 45.0859 170.738 45.0859C171.332 45.0859 171.875 45.1719 172.367 45.3438C172.859 45.5156 173.281 45.7891 173.633 46.1641C173.992 46.5391 174.266 47.0352 174.453 47.6523C174.648 48.2695 174.746 49.0234 174.746 49.9141V58H171.348V49.9023C171.348 49.3398 171.27 48.9023 171.113 48.5898C170.957 48.2773 170.727 48.0586 170.422 47.9336C170.125 47.8008 169.758 47.7344 169.32 47.7344C168.867 47.7344 168.473 47.8242 168.137 48.0039C167.809 48.1836 167.535 48.4336 167.316 48.7539C167.105 49.0664 166.945 49.4336 166.836 49.8555C166.727 50.2773 166.672 50.7305 166.672 51.2148ZM184.168 54.4961C184.168 54.2539 184.098 54.0352 183.957 53.8398C183.816 53.6445 183.555 53.4648 183.172 53.3008C182.797 53.1289 182.254 52.9727 181.543 52.832C180.902 52.6914 180.305 52.5156 179.75 52.3047C179.203 52.0859 178.727 51.8242 178.32 51.5195C177.922 51.2148 177.609 50.8555 177.383 50.4414C177.156 50.0195 177.043 49.5391 177.043 49C177.043 48.4688 177.156 47.9688 177.383 47.5C177.617 47.0312 177.949 46.6172 178.379 46.2578C178.816 45.8906 179.348 45.6055 179.973 45.4023C180.605 45.1914 181.316 45.0859 182.105 45.0859C183.207 45.0859 184.152 45.2617 184.941 45.6133C185.738 45.9648 186.348 46.4492 186.77 47.0664C187.199 47.6758 187.414 48.3711 187.414 49.1523H184.039C184.039 48.8242 183.969 48.5312 183.828 48.2734C183.695 48.0078 183.484 47.8008 183.195 47.6523C182.914 47.4961 182.547 47.418 182.094 47.418C181.719 47.418 181.395 47.4844 181.121 47.6172C180.848 47.7422 180.637 47.9141 180.488 48.1328C180.348 48.3438 180.277 48.5781 180.277 48.8359C180.277 49.0312 180.316 49.207 180.395 49.3633C180.48 49.5117 180.617 49.6484 180.805 49.7734C180.992 49.8984 181.234 50.0156 181.531 50.125C181.836 50.2266 182.211 50.3203 182.656 50.4062C183.57 50.5938 184.387 50.8398 185.105 51.1445C185.824 51.4414 186.395 51.8477 186.816 52.3633C187.238 52.8711 187.449 53.5391 187.449 54.3672C187.449 54.9297 187.324 55.4453 187.074 55.9141C186.824 56.3828 186.465 56.793 185.996 57.1445C185.527 57.4883 184.965 57.7578 184.309 57.9531C183.66 58.1406 182.93 58.2344 182.117 58.2344C180.938 58.2344 179.938 58.0234 179.117 57.6016C178.305 57.1797 177.688 56.6445 177.266 55.9961C176.852 55.3398 176.645 54.668 176.645 53.9805H179.844C179.859 54.4414 179.977 54.8125 180.195 55.0938C180.422 55.375 180.707 55.5781 181.051 55.7031C181.402 55.8281 181.781 55.8906 182.188 55.8906C182.625 55.8906 182.988 55.832 183.277 55.7148C183.566 55.5898 183.785 55.4258 183.934 55.2227C184.09 55.0117 184.168 54.7695 184.168 54.4961ZM195.477 58.2344C194.492 58.2344 193.609 58.0781 192.828 57.7656C192.047 57.4453 191.383 57.0039 190.836 56.4414C190.297 55.8789 189.883 55.2266 189.594 54.4844C189.305 53.7344 189.16 52.9375 189.16 52.0938V51.625C189.16 50.6641 189.297 49.7852 189.57 48.9883C189.844 48.1914 190.234 47.5 190.742 46.9141C191.258 46.3281 191.883 45.8789 192.617 45.5664C193.352 45.2461 194.18 45.0859 195.102 45.0859C196 45.0859 196.797 45.2344 197.492 45.5312C198.188 45.8281 198.77 46.25 199.238 46.7969C199.715 47.3438 200.074 48 200.316 48.7656C200.559 49.5234 200.68 50.3672 200.68 51.2969V52.7031H190.602V50.4531H197.363V50.1953C197.363 49.7266 197.277 49.3086 197.105 48.9414C196.941 48.5664 196.691 48.2695 196.355 48.0508C196.02 47.832 195.59 47.7227 195.066 47.7227C194.621 47.7227 194.238 47.8203 193.918 48.0156C193.598 48.2109 193.336 48.4844 193.133 48.8359C192.938 49.1875 192.789 49.6016 192.688 50.0781C192.594 50.5469 192.547 51.0625 192.547 51.625V52.0938C192.547 52.6016 192.617 53.0703 192.758 53.5C192.906 53.9297 193.113 54.3008 193.379 54.6133C193.652 54.9258 193.98 55.168 194.363 55.3398C194.754 55.5117 195.195 55.5977 195.688 55.5977C196.297 55.5977 196.863 55.4805 197.387 55.2461C197.918 55.0039 198.375 54.6406 198.758 54.1562L200.398 55.9375C200.133 56.3203 199.77 56.6875 199.309 57.0391C198.855 57.3906 198.309 57.6797 197.668 57.9062C197.027 58.125 196.297 58.2344 195.477 58.2344ZM218.68 52.3398H222.184C222.113 53.4883 221.797 54.5078 221.234 55.3984C220.68 56.2891 219.902 56.9844 218.902 57.4844C217.91 57.9844 216.715 58.2344 215.316 58.2344C214.223 58.2344 213.242 58.0469 212.375 57.6719C211.508 57.2891 210.766 56.7422 210.148 56.0312C209.539 55.3203 209.074 54.4609 208.754 53.4531C208.434 52.4453 208.273 51.3164 208.273 50.0664V48.8828C208.273 47.6328 208.438 46.5039 208.766 45.4961C209.102 44.4805 209.578 43.6172 210.195 42.9062C210.82 42.1953 211.566 41.6484 212.434 41.2656C213.301 40.8828 214.27 40.6914 215.34 40.6914C216.762 40.6914 217.961 40.9492 218.938 41.4648C219.922 41.9805 220.684 42.6914 221.223 43.5977C221.77 44.5039 222.098 45.5352 222.207 46.6914H218.691C218.652 46.0039 218.516 45.4219 218.281 44.9453C218.047 44.4609 217.691 44.0977 217.215 43.8555C216.746 43.6055 216.121 43.4805 215.34 43.4805C214.754 43.4805 214.242 43.5898 213.805 43.8086C213.367 44.0273 213 44.3594 212.703 44.8047C212.406 45.25 212.184 45.8125 212.035 46.4922C211.895 47.1641 211.824 47.9531 211.824 48.8594V50.0664C211.824 50.9492 211.891 51.7266 212.023 52.3984C212.156 53.0625 212.359 53.625 212.633 54.0859C212.914 54.5391 213.273 54.8828 213.711 55.1172C214.156 55.3438 214.691 55.457 215.316 55.457C216.051 55.457 216.656 55.3398 217.133 55.1055C217.609 54.8711 217.973 54.5234 218.223 54.0625C218.48 53.6016 218.633 53.0273 218.68 52.3398ZM230.117 58.2344C229.133 58.2344 228.25 58.0781 227.469 57.7656C226.688 57.4453 226.023 57.0039 225.477 56.4414C224.938 55.8789 224.523 55.2266 224.234 54.4844C223.945 53.7344 223.801 52.9375 223.801 52.0938V51.625C223.801 50.6641 223.938 49.7852 224.211 48.9883C224.484 48.1914 224.875 47.5 225.383 46.9141C225.898 46.3281 226.523 45.8789 227.258 45.5664C227.992 45.2461 228.82 45.0859 229.742 45.0859C230.641 45.0859 231.438 45.2344 232.133 45.5312C232.828 45.8281 233.41 46.25 233.879 46.7969C234.355 47.3438 234.715 48 234.957 48.7656C235.199 49.5234 235.32 50.3672 235.32 51.2969V52.7031H225.242V50.4531H232.004V50.1953C232.004 49.7266 231.918 49.3086 231.746 48.9414C231.582 48.5664 231.332 48.2695 230.996 48.0508C230.66 47.832 230.23 47.7227 229.707 47.7227C229.262 47.7227 228.879 47.8203 228.559 48.0156C228.238 48.2109 227.977 48.4844 227.773 48.8359C227.578 49.1875 227.43 49.6016 227.328 50.0781C227.234 50.5469 227.188 51.0625 227.188 51.625V52.0938C227.188 52.6016 227.258 53.0703 227.398 53.5C227.547 53.9297 227.754 54.3008 228.02 54.6133C228.293 54.9258 228.621 55.168 229.004 55.3398C229.395 55.5117 229.836 55.5977 230.328 55.5977C230.938 55.5977 231.504 55.4805 232.027 55.2461C232.559 55.0039 233.016 54.6406 233.398 54.1562L235.039 55.9375C234.773 56.3203 234.41 56.6875 233.949 57.0391C233.496 57.3906 232.949 57.6797 232.309 57.9062C231.668 58.125 230.938 58.2344 230.117 58.2344ZM240.547 48.0273V58H237.172V45.3203H240.336L240.547 48.0273ZM240.055 51.2148H239.141C239.141 50.2773 239.262 49.4336 239.504 48.6836C239.746 47.9258 240.086 47.2812 240.523 46.75C240.961 46.2109 241.48 45.8008 242.082 45.5195C242.691 45.2305 243.371 45.0859 244.121 45.0859C244.715 45.0859 245.258 45.1719 245.75 45.3438C246.242 45.5156 246.664 45.7891 247.016 46.1641C247.375 46.5391 247.648 47.0352 247.836 47.6523C248.031 48.2695 248.129 49.0234 248.129 49.9141V58H244.73V49.9023C244.73 49.3398 244.652 48.9023 244.496 48.5898C244.34 48.2773 244.109 48.0586 243.805 47.9336C243.508 47.8008 243.141 47.7344 242.703 47.7344C242.25 47.7344 241.855 47.8242 241.52 48.0039C241.191 48.1836 240.918 48.4336 240.699 48.7539C240.488 49.0664 240.328 49.4336 240.219 49.8555C240.109 50.2773 240.055 50.7305 240.055 51.2148ZM256.906 45.3203V47.7109H249.523V45.3203H256.906ZM251.352 42.1914H254.727V54.1797C254.727 54.5469 254.773 54.8281 254.867 55.0234C254.969 55.2188 255.117 55.3555 255.312 55.4336C255.508 55.5039 255.754 55.5391 256.051 55.5391C256.262 55.5391 256.449 55.5312 256.613 55.5156C256.785 55.4922 256.93 55.4688 257.047 55.4453L257.059 57.9297C256.77 58.0234 256.457 58.0977 256.121 58.1523C255.785 58.207 255.414 58.2344 255.008 58.2344C254.266 58.2344 253.617 58.1133 253.062 57.8711C252.516 57.6211 252.094 57.2227 251.797 56.6758C251.5 56.1289 251.352 55.4102 251.352 54.5195V42.1914ZM264.664 58.2344C263.68 58.2344 262.797 58.0781 262.016 57.7656C261.234 57.4453 260.57 57.0039 260.023 56.4414C259.484 55.8789 259.07 55.2266 258.781 54.4844C258.492 53.7344 258.348 52.9375 258.348 52.0938V51.625C258.348 50.6641 258.484 49.7852 258.758 48.9883C259.031 48.1914 259.422 47.5 259.93 46.9141C260.445 46.3281 261.07 45.8789 261.805 45.5664C262.539 45.2461 263.367 45.0859 264.289 45.0859C265.188 45.0859 265.984 45.2344 266.68 45.5312C267.375 45.8281 267.957 46.25 268.426 46.7969C268.902 47.3438 269.262 48 269.504 48.7656C269.746 49.5234 269.867 50.3672 269.867 51.2969V52.7031H259.789V50.4531H266.551V50.1953C266.551 49.7266 266.465 49.3086 266.293 48.9414C266.129 48.5664 265.879 48.2695 265.543 48.0508C265.207 47.832 264.777 47.7227 264.254 47.7227C263.809 47.7227 263.426 47.8203 263.105 48.0156C262.785 48.2109 262.523 48.4844 262.32 48.8359C262.125 49.1875 261.977 49.6016 261.875 50.0781C261.781 50.5469 261.734 51.0625 261.734 51.625V52.0938C261.734 52.6016 261.805 53.0703 261.945 53.5C262.094 53.9297 262.301 54.3008 262.566 54.6133C262.84 54.9258 263.168 55.168 263.551 55.3398C263.941 55.5117 264.383 55.5977 264.875 55.5977C265.484 55.5977 266.051 55.4805 266.574 55.2461C267.105 55.0039 267.562 54.6406 267.945 54.1562L269.586 55.9375C269.32 56.3203 268.957 56.6875 268.496 57.0391C268.043 57.3906 267.496 57.6797 266.855 57.9062C266.215 58.125 265.484 58.2344 264.664 58.2344ZM275.164 48.0859V58H271.789V45.3203H274.965L275.164 48.0859ZM278.984 45.2383L278.926 48.3672C278.762 48.3438 278.562 48.3242 278.328 48.3086C278.102 48.2852 277.895 48.2734 277.707 48.2734C277.23 48.2734 276.816 48.3359 276.465 48.4609C276.121 48.5781 275.832 48.7539 275.598 48.9883C275.371 49.2227 275.199 49.5078 275.082 49.8438C274.973 50.1797 274.91 50.5625 274.895 50.9922L274.215 50.7812C274.215 49.9609 274.297 49.207 274.461 48.5195C274.625 47.8242 274.863 47.2188 275.176 46.7031C275.496 46.1875 275.887 45.7891 276.348 45.5078C276.809 45.2266 277.336 45.0859 277.93 45.0859C278.117 45.0859 278.309 45.1016 278.504 45.1328C278.699 45.1562 278.859 45.1914 278.984 45.2383Z" fill="white" fill-opacity="0.5"/>
</g>
<g style="mix-blend-mode:exclusion">
<path d="M102.635 86.0078V118H94.9443V86.0078H102.635ZM115.181 99.2573V118H107.776V94.2256H114.72L115.181 99.2573ZM114.28 105.3L112.588 105.344C112.588 103.674 112.786 102.136 113.182 100.729C113.577 99.3232 114.163 98.1001 114.939 97.0601C115.716 96.02 116.668 95.2144 117.796 94.6431C118.938 94.0718 120.257 93.7861 121.751 93.7861C122.791 93.7861 123.736 93.9473 124.585 94.2695C125.435 94.5771 126.167 95.0679 126.783 95.7417C127.398 96.4009 127.867 97.2651 128.189 98.3345C128.526 99.3892 128.694 100.656 128.694 102.136V118H121.29V103.081C121.29 102.07 121.172 101.308 120.938 100.795C120.718 100.283 120.396 99.9385 119.971 99.7627C119.546 99.5869 119.026 99.499 118.411 99.499C117.767 99.499 117.188 99.6455 116.675 99.9385C116.163 100.231 115.723 100.642 115.357 101.169C115.005 101.682 114.734 102.29 114.544 102.993C114.368 103.696 114.28 104.465 114.28 105.3ZM127.859 105.3L125.794 105.344C125.794 103.674 125.977 102.136 126.343 100.729C126.724 99.3232 127.288 98.1001 128.035 97.0601C128.797 96.02 129.742 95.2144 130.87 94.6431C131.998 94.0718 133.309 93.7861 134.803 93.7861C135.887 93.7861 136.883 93.9473 137.791 94.2695C138.699 94.5918 139.483 95.1118 140.142 95.8296C140.801 96.5474 141.314 97.4995 141.68 98.686C142.046 99.8579 142.229 101.308 142.229 103.037V118H134.803V103.037C134.803 102.055 134.686 101.315 134.451 100.817C134.231 100.305 133.909 99.9604 133.484 99.7847C133.06 99.5942 132.554 99.499 131.968 99.499C131.265 99.499 130.657 99.6455 130.145 99.9385C129.632 100.231 129.2 100.642 128.848 101.169C128.511 101.682 128.262 102.29 128.101 102.993C127.94 103.696 127.859 104.465 127.859 105.3ZM153.941 98.7959V127.141H146.536V94.2256H153.436L153.941 98.7959ZM168.531 105.827V106.289C168.531 108.017 168.333 109.621 167.938 111.101C167.542 112.58 166.956 113.869 166.18 114.968C165.403 116.066 164.437 116.923 163.279 117.539C162.137 118.139 160.811 118.439 159.302 118.439C157.881 118.439 156.658 118.125 155.633 117.495C154.607 116.865 153.75 115.993 153.062 114.88C152.374 113.767 151.817 112.492 151.392 111.057C150.967 109.621 150.63 108.105 150.381 106.508V105.915C150.63 104.201 150.967 102.612 151.392 101.147C151.817 99.6675 152.374 98.3784 153.062 97.2798C153.75 96.1812 154.6 95.3242 155.611 94.709C156.636 94.0938 157.859 93.7861 159.28 93.7861C160.789 93.7861 162.115 94.0718 163.257 94.6431C164.415 95.2144 165.381 96.0347 166.158 97.104C166.949 98.1587 167.542 99.4258 167.938 100.905C168.333 102.385 168.531 104.025 168.531 105.827ZM161.126 106.289V105.827C161.126 104.904 161.06 104.062 160.928 103.3C160.796 102.524 160.584 101.85 160.291 101.279C160.013 100.708 159.639 100.268 159.17 99.9604C158.702 99.6528 158.123 99.499 157.435 99.499C156.644 99.499 155.977 99.6235 155.435 99.8726C154.908 100.107 154.483 100.473 154.161 100.971C153.853 101.455 153.633 102.062 153.501 102.795C153.384 103.513 153.333 104.355 153.348 105.322V107.124C153.318 108.237 153.428 109.218 153.677 110.068C153.926 110.903 154.358 111.555 154.974 112.023C155.589 112.492 156.424 112.727 157.479 112.727C158.182 112.727 158.768 112.565 159.236 112.243C159.705 111.906 160.079 111.445 160.357 110.859C160.635 110.258 160.833 109.57 160.95 108.793C161.067 108.017 161.126 107.182 161.126 106.289ZM179.649 84.25V118H172.222V84.25H179.649ZM195.733 118.439C193.799 118.439 192.071 118.139 190.547 117.539C189.024 116.923 187.735 116.081 186.68 115.012C185.64 113.942 184.842 112.712 184.285 111.32C183.743 109.929 183.472 108.457 183.472 106.904V106.069C183.472 104.326 183.714 102.714 184.197 101.235C184.681 99.7407 185.398 98.437 186.351 97.3237C187.303 96.2104 188.497 95.3462 189.932 94.731C191.368 94.1011 193.038 93.7861 194.942 93.7861C196.626 93.7861 198.135 94.0571 199.468 94.5991C200.801 95.1411 201.929 95.9175 202.852 96.9282C203.79 97.939 204.5 99.1621 204.983 100.598C205.481 102.033 205.73 103.645 205.73 105.432V108.442H186.307V103.806H198.501V103.234C198.516 102.443 198.377 101.77 198.084 101.213C197.806 100.656 197.396 100.231 196.854 99.9385C196.312 99.6455 195.652 99.499 194.876 99.499C194.07 99.499 193.404 99.6748 192.876 100.026C192.364 100.378 191.961 100.861 191.668 101.477C191.39 102.077 191.192 102.773 191.075 103.564C190.958 104.355 190.899 105.19 190.899 106.069V106.904C190.899 107.783 191.016 108.581 191.25 109.299C191.5 110.017 191.851 110.632 192.305 111.145C192.774 111.643 193.331 112.031 193.975 112.309C194.634 112.587 195.381 112.727 196.216 112.727C197.227 112.727 198.223 112.536 199.205 112.155C200.186 111.774 201.028 111.145 201.731 110.266L205.093 114.265C204.61 114.953 203.921 115.62 203.028 116.264C202.149 116.909 201.094 117.436 199.864 117.846C198.633 118.242 197.256 118.439 195.733 118.439ZM216.211 99.2573V118H208.807V94.2256H215.75L216.211 99.2573ZM215.311 105.3L213.619 105.344C213.619 103.674 213.816 102.136 214.212 100.729C214.607 99.3232 215.193 98.1001 215.97 97.0601C216.746 96.02 217.698 95.2144 218.826 94.6431C219.969 94.0718 221.287 93.7861 222.781 93.7861C223.821 93.7861 224.766 93.9473 225.616 94.2695C226.465 94.5771 227.198 95.0679 227.813 95.7417C228.428 96.4009 228.897 97.2651 229.219 98.3345C229.556 99.3892 229.725 100.656 229.725 102.136V118H222.32V103.081C222.32 102.07 222.203 101.308 221.968 100.795C221.749 100.283 221.426 99.9385 221.001 99.7627C220.577 99.5869 220.057 99.499 219.441 99.499C218.797 99.499 218.218 99.6455 217.706 99.9385C217.193 100.231 216.753 100.642 216.387 101.169C216.036 101.682 215.765 102.29 215.574 102.993C215.398 103.696 215.311 104.465 215.311 105.3ZM228.89 105.3L226.824 105.344C226.824 103.674 227.007 102.136 227.374 100.729C227.754 99.3232 228.318 98.1001 229.065 97.0601C229.827 96.02 230.772 95.2144 231.9 94.6431C233.028 94.0718 234.339 93.7861 235.833 93.7861C236.917 93.7861 237.913 93.9473 238.821 94.2695C239.729 94.5918 240.513 95.1118 241.172 95.8296C241.832 96.5474 242.344 97.4995 242.71 98.686C243.077 99.8579 243.26 101.308 243.26 103.037V118H235.833V103.037C235.833 102.055 235.716 101.315 235.481 100.817C235.262 100.305 234.939 99.9604 234.515 99.7847C234.09 99.5942 233.584 99.499 232.999 99.499C232.295 99.499 231.688 99.6455 231.175 99.9385C230.662 100.231 230.23 100.642 229.878 101.169C229.542 101.682 229.292 102.29 229.131 102.993C228.97 103.696 228.89 104.465 228.89 105.3ZM259.014 118.439C257.081 118.439 255.352 118.139 253.829 117.539C252.305 116.923 251.016 116.081 249.961 115.012C248.921 113.942 248.123 112.712 247.566 111.32C247.024 109.929 246.753 108.457 246.753 106.904V106.069C246.753 104.326 246.995 102.714 247.479 101.235C247.962 99.7407 248.68 98.437 249.632 97.3237C250.584 96.2104 251.778 95.3462 253.213 94.731C254.649 94.1011 256.319 93.7861 258.223 93.7861C259.908 93.7861 261.417 94.0571 262.75 94.5991C264.083 95.1411 265.21 95.9175 266.133 96.9282C267.071 97.939 267.781 99.1621 268.265 100.598C268.763 102.033 269.012 103.645 269.012 105.432V108.442H249.588V103.806H261.783V103.234C261.797 102.443 261.658 101.77 261.365 101.213C261.087 100.656 260.677 100.231 260.135 99.9385C259.593 99.6455 258.934 99.499 258.157 99.499C257.352 99.499 256.685 99.6748 256.158 100.026C255.645 100.378 255.242 100.861 254.949 101.477C254.671 102.077 254.473 102.773 254.356 103.564C254.239 104.355 254.18 105.19 254.18 106.069V106.904C254.18 107.783 254.297 108.581 254.532 109.299C254.781 110.017 255.132 110.632 255.586 111.145C256.055 111.643 256.612 112.031 257.256 112.309C257.916 112.587 258.663 112.727 259.498 112.727C260.508 112.727 261.504 112.536 262.486 112.155C263.467 111.774 264.31 111.145 265.013 110.266L268.375 114.265C267.891 114.953 267.203 115.62 266.309 116.264C265.43 116.909 264.375 117.436 263.145 117.846C261.915 118.242 260.538 118.439 259.014 118.439ZM279.295 99.3013V118H271.89V94.2256H278.833L279.295 99.3013ZM278.416 105.3L276.68 105.344C276.68 103.527 276.9 101.909 277.339 100.488C277.779 99.0522 278.401 97.8364 279.207 96.8403C280.013 95.8442 280.972 95.0898 282.085 94.5771C283.213 94.0498 284.466 93.7861 285.843 93.7861C286.941 93.7861 287.945 93.9473 288.853 94.2695C289.776 94.5918 290.567 95.1118 291.226 95.8296C291.9 96.5474 292.413 97.4995 292.764 98.686C293.13 99.8579 293.313 101.308 293.313 103.037V118H285.865V103.015C285.865 102.062 285.733 101.337 285.469 100.839C285.206 100.327 284.825 99.9751 284.327 99.7847C283.829 99.5942 283.221 99.499 282.503 99.499C281.741 99.499 281.097 99.6455 280.569 99.9385C280.042 100.231 279.617 100.642 279.295 101.169C278.987 101.682 278.76 102.29 278.614 102.993C278.482 103.696 278.416 104.465 278.416 105.3ZM309.947 94.2256V99.3672H295.621V94.2256H309.947ZM298.631 88.3149H306.036V110.244C306.036 110.874 306.109 111.364 306.255 111.716C306.402 112.053 306.651 112.294 307.002 112.441C307.369 112.573 307.852 112.639 308.453 112.639C308.877 112.639 309.229 112.631 309.507 112.617C309.786 112.587 310.049 112.551 310.298 112.507V117.802C309.668 118.007 309.009 118.161 308.321 118.264C307.632 118.381 306.9 118.439 306.124 118.439C304.542 118.439 303.187 118.19 302.059 117.692C300.945 117.194 300.096 116.411 299.51 115.341C298.924 114.272 298.631 112.88 298.631 111.167V88.3149ZM325.24 112.023V102.224C325.24 101.55 325.145 100.971 324.954 100.488C324.764 100.004 324.463 99.6309 324.053 99.3672C323.643 99.0889 323.094 98.9497 322.405 98.9497C321.849 98.9497 321.373 99.0449 320.977 99.2354C320.582 99.4258 320.281 99.7114 320.076 100.092C319.871 100.473 319.769 100.957 319.769 101.542H312.364C312.364 100.444 312.605 99.4258 313.089 98.4883C313.587 97.5361 314.29 96.7085 315.198 96.0054C316.121 95.3022 317.22 94.7603 318.494 94.3794C319.783 93.9839 321.219 93.7861 322.801 93.7861C324.69 93.7861 326.375 94.1011 327.854 94.731C329.349 95.3608 330.528 96.3057 331.392 97.5654C332.256 98.8105 332.688 100.378 332.688 102.268V112.001C332.688 113.554 332.776 114.733 332.952 115.539C333.128 116.33 333.377 117.026 333.699 117.626V118H326.272C325.921 117.268 325.657 116.374 325.481 115.319C325.32 114.25 325.24 113.151 325.24 112.023ZM326.141 103.476L326.185 107.431H322.911C322.222 107.431 321.636 107.526 321.153 107.717C320.684 107.907 320.303 108.171 320.01 108.508C319.732 108.83 319.527 109.196 319.395 109.606C319.278 110.017 319.219 110.449 319.219 110.903C319.219 111.342 319.322 111.738 319.527 112.089C319.747 112.426 320.04 112.69 320.406 112.88C320.772 113.071 321.182 113.166 321.636 113.166C322.457 113.166 323.152 113.012 323.724 112.705C324.31 112.382 324.756 111.994 325.064 111.54C325.372 111.086 325.525 110.661 325.525 110.266L327.151 113.298C326.858 113.884 326.521 114.477 326.141 115.078C325.774 115.678 325.313 116.235 324.756 116.748C324.214 117.246 323.548 117.656 322.757 117.978C321.966 118.286 321.006 118.439 319.878 118.439C318.414 118.439 317.066 118.139 315.835 117.539C314.62 116.938 313.646 116.103 312.913 115.034C312.181 113.95 311.814 112.705 311.814 111.298C311.814 110.068 312.034 108.969 312.474 108.002C312.928 107.036 313.609 106.215 314.517 105.542C315.425 104.868 316.583 104.355 317.989 104.003C319.395 103.652 321.05 103.476 322.955 103.476H326.141ZM349.322 94.2256V99.3672H334.996V94.2256H349.322ZM338.006 88.3149H345.411V110.244C345.411 110.874 345.484 111.364 345.63 111.716C345.777 112.053 346.026 112.294 346.377 112.441C346.744 112.573 347.227 112.639 347.828 112.639C348.252 112.639 348.604 112.631 348.882 112.617C349.161 112.587 349.424 112.551 349.673 112.507V117.802C349.043 118.007 348.384 118.161 347.696 118.264C347.007 118.381 346.275 118.439 345.499 118.439C343.917 118.439 342.562 118.19 341.434 117.692C340.32 117.194 339.471 116.411 338.885 115.341C338.299 114.272 338.006 112.88 338.006 111.167V88.3149ZM360.088 94.2256V118H352.662V94.2256H360.088ZM352.222 88.0952C352.222 87.0405 352.603 86.1763 353.365 85.5024C354.126 84.8286 355.115 84.4917 356.331 84.4917C357.547 84.4917 358.536 84.8286 359.297 85.5024C360.059 86.1763 360.44 87.0405 360.44 88.0952C360.44 89.1499 360.059 90.0142 359.297 90.688C358.536 91.3618 357.547 91.6987 356.331 91.6987C355.115 91.6987 354.126 91.3618 353.365 90.688C352.603 90.0142 352.222 89.1499 352.222 88.0952ZM363.736 106.354V105.893C363.736 104.15 363.985 102.546 364.483 101.081C364.981 99.6016 365.713 98.3198 366.68 97.2358C367.647 96.1519 368.841 95.3096 370.262 94.709C371.683 94.0938 373.323 93.7861 375.184 93.7861C377.059 93.7861 378.707 94.0938 380.127 94.709C381.563 95.3096 382.764 96.1519 383.731 97.2358C384.698 98.3198 385.43 99.6016 385.928 101.081C386.426 102.546 386.675 104.15 386.675 105.893V106.354C386.675 108.083 386.426 109.687 385.928 111.167C385.43 112.631 384.698 113.913 383.731 115.012C382.764 116.096 381.57 116.938 380.149 117.539C378.729 118.139 377.088 118.439 375.228 118.439C373.367 118.439 371.719 118.139 370.284 117.539C368.848 116.938 367.647 116.096 366.68 115.012C365.713 113.913 364.981 112.631 364.483 111.167C363.985 109.687 363.736 108.083 363.736 106.354ZM371.141 105.893V106.354C371.141 107.248 371.207 108.083 371.338 108.859C371.47 109.636 371.69 110.317 371.998 110.903C372.305 111.474 372.723 111.921 373.25 112.243C373.777 112.565 374.437 112.727 375.228 112.727C376.004 112.727 376.648 112.565 377.161 112.243C377.688 111.921 378.106 111.474 378.414 110.903C378.721 110.317 378.941 109.636 379.073 108.859C379.205 108.083 379.271 107.248 379.271 106.354V105.893C379.271 105.029 379.205 104.216 379.073 103.454C378.941 102.678 378.721 101.997 378.414 101.411C378.106 100.81 377.688 100.341 377.161 100.004C376.634 99.6675 375.975 99.499 375.184 99.499C374.407 99.499 373.755 99.6675 373.228 100.004C372.715 100.341 372.305 100.81 371.998 101.411C371.69 101.997 371.47 102.678 371.338 103.454C371.207 104.216 371.141 105.029 371.141 105.893ZM397.244 99.3013V118H389.839V94.2256H396.783L397.244 99.3013ZM396.365 105.3L394.629 105.344C394.629 103.527 394.849 101.909 395.289 100.488C395.728 99.0522 396.351 97.8364 397.156 96.8403C397.962 95.8442 398.921 95.0898 400.035 94.5771C401.163 94.0498 402.415 93.7861 403.792 93.7861C404.891 93.7861 405.894 93.9473 406.802 94.2695C407.725 94.5918 408.516 95.1118 409.175 95.8296C409.849 96.5474 410.362 97.4995 410.713 98.686C411.08 99.8579 411.263 101.308 411.263 103.037V118H403.814V103.015C403.814 102.062 403.682 101.337 403.418 100.839C403.155 100.327 402.774 99.9751 402.276 99.7847C401.778 99.5942 401.17 99.499 400.452 99.499C399.69 99.499 399.046 99.6455 398.519 99.9385C397.991 100.231 397.566 100.642 397.244 101.169C396.937 101.682 396.709 102.29 396.563 102.993C396.431 103.696 396.365 104.465 396.365 105.3Z" fill="white"/>
</g>
<path d="M1363 15C1363 6.71573 1356.28 0 1348 0H1134V167H1348C1356.28 167 1363 160.284 1363 152V15Z" fill="#006D77"/>
<path d="M1281.5 49H1216.5L1214 51.5V116.5L1216.5 119H1281.5L1284 116.5V51.5L1281.5 49ZM1279 114H1234V104H1245.5C1247 107 1250.5 109 1254 109C1259.5 109 1264 104.5 1264 99C1264 93.5 1259.5 89 1254 89C1248.5 89 1244 93.5 1244 99H1229V114H1219V54H1229V65.5C1226 67 1224 70.5 1224 74C1224 79.5 1228.5 84 1234 84C1239.5 84 1244 79.5 1244 74H1254C1254 79.5 1258.5 84 1264 84C1269.5 84 1274 79.5 1274 74C1274 68.5 1269.5 64 1264 64C1260.5 64 1257 66 1255.5 69H1242.5C1241 66 1237.5 64 1234 64V54H1279V114ZM1249 99C1249 96 1251 94 1254 94C1257 94 1259 96 1259 99C1259 102 1257 104 1254 104C1251 104 1249 102 1249 99ZM1234 69C1237 69 1239 71 1239 74C1239 77 1237 79 1234 79C1231 79 1229 77 1229 74C1229 71 1231 69 1234 69ZM1264 69C1267 69 1269 71 1269 74C1269 77 1267 79 1264 79C1261 79 1259 77 1259 74C1259 71 1261 69 1264 69Z" fill="white"/>
</svg>
