<svg width="1363" height="167" viewBox="0 0 1363 167" fill="none" xmlns="http://www.w3.org/2000/svg">
<g style="mix-blend-mode:exclusion">
<rect width="1363" height="167" rx="15" fill="white" fill-opacity="0.05"/>
</g>
<g style="mix-blend-mode:exclusion">
<path d="M0 15C0 6.71573 6.71573 0 15 0H37V167H15C6.71573 167 0 160.284 0 152V15Z" fill="white" fill-opacity="0.25"/>
</g>
<g style="mix-blend-mode:exclusion">
<path d="M100.906 50.9219L93.3945 48.2383V45.0859L103.602 49.375V51.6367L100.906 50.9219ZM93.3945 53.1719L100.918 50.4297L103.602 49.7852V52.0352L93.3945 56.3242V53.1719ZM123.348 55.2578V58H114.266V55.2578H123.348ZM115.414 40.9375V58H111.898V40.9375H115.414ZM122.164 47.8867V50.5586H114.266V47.8867H122.164ZM123.336 40.9375V43.6914H114.266V40.9375H123.336ZM127.906 45.3203L130.004 49.1758L132.16 45.3203H135.758L132.172 51.5195L135.922 58H132.312L130.027 53.9219L127.742 58H124.133L127.883 51.5195L124.297 45.3203H127.906ZM140.773 47.7578V62.875H137.398V45.3203H140.527L140.773 47.7578ZM148.801 51.5195V51.7656C148.801 52.6875 148.691 53.543 148.473 54.332C148.262 55.1211 147.949 55.8086 147.535 56.3945C147.121 56.9727 146.605 57.4258 145.988 57.7539C145.379 58.0742 144.676 58.2344 143.879 58.2344C143.105 58.2344 142.434 58.0781 141.863 57.7656C141.293 57.4531 140.812 57.0156 140.422 56.4531C140.039 55.8828 139.73 55.2227 139.496 54.4727C139.262 53.7227 139.082 52.918 138.957 52.0586V51.4141C139.082 50.4922 139.262 49.6484 139.496 48.8828C139.73 48.1094 140.039 47.4414 140.422 46.8789C140.812 46.3086 141.289 45.8672 141.852 45.5547C142.422 45.2422 143.09 45.0859 143.855 45.0859C144.66 45.0859 145.367 45.2383 145.977 45.543C146.594 45.8477 147.109 46.2852 147.523 46.8555C147.945 47.4258 148.262 48.1055 148.473 48.8945C148.691 49.6836 148.801 50.5586 148.801 51.5195ZM145.414 51.7656V51.5195C145.414 50.9805 145.367 50.4844 145.273 50.0312C145.188 49.5703 145.047 49.168 144.852 48.8242C144.664 48.4805 144.414 48.2148 144.102 48.0273C143.797 47.832 143.426 47.7344 142.988 47.7344C142.527 47.7344 142.133 47.8086 141.805 47.957C141.484 48.1055 141.223 48.3203 141.02 48.6016C140.816 48.8828 140.664 49.2188 140.562 49.6094C140.461 50 140.398 50.4414 140.375 50.9336V52.5625C140.414 53.1406 140.523 53.6602 140.703 54.1211C140.883 54.5742 141.16 54.9336 141.535 55.1992C141.91 55.4648 142.402 55.5977 143.012 55.5977C143.457 55.5977 143.832 55.5 144.137 55.3047C144.441 55.1016 144.688 54.8242 144.875 54.4727C145.07 54.1211 145.207 53.7148 145.285 53.2539C145.371 52.793 145.414 52.2969 145.414 51.7656ZM156.734 58.2344C155.75 58.2344 154.867 58.0781 154.086 57.7656C153.305 57.4453 152.641 57.0039 152.094 56.4414C151.555 55.8789 151.141 55.2266 150.852 54.4844C150.562 53.7344 150.418 52.9375 150.418 52.0938V51.625C150.418 50.6641 150.555 49.7852 150.828 48.9883C151.102 48.1914 151.492 47.5 152 46.9141C152.516 46.3281 153.141 45.8789 153.875 45.5664C154.609 45.2461 155.438 45.0859 156.359 45.0859C157.258 45.0859 158.055 45.2344 158.75 45.5312C159.445 45.8281 160.027 46.25 160.496 46.7969C160.973 47.3438 161.332 48 161.574 48.7656C161.816 49.5234 161.938 50.3672 161.938 51.2969V52.7031H151.859V50.4531H158.621V50.1953C158.621 49.7266 158.535 49.3086 158.363 48.9414C158.199 48.5664 157.949 48.2695 157.613 48.0508C157.277 47.832 156.848 47.7227 156.324 47.7227C155.879 47.7227 155.496 47.8203 155.176 48.0156C154.855 48.2109 154.594 48.4844 154.391 48.8359C154.195 49.1875 154.047 49.6016 153.945 50.0781C153.852 50.5469 153.805 51.0625 153.805 51.625V52.0938C153.805 52.6016 153.875 53.0703 154.016 53.5C154.164 53.9297 154.371 54.3008 154.637 54.6133C154.91 54.9258 155.238 55.168 155.621 55.3398C156.012 55.5117 156.453 55.5977 156.945 55.5977C157.555 55.5977 158.121 55.4805 158.645 55.2461C159.176 55.0039 159.633 54.6406 160.016 54.1562L161.656 55.9375C161.391 56.3203 161.027 56.6875 160.566 57.0391C160.113 57.3906 159.566 57.6797 158.926 57.9062C158.285 58.125 157.555 58.2344 156.734 58.2344ZM167.164 48.0273V58H163.789V45.3203H166.953L167.164 48.0273ZM166.672 51.2148H165.758C165.758 50.2773 165.879 49.4336 166.121 48.6836C166.363 47.9258 166.703 47.2812 167.141 46.75C167.578 46.2109 168.098 45.8008 168.699 45.5195C169.309 45.2305 169.988 45.0859 170.738 45.0859C171.332 45.0859 171.875 45.1719 172.367 45.3438C172.859 45.5156 173.281 45.7891 173.633 46.1641C173.992 46.5391 174.266 47.0352 174.453 47.6523C174.648 48.2695 174.746 49.0234 174.746 49.9141V58H171.348V49.9023C171.348 49.3398 171.27 48.9023 171.113 48.5898C170.957 48.2773 170.727 48.0586 170.422 47.9336C170.125 47.8008 169.758 47.7344 169.32 47.7344C168.867 47.7344 168.473 47.8242 168.137 48.0039C167.809 48.1836 167.535 48.4336 167.316 48.7539C167.105 49.0664 166.945 49.4336 166.836 49.8555C166.727 50.2773 166.672 50.7305 166.672 51.2148ZM184.168 54.4961C184.168 54.2539 184.098 54.0352 183.957 53.8398C183.816 53.6445 183.555 53.4648 183.172 53.3008C182.797 53.1289 182.254 52.9727 181.543 52.832C180.902 52.6914 180.305 52.5156 179.75 52.3047C179.203 52.0859 178.727 51.8242 178.32 51.5195C177.922 51.2148 177.609 50.8555 177.383 50.4414C177.156 50.0195 177.043 49.5391 177.043 49C177.043 48.4688 177.156 47.9688 177.383 47.5C177.617 47.0312 177.949 46.6172 178.379 46.2578C178.816 45.8906 179.348 45.6055 179.973 45.4023C180.605 45.1914 181.316 45.0859 182.105 45.0859C183.207 45.0859 184.152 45.2617 184.941 45.6133C185.738 45.9648 186.348 46.4492 186.77 47.0664C187.199 47.6758 187.414 48.3711 187.414 49.1523H184.039C184.039 48.8242 183.969 48.5312 183.828 48.2734C183.695 48.0078 183.484 47.8008 183.195 47.6523C182.914 47.4961 182.547 47.418 182.094 47.418C181.719 47.418 181.395 47.4844 181.121 47.6172C180.848 47.7422 180.637 47.9141 180.488 48.1328C180.348 48.3438 180.277 48.5781 180.277 48.8359C180.277 49.0312 180.316 49.207 180.395 49.3633C180.48 49.5117 180.617 49.6484 180.805 49.7734C180.992 49.8984 181.234 50.0156 181.531 50.125C181.836 50.2266 182.211 50.3203 182.656 50.4062C183.57 50.5938 184.387 50.8398 185.105 51.1445C185.824 51.4414 186.395 51.8477 186.816 52.3633C187.238 52.8711 187.449 53.5391 187.449 54.3672C187.449 54.9297 187.324 55.4453 187.074 55.9141C186.824 56.3828 186.465 56.793 185.996 57.1445C185.527 57.4883 184.965 57.7578 184.309 57.9531C183.66 58.1406 182.93 58.2344 182.117 58.2344C180.938 58.2344 179.938 58.0234 179.117 57.6016C178.305 57.1797 177.688 56.6445 177.266 55.9961C176.852 55.3398 176.645 54.668 176.645 53.9805H179.844C179.859 54.4414 179.977 54.8125 180.195 55.0938C180.422 55.375 180.707 55.5781 181.051 55.7031C181.402 55.8281 181.781 55.8906 182.188 55.8906C182.625 55.8906 182.988 55.832 183.277 55.7148C183.566 55.5898 183.785 55.4258 183.934 55.2227C184.09 55.0117 184.168 54.7695 184.168 54.4961ZM195.477 58.2344C194.492 58.2344 193.609 58.0781 192.828 57.7656C192.047 57.4453 191.383 57.0039 190.836 56.4414C190.297 55.8789 189.883 55.2266 189.594 54.4844C189.305 53.7344 189.16 52.9375 189.16 52.0938V51.625C189.16 50.6641 189.297 49.7852 189.57 48.9883C189.844 48.1914 190.234 47.5 190.742 46.9141C191.258 46.3281 191.883 45.8789 192.617 45.5664C193.352 45.2461 194.18 45.0859 195.102 45.0859C196 45.0859 196.797 45.2344 197.492 45.5312C198.188 45.8281 198.77 46.25 199.238 46.7969C199.715 47.3438 200.074 48 200.316 48.7656C200.559 49.5234 200.68 50.3672 200.68 51.2969V52.7031H190.602V50.4531H197.363V50.1953C197.363 49.7266 197.277 49.3086 197.105 48.9414C196.941 48.5664 196.691 48.2695 196.355 48.0508C196.02 47.832 195.59 47.7227 195.066 47.7227C194.621 47.7227 194.238 47.8203 193.918 48.0156C193.598 48.2109 193.336 48.4844 193.133 48.8359C192.938 49.1875 192.789 49.6016 192.688 50.0781C192.594 50.5469 192.547 51.0625 192.547 51.625V52.0938C192.547 52.6016 192.617 53.0703 192.758 53.5C192.906 53.9297 193.113 54.3008 193.379 54.6133C193.652 54.9258 193.98 55.168 194.363 55.3398C194.754 55.5117 195.195 55.5977 195.688 55.5977C196.297 55.5977 196.863 55.4805 197.387 55.2461C197.918 55.0039 198.375 54.6406 198.758 54.1562L200.398 55.9375C200.133 56.3203 199.77 56.6875 199.309 57.0391C198.855 57.3906 198.309 57.6797 197.668 57.9062C197.027 58.125 196.297 58.2344 195.477 58.2344ZM218.68 52.3398H222.184C222.113 53.4883 221.797 54.5078 221.234 55.3984C220.68 56.2891 219.902 56.9844 218.902 57.4844C217.91 57.9844 216.715 58.2344 215.316 58.2344C214.223 58.2344 213.242 58.0469 212.375 57.6719C211.508 57.2891 210.766 56.7422 210.148 56.0312C209.539 55.3203 209.074 54.4609 208.754 53.4531C208.434 52.4453 208.273 51.3164 208.273 50.0664V48.8828C208.273 47.6328 208.438 46.5039 208.766 45.4961C209.102 44.4805 209.578 43.6172 210.195 42.9062C210.82 42.1953 211.566 41.6484 212.434 41.2656C213.301 40.8828 214.27 40.6914 215.34 40.6914C216.762 40.6914 217.961 40.9492 218.938 41.4648C219.922 41.9805 220.684 42.6914 221.223 43.5977C221.77 44.5039 222.098 45.5352 222.207 46.6914H218.691C218.652 46.0039 218.516 45.4219 218.281 44.9453C218.047 44.4609 217.691 44.0977 217.215 43.8555C216.746 43.6055 216.121 43.4805 215.34 43.4805C214.754 43.4805 214.242 43.5898 213.805 43.8086C213.367 44.0273 213 44.3594 212.703 44.8047C212.406 45.25 212.184 45.8125 212.035 46.4922C211.895 47.1641 211.824 47.9531 211.824 48.8594V50.0664C211.824 50.9492 211.891 51.7266 212.023 52.3984C212.156 53.0625 212.359 53.625 212.633 54.0859C212.914 54.5391 213.273 54.8828 213.711 55.1172C214.156 55.3438 214.691 55.457 215.316 55.457C216.051 55.457 216.656 55.3398 217.133 55.1055C217.609 54.8711 217.973 54.5234 218.223 54.0625C218.48 53.6016 218.633 53.0273 218.68 52.3398ZM230.117 58.2344C229.133 58.2344 228.25 58.0781 227.469 57.7656C226.688 57.4453 226.023 57.0039 225.477 56.4414C224.938 55.8789 224.523 55.2266 224.234 54.4844C223.945 53.7344 223.801 52.9375 223.801 52.0938V51.625C223.801 50.6641 223.938 49.7852 224.211 48.9883C224.484 48.1914 224.875 47.5 225.383 46.9141C225.898 46.3281 226.523 45.8789 227.258 45.5664C227.992 45.2461 228.82 45.0859 229.742 45.0859C230.641 45.0859 231.438 45.2344 232.133 45.5312C232.828 45.8281 233.41 46.25 233.879 46.7969C234.355 47.3438 234.715 48 234.957 48.7656C235.199 49.5234 235.32 50.3672 235.32 51.2969V52.7031H225.242V50.4531H232.004V50.1953C232.004 49.7266 231.918 49.3086 231.746 48.9414C231.582 48.5664 231.332 48.2695 230.996 48.0508C230.66 47.832 230.23 47.7227 229.707 47.7227C229.262 47.7227 228.879 47.8203 228.559 48.0156C228.238 48.2109 227.977 48.4844 227.773 48.8359C227.578 49.1875 227.43 49.6016 227.328 50.0781C227.234 50.5469 227.188 51.0625 227.188 51.625V52.0938C227.188 52.6016 227.258 53.0703 227.398 53.5C227.547 53.9297 227.754 54.3008 228.02 54.6133C228.293 54.9258 228.621 55.168 229.004 55.3398C229.395 55.5117 229.836 55.5977 230.328 55.5977C230.938 55.5977 231.504 55.4805 232.027 55.2461C232.559 55.0039 233.016 54.6406 233.398 54.1562L235.039 55.9375C234.773 56.3203 234.41 56.6875 233.949 57.0391C233.496 57.3906 232.949 57.6797 232.309 57.9062C231.668 58.125 230.938 58.2344 230.117 58.2344ZM240.547 48.0273V58H237.172V45.3203H240.336L240.547 48.0273ZM240.055 51.2148H239.141C239.141 50.2773 239.262 49.4336 239.504 48.6836C239.746 47.9258 240.086 47.2812 240.523 46.75C240.961 46.2109 241.48 45.8008 242.082 45.5195C242.691 45.2305 243.371 45.0859 244.121 45.0859C244.715 45.0859 245.258 45.1719 245.75 45.3438C246.242 45.5156 246.664 45.7891 247.016 46.1641C247.375 46.5391 247.648 47.0352 247.836 47.6523C248.031 48.2695 248.129 49.0234 248.129 49.9141V58H244.73V49.9023C244.73 49.3398 244.652 48.9023 244.496 48.5898C244.34 48.2773 244.109 48.0586 243.805 47.9336C243.508 47.8008 243.141 47.7344 242.703 47.7344C242.25 47.7344 241.855 47.8242 241.52 48.0039C241.191 48.1836 240.918 48.4336 240.699 48.7539C240.488 49.0664 240.328 49.4336 240.219 49.8555C240.109 50.2773 240.055 50.7305 240.055 51.2148ZM256.906 45.3203V47.7109H249.523V45.3203H256.906ZM251.352 42.1914H254.727V54.1797C254.727 54.5469 254.773 54.8281 254.867 55.0234C254.969 55.2188 255.117 55.3555 255.312 55.4336C255.508 55.5039 255.754 55.5391 256.051 55.5391C256.262 55.5391 256.449 55.5312 256.613 55.5156C256.785 55.4922 256.93 55.4688 257.047 55.4453L257.059 57.9297C256.77 58.0234 256.457 58.0977 256.121 58.1523C255.785 58.207 255.414 58.2344 255.008 58.2344C254.266 58.2344 253.617 58.1133 253.062 57.8711C252.516 57.6211 252.094 57.2227 251.797 56.6758C251.5 56.1289 251.352 55.4102 251.352 54.5195V42.1914ZM264.664 58.2344C263.68 58.2344 262.797 58.0781 262.016 57.7656C261.234 57.4453 260.57 57.0039 260.023 56.4414C259.484 55.8789 259.07 55.2266 258.781 54.4844C258.492 53.7344 258.348 52.9375 258.348 52.0938V51.625C258.348 50.6641 258.484 49.7852 258.758 48.9883C259.031 48.1914 259.422 47.5 259.93 46.9141C260.445 46.3281 261.07 45.8789 261.805 45.5664C262.539 45.2461 263.367 45.0859 264.289 45.0859C265.188 45.0859 265.984 45.2344 266.68 45.5312C267.375 45.8281 267.957 46.25 268.426 46.7969C268.902 47.3438 269.262 48 269.504 48.7656C269.746 49.5234 269.867 50.3672 269.867 51.2969V52.7031H259.789V50.4531H266.551V50.1953C266.551 49.7266 266.465 49.3086 266.293 48.9414C266.129 48.5664 265.879 48.2695 265.543 48.0508C265.207 47.832 264.777 47.7227 264.254 47.7227C263.809 47.7227 263.426 47.8203 263.105 48.0156C262.785 48.2109 262.523 48.4844 262.32 48.8359C262.125 49.1875 261.977 49.6016 261.875 50.0781C261.781 50.5469 261.734 51.0625 261.734 51.625V52.0938C261.734 52.6016 261.805 53.0703 261.945 53.5C262.094 53.9297 262.301 54.3008 262.566 54.6133C262.84 54.9258 263.168 55.168 263.551 55.3398C263.941 55.5117 264.383 55.5977 264.875 55.5977C265.484 55.5977 266.051 55.4805 266.574 55.2461C267.105 55.0039 267.562 54.6406 267.945 54.1562L269.586 55.9375C269.32 56.3203 268.957 56.6875 268.496 57.0391C268.043 57.3906 267.496 57.6797 266.855 57.9062C266.215 58.125 265.484 58.2344 264.664 58.2344ZM275.164 48.0859V58H271.789V45.3203H274.965L275.164 48.0859ZM278.984 45.2383L278.926 48.3672C278.762 48.3438 278.562 48.3242 278.328 48.3086C278.102 48.2852 277.895 48.2734 277.707 48.2734C277.23 48.2734 276.816 48.3359 276.465 48.4609C276.121 48.5781 275.832 48.7539 275.598 48.9883C275.371 49.2227 275.199 49.5078 275.082 49.8438C274.973 50.1797 274.91 50.5625 274.895 50.9922L274.215 50.7812C274.215 49.9609 274.297 49.207 274.461 48.5195C274.625 47.8242 274.863 47.2188 275.176 46.7031C275.496 46.1875 275.887 45.7891 276.348 45.5078C276.809 45.2266 277.336 45.0859 277.93 45.0859C278.117 45.0859 278.309 45.1016 278.504 45.1328C278.699 45.1562 278.859 45.1914 278.984 45.2383Z" fill="white" fill-opacity="0.5"/>
</g>
<g style="mix-blend-mode:exclusion">
<path d="M109.93 86.0078V118H102.217V86.0078H109.93ZM119.554 86.0078V91.9624H92.813V86.0078H119.554ZM132.012 118.439C130.079 118.439 128.35 118.139 126.827 117.539C125.303 116.923 124.014 116.081 122.959 115.012C121.919 113.942 121.121 112.712 120.564 111.32C120.022 109.929 119.751 108.457 119.751 106.904V106.069C119.751 104.326 119.993 102.714 120.477 101.235C120.96 99.7407 121.678 98.437 122.63 97.3237C123.582 96.2104 124.776 95.3462 126.211 94.731C127.647 94.1011 129.317 93.7861 131.221 93.7861C132.906 93.7861 134.415 94.0571 135.748 94.5991C137.081 95.1411 138.208 95.9175 139.131 96.9282C140.069 97.939 140.779 99.1621 141.263 100.598C141.761 102.033 142.01 103.645 142.01 105.432V108.442H122.586V103.806H134.781V103.234C134.795 102.443 134.656 101.77 134.363 101.213C134.085 100.656 133.675 100.231 133.133 99.9385C132.591 99.6455 131.932 99.499 131.155 99.499C130.35 99.499 129.683 99.6748 129.156 100.026C128.643 100.378 128.24 100.861 127.947 101.477C127.669 102.077 127.471 102.773 127.354 103.564C127.237 104.355 127.178 105.19 127.178 106.069V106.904C127.178 107.783 127.295 108.581 127.53 109.299C127.779 110.017 128.13 110.632 128.584 111.145C129.053 111.643 129.61 112.031 130.254 112.309C130.914 112.587 131.661 112.727 132.496 112.727C133.506 112.727 134.502 112.536 135.484 112.155C136.465 111.774 137.308 111.145 138.011 110.266L141.373 114.265C140.889 114.953 140.201 115.62 139.307 116.264C138.428 116.909 137.374 117.436 136.143 117.846C134.913 118.242 133.536 118.439 132.012 118.439ZM155.062 112.727C155.75 112.727 156.336 112.602 156.819 112.353C157.317 112.089 157.691 111.723 157.94 111.254C158.204 110.771 158.328 110.192 158.313 109.519H165.279C165.293 111.306 164.854 112.873 163.96 114.221C163.082 115.554 161.88 116.594 160.357 117.341C158.848 118.073 157.142 118.439 155.237 118.439C153.377 118.439 151.751 118.139 150.359 117.539C148.968 116.923 147.803 116.074 146.866 114.99C145.943 113.891 145.247 112.609 144.778 111.145C144.324 109.68 144.097 108.09 144.097 106.376V105.871C144.097 104.157 144.324 102.568 144.778 101.103C145.247 99.6235 145.943 98.3418 146.866 97.2578C147.803 96.1592 148.96 95.3096 150.337 94.709C151.729 94.0938 153.348 93.7861 155.193 93.7861C157.171 93.7861 158.914 94.1597 160.423 94.9067C161.946 95.6538 163.14 96.7378 164.004 98.1587C164.869 99.5796 165.293 101.301 165.279 103.322H158.313C158.328 102.604 158.218 101.96 157.984 101.389C157.75 100.817 157.383 100.363 156.885 100.026C156.402 99.6748 155.779 99.499 155.018 99.499C154.256 99.499 153.641 99.6675 153.172 100.004C152.703 100.341 152.344 100.81 152.095 101.411C151.861 101.997 151.7 102.67 151.612 103.432C151.539 104.194 151.502 105.007 151.502 105.871V106.376C151.502 107.255 151.539 108.083 151.612 108.859C151.7 109.621 151.868 110.295 152.117 110.881C152.366 111.452 152.725 111.906 153.194 112.243C153.663 112.565 154.285 112.727 155.062 112.727ZM175.694 84.25V118H168.289V84.25H175.694ZM174.815 105.3L173.079 105.344C173.079 103.674 173.284 102.136 173.694 100.729C174.104 99.3232 174.69 98.1001 175.452 97.0601C176.214 96.02 177.129 95.2144 178.199 94.6431C179.268 94.0718 180.455 93.7861 181.758 93.7861C182.93 93.7861 184 93.9546 184.966 94.2915C185.948 94.6284 186.79 95.1704 187.493 95.9175C188.211 96.6646 188.76 97.6387 189.141 98.8398C189.537 100.041 189.734 101.506 189.734 103.234V118H182.286V103.19C182.286 102.224 182.146 101.477 181.868 100.949C181.604 100.407 181.224 100.034 180.726 99.8286C180.228 99.6089 179.62 99.499 178.902 99.499C178.038 99.499 177.334 99.6455 176.792 99.9385C176.25 100.231 175.833 100.642 175.54 101.169C175.262 101.682 175.071 102.29 174.969 102.993C174.866 103.696 174.815 104.465 174.815 105.3ZM221.88 109.497C221.88 108.999 221.807 108.552 221.661 108.156C221.514 107.746 221.243 107.365 220.848 107.014C220.452 106.662 219.881 106.311 219.134 105.959C218.401 105.593 217.435 105.212 216.233 104.816C214.827 104.348 213.472 103.82 212.168 103.234C210.865 102.634 209.7 101.938 208.675 101.147C207.649 100.341 206.836 99.4038 206.236 98.3345C205.635 97.2505 205.335 95.9907 205.335 94.5552C205.335 93.1782 205.643 91.9404 206.258 90.8418C206.873 89.7285 207.73 88.7837 208.829 88.0073C209.942 87.2163 211.246 86.6157 212.74 86.2056C214.234 85.7808 215.867 85.5684 217.64 85.5684C219.983 85.5684 222.049 85.9785 223.836 86.7988C225.638 87.6045 227.044 88.7544 228.055 90.2485C229.08 91.728 229.593 93.4785 229.593 95.5H221.924C221.924 94.6943 221.756 93.9839 221.419 93.3687C221.097 92.7534 220.606 92.27 219.947 91.9185C219.288 91.5669 218.46 91.3911 217.464 91.3911C216.497 91.3911 215.684 91.5376 215.025 91.8306C214.366 92.1235 213.868 92.519 213.531 93.0171C213.194 93.5005 213.025 94.0352 213.025 94.6211C213.025 95.1045 213.157 95.5439 213.421 95.9395C213.699 96.3203 214.087 96.6792 214.585 97.0161C215.098 97.353 215.713 97.6753 216.431 97.9829C217.164 98.2905 217.984 98.5908 218.892 98.8838C220.591 99.4258 222.1 100.034 223.418 100.708C224.751 101.367 225.872 102.121 226.78 102.971C227.703 103.806 228.399 104.758 228.868 105.827C229.351 106.896 229.593 108.105 229.593 109.453C229.593 110.888 229.314 112.163 228.758 113.276C228.201 114.389 227.403 115.334 226.363 116.11C225.323 116.872 224.078 117.451 222.627 117.846C221.177 118.242 219.559 118.439 217.771 118.439C216.131 118.439 214.512 118.234 212.916 117.824C211.333 117.399 209.898 116.755 208.609 115.891C207.32 115.012 206.287 113.891 205.511 112.529C204.749 111.152 204.368 109.519 204.368 107.629H212.103C212.103 108.566 212.227 109.357 212.476 110.002C212.725 110.646 213.091 111.167 213.575 111.562C214.058 111.943 214.651 112.221 215.354 112.397C216.058 112.558 216.863 112.639 217.771 112.639C218.753 112.639 219.544 112.5 220.145 112.221C220.745 111.928 221.185 111.547 221.463 111.079C221.741 110.595 221.88 110.068 221.88 109.497ZM245.743 94.2256V99.3672H231.417V94.2256H245.743ZM234.427 88.3149H241.832V110.244C241.832 110.874 241.905 111.364 242.051 111.716C242.198 112.053 242.447 112.294 242.798 112.441C243.165 112.573 243.648 112.639 244.249 112.639C244.673 112.639 245.025 112.631 245.303 112.617C245.582 112.587 245.845 112.551 246.094 112.507V117.802C245.464 118.007 244.805 118.161 244.117 118.264C243.428 118.381 242.696 118.439 241.919 118.439C240.337 118.439 238.982 118.19 237.854 117.692C236.741 117.194 235.892 116.411 235.306 115.341C234.72 114.272 234.427 112.88 234.427 111.167V88.3149ZM261.036 112.023V102.224C261.036 101.55 260.94 100.971 260.75 100.488C260.56 100.004 260.259 99.6309 259.849 99.3672C259.439 99.0889 258.89 98.9497 258.201 98.9497C257.645 98.9497 257.168 99.0449 256.773 99.2354C256.377 99.4258 256.077 99.7114 255.872 100.092C255.667 100.473 255.564 100.957 255.564 101.542H248.16C248.16 100.444 248.401 99.4258 248.885 98.4883C249.383 97.5361 250.086 96.7085 250.994 96.0054C251.917 95.3022 253.016 94.7603 254.29 94.3794C255.579 93.9839 257.015 93.7861 258.597 93.7861C260.486 93.7861 262.171 94.1011 263.65 94.731C265.145 95.3608 266.324 96.3057 267.188 97.5654C268.052 98.8105 268.484 100.378 268.484 102.268V112.001C268.484 113.554 268.572 114.733 268.748 115.539C268.924 116.33 269.173 117.026 269.495 117.626V118H262.068C261.717 117.268 261.453 116.374 261.277 115.319C261.116 114.25 261.036 113.151 261.036 112.023ZM261.937 103.476L261.98 107.431H258.707C258.018 107.431 257.432 107.526 256.949 107.717C256.48 107.907 256.099 108.171 255.806 108.508C255.528 108.83 255.323 109.196 255.191 109.606C255.074 110.017 255.015 110.449 255.015 110.903C255.015 111.342 255.118 111.738 255.323 112.089C255.542 112.426 255.835 112.69 256.202 112.88C256.568 113.071 256.978 113.166 257.432 113.166C258.252 113.166 258.948 113.012 259.52 112.705C260.105 112.382 260.552 111.994 260.86 111.54C261.167 111.086 261.321 110.661 261.321 110.266L262.947 113.298C262.654 113.884 262.317 114.477 261.937 115.078C261.57 115.678 261.109 116.235 260.552 116.748C260.01 117.246 259.344 117.656 258.553 117.978C257.762 118.286 256.802 118.439 255.674 118.439C254.209 118.439 252.862 118.139 251.631 117.539C250.416 116.938 249.441 116.103 248.709 115.034C247.977 113.95 247.61 112.705 247.61 111.298C247.61 110.068 247.83 108.969 248.27 108.002C248.724 107.036 249.405 106.215 250.313 105.542C251.221 104.868 252.378 104.355 253.785 104.003C255.191 103.652 256.846 103.476 258.75 103.476H261.937ZM282.635 112.727C283.323 112.727 283.909 112.602 284.393 112.353C284.891 112.089 285.264 111.723 285.513 111.254C285.777 110.771 285.901 110.192 285.887 109.519H292.852C292.867 111.306 292.427 112.873 291.534 114.221C290.655 115.554 289.454 116.594 287.93 117.341C286.421 118.073 284.715 118.439 282.811 118.439C280.95 118.439 279.324 118.139 277.933 117.539C276.541 116.923 275.376 116.074 274.439 114.99C273.516 113.891 272.82 112.609 272.352 111.145C271.897 109.68 271.67 108.09 271.67 106.376V105.871C271.67 104.157 271.897 102.568 272.352 101.103C272.82 99.6235 273.516 98.3418 274.439 97.2578C275.376 96.1592 276.534 95.3096 277.911 94.709C279.302 94.0938 280.921 93.7861 282.767 93.7861C284.744 93.7861 286.487 94.1597 287.996 94.9067C289.52 95.6538 290.713 96.7378 291.578 98.1587C292.442 99.5796 292.867 101.301 292.852 103.322H285.887C285.901 102.604 285.792 101.96 285.557 101.389C285.323 100.817 284.957 100.363 284.458 100.026C283.975 99.6748 283.353 99.499 282.591 99.499C281.829 99.499 281.214 99.6675 280.745 100.004C280.276 100.341 279.917 100.81 279.668 101.411C279.434 101.997 279.273 102.67 279.185 103.432C279.112 104.194 279.075 105.007 279.075 105.871V106.376C279.075 107.255 279.112 108.083 279.185 108.859C279.273 109.621 279.441 110.295 279.69 110.881C279.939 111.452 280.298 111.906 280.767 112.243C281.236 112.565 281.858 112.727 282.635 112.727ZM303.487 84.228V118H296.082V84.228H303.487ZM318.692 94.2256L308.365 106.333L302.959 111.738L299.729 107.036L304.234 101.169L309.815 94.2256H318.692ZM310.76 118L304.41 107.167L309.881 103.278L319.241 118H310.76Z" fill="white"/>
</g>
<path d="M1363 15C1363 6.71573 1356.28 0 1348 0H1134V167H1348C1356.28 167 1363 160.284 1363 152V15Z" fill="#006D77"/>
<path fill-rule="evenodd" clip-rule="evenodd" d="M1218.5 55C1218.37 55 1218.24 55.0527 1218.15 55.1464C1218.05 55.2402 1218 55.3674 1218 55.5V111.5C1218 111.633 1218.05 111.76 1218.15 111.854C1218.24 111.947 1218.37 112 1218.5 112H1278C1278.13 112 1278.26 111.947 1278.35 111.854C1278.45 111.76 1278.5 111.633 1278.5 111.5V66C1278.5 65.8674 1278.45 65.7402 1278.35 65.6464C1278.26 65.5527 1278.13 65.5 1278 65.5H1248.25C1247.36 65.5 1246.52 65.1045 1245.95 64.4206L1238.09 55H1218.5ZM1213.9 50.9038C1215.12 49.6848 1216.78 49 1218.5 49H1239.5C1240.39 49 1241.23 49.3955 1241.8 50.0794L1249.66 59.5H1278C1279.72 59.5 1281.38 60.1848 1282.6 61.4038C1283.82 62.6228 1284.5 64.2761 1284.5 66V111.5C1284.5 113.224 1283.82 114.877 1282.6 116.096C1281.38 117.315 1279.72 118 1278 118H1218.5C1216.78 118 1215.12 117.315 1213.9 116.096C1212.68 114.877 1212 113.224 1212 111.5V55.5C1212 53.7761 1212.68 52.1228 1213.9 50.9038Z" fill="white"/>
<path fill-rule="evenodd" clip-rule="evenodd" d="M1243.72 77.5251C1245.09 78.892 1245.09 81.108 1243.72 82.4749L1237.45 88.75L1243.72 95.0251C1245.09 96.392 1245.09 98.608 1243.72 99.9749C1242.36 101.342 1240.14 101.342 1238.78 99.9749L1230.03 91.2249C1228.66 89.858 1228.66 87.642 1230.03 86.2751L1238.78 77.5251C1240.14 76.1583 1242.36 76.1583 1243.72 77.5251Z" fill="white"/>
<path fill-rule="evenodd" clip-rule="evenodd" d="M1252.03 99.9749C1250.66 98.608 1250.66 96.392 1252.03 95.0251L1258.3 88.75L1252.03 82.4749C1250.66 81.108 1250.66 78.892 1252.03 77.5251C1253.39 76.1583 1255.61 76.1583 1256.97 77.5251L1265.72 86.2751C1267.09 87.642 1267.09 89.858 1265.72 91.2249L1256.97 99.9749C1255.61 101.342 1253.39 101.342 1252.03 99.9749Z" fill="white"/>
</svg>
