<svg width="1363" height="167" viewBox="0 0 1363 167" fill="none" xmlns="http://www.w3.org/2000/svg">
<g style="mix-blend-mode:exclusion">
<rect width="1363" height="167" rx="15" fill="white" fill-opacity="0.05"/>
</g>
<g style="mix-blend-mode:exclusion">
<path d="M0 15C0 6.71573 6.71573 0 15 0H37V167H15C6.71573 167 0 160.284 0 152V15Z" fill="white" fill-opacity="0.25"/>
</g>
<g style="mix-blend-mode:exclusion">
<path d="M100.906 50.9219L93.3945 48.2383V45.0859L103.602 49.375V51.6367L100.906 50.9219ZM93.3945 53.1719L100.918 50.4297L103.602 49.7852V52.0352L93.3945 56.3242V53.1719ZM123.348 55.2578V58H114.266V55.2578H123.348ZM115.414 40.9375V58H111.898V40.9375H115.414ZM122.164 47.8867V50.5586H114.266V47.8867H122.164ZM123.336 40.9375V43.6914H114.266V40.9375H123.336ZM127.906 45.3203L130.004 49.1758L132.16 45.3203H135.758L132.172 51.5195L135.922 58H132.312L130.027 53.9219L127.742 58H124.133L127.883 51.5195L124.297 45.3203H127.906ZM140.773 47.7578V62.875H137.398V45.3203H140.527L140.773 47.7578ZM148.801 51.5195V51.7656C148.801 52.6875 148.691 53.543 148.473 54.332C148.262 55.1211 147.949 55.8086 147.535 56.3945C147.121 56.9727 146.605 57.4258 145.988 57.7539C145.379 58.0742 144.676 58.2344 143.879 58.2344C143.105 58.2344 142.434 58.0781 141.863 57.7656C141.293 57.4531 140.812 57.0156 140.422 56.4531C140.039 55.8828 139.73 55.2227 139.496 54.4727C139.262 53.7227 139.082 52.918 138.957 52.0586V51.4141C139.082 50.4922 139.262 49.6484 139.496 48.8828C139.73 48.1094 140.039 47.4414 140.422 46.8789C140.812 46.3086 141.289 45.8672 141.852 45.5547C142.422 45.2422 143.09 45.0859 143.855 45.0859C144.66 45.0859 145.367 45.2383 145.977 45.543C146.594 45.8477 147.109 46.2852 147.523 46.8555C147.945 47.4258 148.262 48.1055 148.473 48.8945C148.691 49.6836 148.801 50.5586 148.801 51.5195ZM145.414 51.7656V51.5195C145.414 50.9805 145.367 50.4844 145.273 50.0312C145.188 49.5703 145.047 49.168 144.852 48.8242C144.664 48.4805 144.414 48.2148 144.102 48.0273C143.797 47.832 143.426 47.7344 142.988 47.7344C142.527 47.7344 142.133 47.8086 141.805 47.957C141.484 48.1055 141.223 48.3203 141.02 48.6016C140.816 48.8828 140.664 49.2188 140.562 49.6094C140.461 50 140.398 50.4414 140.375 50.9336V52.5625C140.414 53.1406 140.523 53.6602 140.703 54.1211C140.883 54.5742 141.16 54.9336 141.535 55.1992C141.91 55.4648 142.402 55.5977 143.012 55.5977C143.457 55.5977 143.832 55.5 144.137 55.3047C144.441 55.1016 144.688 54.8242 144.875 54.4727C145.07 54.1211 145.207 53.7148 145.285 53.2539C145.371 52.793 145.414 52.2969 145.414 51.7656ZM156.734 58.2344C155.75 58.2344 154.867 58.0781 154.086 57.7656C153.305 57.4453 152.641 57.0039 152.094 56.4414C151.555 55.8789 151.141 55.2266 150.852 54.4844C150.562 53.7344 150.418 52.9375 150.418 52.0938V51.625C150.418 50.6641 150.555 49.7852 150.828 48.9883C151.102 48.1914 151.492 47.5 152 46.9141C152.516 46.3281 153.141 45.8789 153.875 45.5664C154.609 45.2461 155.438 45.0859 156.359 45.0859C157.258 45.0859 158.055 45.2344 158.75 45.5312C159.445 45.8281 160.027 46.25 160.496 46.7969C160.973 47.3438 161.332 48 161.574 48.7656C161.816 49.5234 161.938 50.3672 161.938 51.2969V52.7031H151.859V50.4531H158.621V50.1953C158.621 49.7266 158.535 49.3086 158.363 48.9414C158.199 48.5664 157.949 48.2695 157.613 48.0508C157.277 47.832 156.848 47.7227 156.324 47.7227C155.879 47.7227 155.496 47.8203 155.176 48.0156C154.855 48.2109 154.594 48.4844 154.391 48.8359C154.195 49.1875 154.047 49.6016 153.945 50.0781C153.852 50.5469 153.805 51.0625 153.805 51.625V52.0938C153.805 52.6016 153.875 53.0703 154.016 53.5C154.164 53.9297 154.371 54.3008 154.637 54.6133C154.91 54.9258 155.238 55.168 155.621 55.3398C156.012 55.5117 156.453 55.5977 156.945 55.5977C157.555 55.5977 158.121 55.4805 158.645 55.2461C159.176 55.0039 159.633 54.6406 160.016 54.1562L161.656 55.9375C161.391 56.3203 161.027 56.6875 160.566 57.0391C160.113 57.3906 159.566 57.6797 158.926 57.9062C158.285 58.125 157.555 58.2344 156.734 58.2344ZM167.164 48.0273V58H163.789V45.3203H166.953L167.164 48.0273ZM166.672 51.2148H165.758C165.758 50.2773 165.879 49.4336 166.121 48.6836C166.363 47.9258 166.703 47.2812 167.141 46.75C167.578 46.2109 168.098 45.8008 168.699 45.5195C169.309 45.2305 169.988 45.0859 170.738 45.0859C171.332 45.0859 171.875 45.1719 172.367 45.3438C172.859 45.5156 173.281 45.7891 173.633 46.1641C173.992 46.5391 174.266 47.0352 174.453 47.6523C174.648 48.2695 174.746 49.0234 174.746 49.9141V58H171.348V49.9023C171.348 49.3398 171.27 48.9023 171.113 48.5898C170.957 48.2773 170.727 48.0586 170.422 47.9336C170.125 47.8008 169.758 47.7344 169.32 47.7344C168.867 47.7344 168.473 47.8242 168.137 48.0039C167.809 48.1836 167.535 48.4336 167.316 48.7539C167.105 49.0664 166.945 49.4336 166.836 49.8555C166.727 50.2773 166.672 50.7305 166.672 51.2148ZM184.168 54.4961C184.168 54.2539 184.098 54.0352 183.957 53.8398C183.816 53.6445 183.555 53.4648 183.172 53.3008C182.797 53.1289 182.254 52.9727 181.543 52.832C180.902 52.6914 180.305 52.5156 179.75 52.3047C179.203 52.0859 178.727 51.8242 178.32 51.5195C177.922 51.2148 177.609 50.8555 177.383 50.4414C177.156 50.0195 177.043 49.5391 177.043 49C177.043 48.4688 177.156 47.9688 177.383 47.5C177.617 47.0312 177.949 46.6172 178.379 46.2578C178.816 45.8906 179.348 45.6055 179.973 45.4023C180.605 45.1914 181.316 45.0859 182.105 45.0859C183.207 45.0859 184.152 45.2617 184.941 45.6133C185.738 45.9648 186.348 46.4492 186.77 47.0664C187.199 47.6758 187.414 48.3711 187.414 49.1523H184.039C184.039 48.8242 183.969 48.5312 183.828 48.2734C183.695 48.0078 183.484 47.8008 183.195 47.6523C182.914 47.4961 182.547 47.418 182.094 47.418C181.719 47.418 181.395 47.4844 181.121 47.6172C180.848 47.7422 180.637 47.9141 180.488 48.1328C180.348 48.3438 180.277 48.5781 180.277 48.8359C180.277 49.0312 180.316 49.207 180.395 49.3633C180.48 49.5117 180.617 49.6484 180.805 49.7734C180.992 49.8984 181.234 50.0156 181.531 50.125C181.836 50.2266 182.211 50.3203 182.656 50.4062C183.57 50.5938 184.387 50.8398 185.105 51.1445C185.824 51.4414 186.395 51.8477 186.816 52.3633C187.238 52.8711 187.449 53.5391 187.449 54.3672C187.449 54.9297 187.324 55.4453 187.074 55.9141C186.824 56.3828 186.465 56.793 185.996 57.1445C185.527 57.4883 184.965 57.7578 184.309 57.9531C183.66 58.1406 182.93 58.2344 182.117 58.2344C180.938 58.2344 179.938 58.0234 179.117 57.6016C178.305 57.1797 177.688 56.6445 177.266 55.9961C176.852 55.3398 176.645 54.668 176.645 53.9805H179.844C179.859 54.4414 179.977 54.8125 180.195 55.0938C180.422 55.375 180.707 55.5781 181.051 55.7031C181.402 55.8281 181.781 55.8906 182.188 55.8906C182.625 55.8906 182.988 55.832 183.277 55.7148C183.566 55.5898 183.785 55.4258 183.934 55.2227C184.09 55.0117 184.168 54.7695 184.168 54.4961ZM195.477 58.2344C194.492 58.2344 193.609 58.0781 192.828 57.7656C192.047 57.4453 191.383 57.0039 190.836 56.4414C190.297 55.8789 189.883 55.2266 189.594 54.4844C189.305 53.7344 189.16 52.9375 189.16 52.0938V51.625C189.16 50.6641 189.297 49.7852 189.57 48.9883C189.844 48.1914 190.234 47.5 190.742 46.9141C191.258 46.3281 191.883 45.8789 192.617 45.5664C193.352 45.2461 194.18 45.0859 195.102 45.0859C196 45.0859 196.797 45.2344 197.492 45.5312C198.188 45.8281 198.77 46.25 199.238 46.7969C199.715 47.3438 200.074 48 200.316 48.7656C200.559 49.5234 200.68 50.3672 200.68 51.2969V52.7031H190.602V50.4531H197.363V50.1953C197.363 49.7266 197.277 49.3086 197.105 48.9414C196.941 48.5664 196.691 48.2695 196.355 48.0508C196.02 47.832 195.59 47.7227 195.066 47.7227C194.621 47.7227 194.238 47.8203 193.918 48.0156C193.598 48.2109 193.336 48.4844 193.133 48.8359C192.938 49.1875 192.789 49.6016 192.688 50.0781C192.594 50.5469 192.547 51.0625 192.547 51.625V52.0938C192.547 52.6016 192.617 53.0703 192.758 53.5C192.906 53.9297 193.113 54.3008 193.379 54.6133C193.652 54.9258 193.98 55.168 194.363 55.3398C194.754 55.5117 195.195 55.5977 195.688 55.5977C196.297 55.5977 196.863 55.4805 197.387 55.2461C197.918 55.0039 198.375 54.6406 198.758 54.1562L200.398 55.9375C200.133 56.3203 199.77 56.6875 199.309 57.0391C198.855 57.3906 198.309 57.6797 197.668 57.9062C197.027 58.125 196.297 58.2344 195.477 58.2344ZM218.68 52.3398H222.184C222.113 53.4883 221.797 54.5078 221.234 55.3984C220.68 56.2891 219.902 56.9844 218.902 57.4844C217.91 57.9844 216.715 58.2344 215.316 58.2344C214.223 58.2344 213.242 58.0469 212.375 57.6719C211.508 57.2891 210.766 56.7422 210.148 56.0312C209.539 55.3203 209.074 54.4609 208.754 53.4531C208.434 52.4453 208.273 51.3164 208.273 50.0664V48.8828C208.273 47.6328 208.438 46.5039 208.766 45.4961C209.102 44.4805 209.578 43.6172 210.195 42.9062C210.82 42.1953 211.566 41.6484 212.434 41.2656C213.301 40.8828 214.27 40.6914 215.34 40.6914C216.762 40.6914 217.961 40.9492 218.938 41.4648C219.922 41.9805 220.684 42.6914 221.223 43.5977C221.77 44.5039 222.098 45.5352 222.207 46.6914H218.691C218.652 46.0039 218.516 45.4219 218.281 44.9453C218.047 44.4609 217.691 44.0977 217.215 43.8555C216.746 43.6055 216.121 43.4805 215.34 43.4805C214.754 43.4805 214.242 43.5898 213.805 43.8086C213.367 44.0273 213 44.3594 212.703 44.8047C212.406 45.25 212.184 45.8125 212.035 46.4922C211.895 47.1641 211.824 47.9531 211.824 48.8594V50.0664C211.824 50.9492 211.891 51.7266 212.023 52.3984C212.156 53.0625 212.359 53.625 212.633 54.0859C212.914 54.5391 213.273 54.8828 213.711 55.1172C214.156 55.3438 214.691 55.457 215.316 55.457C216.051 55.457 216.656 55.3398 217.133 55.1055C217.609 54.8711 217.973 54.5234 218.223 54.0625C218.48 53.6016 218.633 53.0273 218.68 52.3398ZM230.117 58.2344C229.133 58.2344 228.25 58.0781 227.469 57.7656C226.688 57.4453 226.023 57.0039 225.477 56.4414C224.938 55.8789 224.523 55.2266 224.234 54.4844C223.945 53.7344 223.801 52.9375 223.801 52.0938V51.625C223.801 50.6641 223.938 49.7852 224.211 48.9883C224.484 48.1914 224.875 47.5 225.383 46.9141C225.898 46.3281 226.523 45.8789 227.258 45.5664C227.992 45.2461 228.82 45.0859 229.742 45.0859C230.641 45.0859 231.438 45.2344 232.133 45.5312C232.828 45.8281 233.41 46.25 233.879 46.7969C234.355 47.3438 234.715 48 234.957 48.7656C235.199 49.5234 235.32 50.3672 235.32 51.2969V52.7031H225.242V50.4531H232.004V50.1953C232.004 49.7266 231.918 49.3086 231.746 48.9414C231.582 48.5664 231.332 48.2695 230.996 48.0508C230.66 47.832 230.23 47.7227 229.707 47.7227C229.262 47.7227 228.879 47.8203 228.559 48.0156C228.238 48.2109 227.977 48.4844 227.773 48.8359C227.578 49.1875 227.43 49.6016 227.328 50.0781C227.234 50.5469 227.188 51.0625 227.188 51.625V52.0938C227.188 52.6016 227.258 53.0703 227.398 53.5C227.547 53.9297 227.754 54.3008 228.02 54.6133C228.293 54.9258 228.621 55.168 229.004 55.3398C229.395 55.5117 229.836 55.5977 230.328 55.5977C230.938 55.5977 231.504 55.4805 232.027 55.2461C232.559 55.0039 233.016 54.6406 233.398 54.1562L235.039 55.9375C234.773 56.3203 234.41 56.6875 233.949 57.0391C233.496 57.3906 232.949 57.6797 232.309 57.9062C231.668 58.125 230.938 58.2344 230.117 58.2344ZM240.547 48.0273V58H237.172V45.3203H240.336L240.547 48.0273ZM240.055 51.2148H239.141C239.141 50.2773 239.262 49.4336 239.504 48.6836C239.746 47.9258 240.086 47.2812 240.523 46.75C240.961 46.2109 241.48 45.8008 242.082 45.5195C242.691 45.2305 243.371 45.0859 244.121 45.0859C244.715 45.0859 245.258 45.1719 245.75 45.3438C246.242 45.5156 246.664 45.7891 247.016 46.1641C247.375 46.5391 247.648 47.0352 247.836 47.6523C248.031 48.2695 248.129 49.0234 248.129 49.9141V58H244.73V49.9023C244.73 49.3398 244.652 48.9023 244.496 48.5898C244.34 48.2773 244.109 48.0586 243.805 47.9336C243.508 47.8008 243.141 47.7344 242.703 47.7344C242.25 47.7344 241.855 47.8242 241.52 48.0039C241.191 48.1836 240.918 48.4336 240.699 48.7539C240.488 49.0664 240.328 49.4336 240.219 49.8555C240.109 50.2773 240.055 50.7305 240.055 51.2148ZM256.906 45.3203V47.7109H249.523V45.3203H256.906ZM251.352 42.1914H254.727V54.1797C254.727 54.5469 254.773 54.8281 254.867 55.0234C254.969 55.2188 255.117 55.3555 255.312 55.4336C255.508 55.5039 255.754 55.5391 256.051 55.5391C256.262 55.5391 256.449 55.5312 256.613 55.5156C256.785 55.4922 256.93 55.4688 257.047 55.4453L257.059 57.9297C256.77 58.0234 256.457 58.0977 256.121 58.1523C255.785 58.207 255.414 58.2344 255.008 58.2344C254.266 58.2344 253.617 58.1133 253.062 57.8711C252.516 57.6211 252.094 57.2227 251.797 56.6758C251.5 56.1289 251.352 55.4102 251.352 54.5195V42.1914ZM264.664 58.2344C263.68 58.2344 262.797 58.0781 262.016 57.7656C261.234 57.4453 260.57 57.0039 260.023 56.4414C259.484 55.8789 259.07 55.2266 258.781 54.4844C258.492 53.7344 258.348 52.9375 258.348 52.0938V51.625C258.348 50.6641 258.484 49.7852 258.758 48.9883C259.031 48.1914 259.422 47.5 259.93 46.9141C260.445 46.3281 261.07 45.8789 261.805 45.5664C262.539 45.2461 263.367 45.0859 264.289 45.0859C265.188 45.0859 265.984 45.2344 266.68 45.5312C267.375 45.8281 267.957 46.25 268.426 46.7969C268.902 47.3438 269.262 48 269.504 48.7656C269.746 49.5234 269.867 50.3672 269.867 51.2969V52.7031H259.789V50.4531H266.551V50.1953C266.551 49.7266 266.465 49.3086 266.293 48.9414C266.129 48.5664 265.879 48.2695 265.543 48.0508C265.207 47.832 264.777 47.7227 264.254 47.7227C263.809 47.7227 263.426 47.8203 263.105 48.0156C262.785 48.2109 262.523 48.4844 262.32 48.8359C262.125 49.1875 261.977 49.6016 261.875 50.0781C261.781 50.5469 261.734 51.0625 261.734 51.625V52.0938C261.734 52.6016 261.805 53.0703 261.945 53.5C262.094 53.9297 262.301 54.3008 262.566 54.6133C262.84 54.9258 263.168 55.168 263.551 55.3398C263.941 55.5117 264.383 55.5977 264.875 55.5977C265.484 55.5977 266.051 55.4805 266.574 55.2461C267.105 55.0039 267.562 54.6406 267.945 54.1562L269.586 55.9375C269.32 56.3203 268.957 56.6875 268.496 57.0391C268.043 57.3906 267.496 57.6797 266.855 57.9062C266.215 58.125 265.484 58.2344 264.664 58.2344ZM275.164 48.0859V58H271.789V45.3203H274.965L275.164 48.0859ZM278.984 45.2383L278.926 48.3672C278.762 48.3438 278.562 48.3242 278.328 48.3086C278.102 48.2852 277.895 48.2734 277.707 48.2734C277.23 48.2734 276.816 48.3359 276.465 48.4609C276.121 48.5781 275.832 48.7539 275.598 48.9883C275.371 49.2227 275.199 49.5078 275.082 49.8438C274.973 50.1797 274.91 50.5625 274.895 50.9922L274.215 50.7812C274.215 49.9609 274.297 49.207 274.461 48.5195C274.625 47.8242 274.863 47.2188 275.176 46.7031C275.496 46.1875 275.887 45.7891 276.348 45.5078C276.809 45.2266 277.336 45.0859 277.93 45.0859C278.117 45.0859 278.309 45.1016 278.504 45.1328C278.699 45.1562 278.859 45.1914 278.984 45.2383Z" fill="white" fill-opacity="0.5"/>
</g>
<g style="mix-blend-mode:exclusion">
<path d="M115.994 98.708V104.641H99.5806V98.708H115.994ZM102.151 86.0078V118H94.439V86.0078H102.151ZM121.18 86.0078V118H113.489V86.0078H121.18ZM124.805 106.354V105.893C124.805 104.15 125.054 102.546 125.552 101.081C126.05 99.6016 126.783 98.3198 127.75 97.2358C128.716 96.1519 129.91 95.3096 131.331 94.709C132.752 94.0938 134.393 93.7861 136.253 93.7861C138.128 93.7861 139.776 94.0938 141.197 94.709C142.632 95.3096 143.833 96.1519 144.8 97.2358C145.767 98.3198 146.5 99.6016 146.998 101.081C147.496 102.546 147.745 104.15 147.745 105.893V106.354C147.745 108.083 147.496 109.687 146.998 111.167C146.5 112.631 145.767 113.913 144.8 115.012C143.833 116.096 142.64 116.938 141.219 117.539C139.798 118.139 138.157 118.439 136.297 118.439C134.437 118.439 132.789 118.139 131.353 117.539C129.917 116.938 128.716 116.096 127.75 115.012C126.783 113.913 126.05 112.631 125.552 111.167C125.054 109.687 124.805 108.083 124.805 106.354ZM132.21 105.893V106.354C132.21 107.248 132.276 108.083 132.408 108.859C132.54 109.636 132.759 110.317 133.067 110.903C133.375 111.474 133.792 111.921 134.319 112.243C134.847 112.565 135.506 112.727 136.297 112.727C137.073 112.727 137.718 112.565 138.23 112.243C138.758 111.921 139.175 111.474 139.483 110.903C139.791 110.317 140.01 109.636 140.142 108.859C140.274 108.083 140.34 107.248 140.34 106.354V105.893C140.34 105.029 140.274 104.216 140.142 103.454C140.01 102.678 139.791 101.997 139.483 101.411C139.175 100.81 138.758 100.341 138.23 100.004C137.703 99.6675 137.044 99.499 136.253 99.499C135.477 99.499 134.825 99.6675 134.297 100.004C133.785 100.341 133.375 100.81 133.067 101.411C132.759 101.997 132.54 102.678 132.408 103.454C132.276 104.216 132.21 105.029 132.21 105.893ZM158.27 110.925L162.664 94.2256H167.3L165.652 102.597L161.302 118H157.588L158.27 110.925ZM156.534 94.2256L159.258 110.793L159.566 118H155.062L149.437 94.2256H156.534ZM171.211 110.441L173.958 94.2256H181.055L175.474 118H170.97L171.211 110.441ZM167.828 94.2256L172.266 110.881L172.947 118H169.19L164.927 102.641L163.345 94.2256H167.828ZM209.466 86.0078V118H201.753V86.0078H209.466ZM219.09 86.0078V91.9624H192.349V86.0078H219.09ZM216.475 106.354V105.893C216.475 104.15 216.724 102.546 217.222 101.081C217.72 99.6016 218.453 98.3198 219.419 97.2358C220.386 96.1519 221.58 95.3096 223.001 94.709C224.422 94.0938 226.062 93.7861 227.923 93.7861C229.798 93.7861 231.446 94.0938 232.867 94.709C234.302 95.3096 235.503 96.1519 236.47 97.2358C237.437 98.3198 238.169 99.6016 238.667 101.081C239.166 102.546 239.415 104.15 239.415 105.893V106.354C239.415 108.083 239.166 109.687 238.667 111.167C238.169 112.631 237.437 113.913 236.47 115.012C235.503 116.096 234.31 116.938 232.889 117.539C231.468 118.139 229.827 118.439 227.967 118.439C226.106 118.439 224.458 118.139 223.023 117.539C221.587 116.938 220.386 116.096 219.419 115.012C218.453 113.913 217.72 112.631 217.222 111.167C216.724 109.687 216.475 108.083 216.475 106.354ZM223.88 105.893V106.354C223.88 107.248 223.946 108.083 224.078 108.859C224.209 109.636 224.429 110.317 224.737 110.903C225.044 111.474 225.462 111.921 225.989 112.243C226.517 112.565 227.176 112.727 227.967 112.727C228.743 112.727 229.388 112.565 229.9 112.243C230.428 111.921 230.845 111.474 231.153 110.903C231.46 110.317 231.68 109.636 231.812 108.859C231.944 108.083 232.01 107.248 232.01 106.354V105.893C232.01 105.029 231.944 104.216 231.812 103.454C231.68 102.678 231.46 101.997 231.153 101.411C230.845 100.81 230.428 100.341 229.9 100.004C229.373 99.6675 228.714 99.499 227.923 99.499C227.146 99.499 226.495 99.6675 225.967 100.004C225.455 100.341 225.044 100.81 224.737 101.411C224.429 101.997 224.209 102.678 224.078 103.454C223.946 104.216 223.88 105.029 223.88 105.893ZM254.268 86.0078H266.858C269.319 86.0078 271.458 86.374 273.274 87.1064C275.091 87.8389 276.49 88.9229 277.471 90.3584C278.467 91.7939 278.965 93.5664 278.965 95.6758C278.965 97.5068 278.68 99.0376 278.108 100.268C277.537 101.499 276.739 102.517 275.713 103.322C274.703 104.113 273.523 104.765 272.176 105.278L269.649 106.706H259.08L259.036 100.751H266.858C267.84 100.751 268.653 100.576 269.297 100.224C269.942 99.8726 270.425 99.3745 270.748 98.73C271.084 98.0708 271.253 97.2871 271.253 96.3789C271.253 95.4561 271.084 94.665 270.748 94.0059C270.411 93.3467 269.913 92.8413 269.253 92.4897C268.609 92.1382 267.811 91.9624 266.858 91.9624H261.98V118H254.268V86.0078ZM271.78 118L264.705 103.85L272.879 103.806L280.042 117.67V118H271.78ZM297.159 112.221V94.2256H304.585V118H297.642L297.159 112.221ZM297.862 107.387L299.795 107.343C299.795 108.94 299.605 110.419 299.224 111.782C298.843 113.129 298.279 114.301 297.532 115.297C296.8 116.293 295.892 117.07 294.808 117.626C293.738 118.168 292.5 118.439 291.094 118.439C289.922 118.439 288.846 118.278 287.864 117.956C286.897 117.619 286.062 117.099 285.359 116.396C284.656 115.678 284.107 114.763 283.711 113.649C283.331 112.521 283.14 111.174 283.14 109.606V94.2256H290.545V109.65C290.545 110.178 290.611 110.632 290.743 111.013C290.875 111.394 291.065 111.716 291.314 111.979C291.563 112.229 291.871 112.419 292.237 112.551C292.618 112.668 293.05 112.727 293.533 112.727C294.646 112.727 295.518 112.492 296.148 112.023C296.778 111.555 297.217 110.917 297.466 110.112C297.73 109.306 297.862 108.398 297.862 107.387ZM315.945 99.3013V118H308.541V94.2256H315.484L315.945 99.3013ZM315.066 105.3L313.331 105.344C313.331 103.527 313.55 101.909 313.99 100.488C314.429 99.0522 315.052 97.8364 315.857 96.8403C316.663 95.8442 317.623 95.0898 318.736 94.5771C319.864 94.0498 321.116 93.7861 322.493 93.7861C323.592 93.7861 324.595 93.9473 325.503 94.2695C326.426 94.5918 327.217 95.1118 327.876 95.8296C328.55 96.5474 329.063 97.4995 329.415 98.686C329.781 99.8579 329.964 101.308 329.964 103.037V118H322.515V103.015C322.515 102.062 322.383 101.337 322.12 100.839C321.856 100.327 321.475 99.9751 320.977 99.7847C320.479 99.5942 319.871 99.499 319.153 99.499C318.392 99.499 317.747 99.6455 317.22 99.9385C316.692 100.231 316.268 100.642 315.945 101.169C315.638 101.682 315.411 102.29 315.264 102.993C315.132 103.696 315.066 104.465 315.066 105.3ZM345.85 107.871H339.544C339.544 106.582 339.632 105.446 339.808 104.465C339.998 103.469 340.32 102.575 340.774 101.784C341.229 100.993 341.844 100.261 342.62 99.5869C343.309 99.0156 343.902 98.4663 344.4 97.939C344.898 97.4116 345.279 96.877 345.542 96.335C345.806 95.793 345.938 95.2144 345.938 94.5991C345.938 93.8374 345.828 93.2148 345.608 92.7314C345.403 92.248 345.088 91.8892 344.664 91.6548C344.253 91.4058 343.733 91.2812 343.104 91.2812C342.591 91.2812 342.107 91.4058 341.653 91.6548C341.214 91.9038 340.855 92.292 340.577 92.8193C340.298 93.332 340.145 94.0132 340.115 94.8628H332.667C332.71 92.6802 333.194 90.9077 334.117 89.5454C335.054 88.1685 336.299 87.165 337.852 86.5352C339.419 85.8906 341.17 85.5684 343.104 85.5684C345.242 85.5684 347.081 85.8979 348.619 86.5571C350.157 87.2163 351.336 88.1978 352.156 89.5015C352.977 90.7905 353.387 92.3799 353.387 94.2695C353.387 95.5293 353.145 96.6279 352.662 97.5654C352.193 98.4883 351.556 99.3525 350.75 100.158C349.959 100.949 349.073 101.799 348.091 102.707C347.242 103.454 346.663 104.216 346.355 104.992C346.048 105.754 345.879 106.713 345.85 107.871ZM338.643 114.55C338.643 113.496 339.024 112.617 339.786 111.914C340.547 111.196 341.536 110.837 342.752 110.837C343.968 110.837 344.957 111.196 345.718 111.914C346.48 112.617 346.861 113.496 346.861 114.55C346.861 115.605 346.48 116.491 345.718 117.209C344.957 117.912 343.968 118.264 342.752 118.264C341.536 118.264 340.547 117.912 339.786 117.209C339.024 116.491 338.643 115.605 338.643 114.55Z" fill="white"/>
</g>
<path d="M1363 15C1363 6.71573 1356.28 0 1348 0H1134V167H1348C1356.28 167 1363 160.284 1363 152V15Z" fill="#006D77"/>
<path d="M1260.77 81.3079C1263.96 81.3079 1267.09 82.2553 1269.74 84.0303C1272.4 85.8053 1274.47 88.3282 1275.69 91.2799C1276.92 94.2316 1277.24 97.4796 1276.61 100.613C1275.99 103.747 1274.45 106.625 1272.19 108.884C1269.93 111.143 1267.05 112.682 1263.92 113.305C1260.79 113.928 1257.54 113.608 1254.59 112.386C1251.64 111.163 1249.11 109.093 1247.34 106.436C1245.56 103.78 1244.62 100.657 1244.62 97.4617C1244.62 93.1774 1246.32 89.0686 1249.35 86.0392C1252.38 83.0098 1256.48 81.3079 1260.77 81.3079ZM1260.77 75.9233C1256.51 75.9233 1252.35 77.1865 1248.8 79.5532C1245.26 81.9198 1242.5 85.2837 1240.87 89.2193C1239.24 93.1549 1238.81 97.4856 1239.64 101.664C1240.48 105.842 1242.53 109.679 1245.54 112.692C1248.55 115.704 1252.39 117.755 1256.57 118.586C1260.75 119.417 1265.08 118.991 1269.01 117.361C1272.95 115.73 1276.31 112.97 1278.68 109.428C1281.04 105.886 1282.31 101.722 1282.31 97.4617C1282.31 91.7493 1280.04 86.271 1276 82.2317C1271.96 78.1925 1266.48 75.9233 1260.77 75.9233Z" fill="white"/>
<path d="M1274.23 49H1220.38C1218.96 49 1217.59 49.5673 1216.58 50.5771C1215.57 51.5869 1215 52.9565 1215 54.3846V108.231C1215 109.659 1215.57 111.028 1216.58 112.038C1217.59 113.048 1218.96 113.615 1220.38 113.615H1231.15V108.231H1220.38V70.5384H1279.62V54.3846C1279.62 52.9565 1279.05 51.5869 1278.04 50.5771C1277.03 49.5673 1275.66 49 1274.23 49ZM1220.38 65.1538V54.3846H1274.23V65.1538H1220.38Z" fill="white"/>
<path d="M1255.39 89.3849V105.539L1268.85 97.4618L1255.39 89.3849Z" fill="white"/>
</svg>
