<svg width="1363" height="167" viewBox="0 0 1363 167" fill="none" xmlns="http://www.w3.org/2000/svg">
<rect width="1363" height="167" rx="15" fill="#F0F0F0"/>
<path d="M0 15C0 6.71573 6.71573 0 15 0H37V167H15C6.71573 167 0 160.284 0 152V15Z" fill="#424241"/>
<path d="M100.906 50.9219L93.3945 48.2383V45.0859L103.602 49.375V51.6367L100.906 50.9219ZM93.3945 53.1719L100.918 50.4297L103.602 49.7852V52.0352L93.3945 56.3242V53.1719ZM123.348 55.2578V58H114.266V55.2578H123.348ZM115.414 40.9375V58H111.898V40.9375H115.414ZM122.164 47.8867V50.5586H114.266V47.8867H122.164ZM123.336 40.9375V43.6914H114.266V40.9375H123.336ZM127.906 45.3203L130.004 49.1758L132.16 45.3203H135.758L132.172 51.5195L135.922 58H132.312L130.027 53.9219L127.742 58H124.133L127.883 51.5195L124.297 45.3203H127.906ZM140.773 47.7578V62.875H137.398V45.3203H140.527L140.773 47.7578ZM148.801 51.5195V51.7656C148.801 52.6875 148.691 53.543 148.473 54.332C148.262 55.1211 147.949 55.8086 147.535 56.3945C147.121 56.9727 146.605 57.4258 145.988 57.7539C145.379 58.0742 144.676 58.2344 143.879 58.2344C143.105 58.2344 142.434 58.0781 141.863 57.7656C141.293 57.4531 140.812 57.0156 140.422 56.4531C140.039 55.8828 139.73 55.2227 139.496 54.4727C139.262 53.7227 139.082 52.918 138.957 52.0586V51.4141C139.082 50.4922 139.262 49.6484 139.496 48.8828C139.73 48.1094 140.039 47.4414 140.422 46.8789C140.812 46.3086 141.289 45.8672 141.852 45.5547C142.422 45.2422 143.09 45.0859 143.855 45.0859C144.66 45.0859 145.367 45.2383 145.977 45.543C146.594 45.8477 147.109 46.2852 147.523 46.8555C147.945 47.4258 148.262 48.1055 148.473 48.8945C148.691 49.6836 148.801 50.5586 148.801 51.5195ZM145.414 51.7656V51.5195C145.414 50.9805 145.367 50.4844 145.273 50.0312C145.188 49.5703 145.047 49.168 144.852 48.8242C144.664 48.4805 144.414 48.2148 144.102 48.0273C143.797 47.832 143.426 47.7344 142.988 47.7344C142.527 47.7344 142.133 47.8086 141.805 47.957C141.484 48.1055 141.223 48.3203 141.02 48.6016C140.816 48.8828 140.664 49.2188 140.562 49.6094C140.461 50 140.398 50.4414 140.375 50.9336V52.5625C140.414 53.1406 140.523 53.6602 140.703 54.1211C140.883 54.5742 141.16 54.9336 141.535 55.1992C141.91 55.4648 142.402 55.5977 143.012 55.5977C143.457 55.5977 143.832 55.5 144.137 55.3047C144.441 55.1016 144.688 54.8242 144.875 54.4727C145.07 54.1211 145.207 53.7148 145.285 53.2539C145.371 52.793 145.414 52.2969 145.414 51.7656ZM156.734 58.2344C155.75 58.2344 154.867 58.0781 154.086 57.7656C153.305 57.4453 152.641 57.0039 152.094 56.4414C151.555 55.8789 151.141 55.2266 150.852 54.4844C150.562 53.7344 150.418 52.9375 150.418 52.0938V51.625C150.418 50.6641 150.555 49.7852 150.828 48.9883C151.102 48.1914 151.492 47.5 152 46.9141C152.516 46.3281 153.141 45.8789 153.875 45.5664C154.609 45.2461 155.438 45.0859 156.359 45.0859C157.258 45.0859 158.055 45.2344 158.75 45.5312C159.445 45.8281 160.027 46.25 160.496 46.7969C160.973 47.3438 161.332 48 161.574 48.7656C161.816 49.5234 161.938 50.3672 161.938 51.2969V52.7031H151.859V50.4531H158.621V50.1953C158.621 49.7266 158.535 49.3086 158.363 48.9414C158.199 48.5664 157.949 48.2695 157.613 48.0508C157.277 47.832 156.848 47.7227 156.324 47.7227C155.879 47.7227 155.496 47.8203 155.176 48.0156C154.855 48.2109 154.594 48.4844 154.391 48.8359C154.195 49.1875 154.047 49.6016 153.945 50.0781C153.852 50.5469 153.805 51.0625 153.805 51.625V52.0938C153.805 52.6016 153.875 53.0703 154.016 53.5C154.164 53.9297 154.371 54.3008 154.637 54.6133C154.91 54.9258 155.238 55.168 155.621 55.3398C156.012 55.5117 156.453 55.5977 156.945 55.5977C157.555 55.5977 158.121 55.4805 158.645 55.2461C159.176 55.0039 159.633 54.6406 160.016 54.1562L161.656 55.9375C161.391 56.3203 161.027 56.6875 160.566 57.0391C160.113 57.3906 159.566 57.6797 158.926 57.9062C158.285 58.125 157.555 58.2344 156.734 58.2344ZM167.164 48.0273V58H163.789V45.3203H166.953L167.164 48.0273ZM166.672 51.2148H165.758C165.758 50.2773 165.879 49.4336 166.121 48.6836C166.363 47.9258 166.703 47.2812 167.141 46.75C167.578 46.2109 168.098 45.8008 168.699 45.5195C169.309 45.2305 169.988 45.0859 170.738 45.0859C171.332 45.0859 171.875 45.1719 172.367 45.3438C172.859 45.5156 173.281 45.7891 173.633 46.1641C173.992 46.5391 174.266 47.0352 174.453 47.6523C174.648 48.2695 174.746 49.0234 174.746 49.9141V58H171.348V49.9023C171.348 49.3398 171.27 48.9023 171.113 48.5898C170.957 48.2773 170.727 48.0586 170.422 47.9336C170.125 47.8008 169.758 47.7344 169.32 47.7344C168.867 47.7344 168.473 47.8242 168.137 48.0039C167.809 48.1836 167.535 48.4336 167.316 48.7539C167.105 49.0664 166.945 49.4336 166.836 49.8555C166.727 50.2773 166.672 50.7305 166.672 51.2148ZM184.168 54.4961C184.168 54.2539 184.098 54.0352 183.957 53.8398C183.816 53.6445 183.555 53.4648 183.172 53.3008C182.797 53.1289 182.254 52.9727 181.543 52.832C180.902 52.6914 180.305 52.5156 179.75 52.3047C179.203 52.0859 178.727 51.8242 178.32 51.5195C177.922 51.2148 177.609 50.8555 177.383 50.4414C177.156 50.0195 177.043 49.5391 177.043 49C177.043 48.4688 177.156 47.9688 177.383 47.5C177.617 47.0312 177.949 46.6172 178.379 46.2578C178.816 45.8906 179.348 45.6055 179.973 45.4023C180.605 45.1914 181.316 45.0859 182.105 45.0859C183.207 45.0859 184.152 45.2617 184.941 45.6133C185.738 45.9648 186.348 46.4492 186.77 47.0664C187.199 47.6758 187.414 48.3711 187.414 49.1523H184.039C184.039 48.8242 183.969 48.5312 183.828 48.2734C183.695 48.0078 183.484 47.8008 183.195 47.6523C182.914 47.4961 182.547 47.418 182.094 47.418C181.719 47.418 181.395 47.4844 181.121 47.6172C180.848 47.7422 180.637 47.9141 180.488 48.1328C180.348 48.3438 180.277 48.5781 180.277 48.8359C180.277 49.0312 180.316 49.207 180.395 49.3633C180.48 49.5117 180.617 49.6484 180.805 49.7734C180.992 49.8984 181.234 50.0156 181.531 50.125C181.836 50.2266 182.211 50.3203 182.656 50.4062C183.57 50.5938 184.387 50.8398 185.105 51.1445C185.824 51.4414 186.395 51.8477 186.816 52.3633C187.238 52.8711 187.449 53.5391 187.449 54.3672C187.449 54.9297 187.324 55.4453 187.074 55.9141C186.824 56.3828 186.465 56.793 185.996 57.1445C185.527 57.4883 184.965 57.7578 184.309 57.9531C183.66 58.1406 182.93 58.2344 182.117 58.2344C180.938 58.2344 179.938 58.0234 179.117 57.6016C178.305 57.1797 177.688 56.6445 177.266 55.9961C176.852 55.3398 176.645 54.668 176.645 53.9805H179.844C179.859 54.4414 179.977 54.8125 180.195 55.0938C180.422 55.375 180.707 55.5781 181.051 55.7031C181.402 55.8281 181.781 55.8906 182.188 55.8906C182.625 55.8906 182.988 55.832 183.277 55.7148C183.566 55.5898 183.785 55.4258 183.934 55.2227C184.09 55.0117 184.168 54.7695 184.168 54.4961ZM195.477 58.2344C194.492 58.2344 193.609 58.0781 192.828 57.7656C192.047 57.4453 191.383 57.0039 190.836 56.4414C190.297 55.8789 189.883 55.2266 189.594 54.4844C189.305 53.7344 189.16 52.9375 189.16 52.0938V51.625C189.16 50.6641 189.297 49.7852 189.57 48.9883C189.844 48.1914 190.234 47.5 190.742 46.9141C191.258 46.3281 191.883 45.8789 192.617 45.5664C193.352 45.2461 194.18 45.0859 195.102 45.0859C196 45.0859 196.797 45.2344 197.492 45.5312C198.188 45.8281 198.77 46.25 199.238 46.7969C199.715 47.3438 200.074 48 200.316 48.7656C200.559 49.5234 200.68 50.3672 200.68 51.2969V52.7031H190.602V50.4531H197.363V50.1953C197.363 49.7266 197.277 49.3086 197.105 48.9414C196.941 48.5664 196.691 48.2695 196.355 48.0508C196.02 47.832 195.59 47.7227 195.066 47.7227C194.621 47.7227 194.238 47.8203 193.918 48.0156C193.598 48.2109 193.336 48.4844 193.133 48.8359C192.938 49.1875 192.789 49.6016 192.688 50.0781C192.594 50.5469 192.547 51.0625 192.547 51.625V52.0938C192.547 52.6016 192.617 53.0703 192.758 53.5C192.906 53.9297 193.113 54.3008 193.379 54.6133C193.652 54.9258 193.98 55.168 194.363 55.3398C194.754 55.5117 195.195 55.5977 195.688 55.5977C196.297 55.5977 196.863 55.4805 197.387 55.2461C197.918 55.0039 198.375 54.6406 198.758 54.1562L200.398 55.9375C200.133 56.3203 199.77 56.6875 199.309 57.0391C198.855 57.3906 198.309 57.6797 197.668 57.9062C197.027 58.125 196.297 58.2344 195.477 58.2344ZM218.68 52.3398H222.184C222.113 53.4883 221.797 54.5078 221.234 55.3984C220.68 56.2891 219.902 56.9844 218.902 57.4844C217.91 57.9844 216.715 58.2344 215.316 58.2344C214.223 58.2344 213.242 58.0469 212.375 57.6719C211.508 57.2891 210.766 56.7422 210.148 56.0312C209.539 55.3203 209.074 54.4609 208.754 53.4531C208.434 52.4453 208.273 51.3164 208.273 50.0664V48.8828C208.273 47.6328 208.438 46.5039 208.766 45.4961C209.102 44.4805 209.578 43.6172 210.195 42.9062C210.82 42.1953 211.566 41.6484 212.434 41.2656C213.301 40.8828 214.27 40.6914 215.34 40.6914C216.762 40.6914 217.961 40.9492 218.938 41.4648C219.922 41.9805 220.684 42.6914 221.223 43.5977C221.77 44.5039 222.098 45.5352 222.207 46.6914H218.691C218.652 46.0039 218.516 45.4219 218.281 44.9453C218.047 44.4609 217.691 44.0977 217.215 43.8555C216.746 43.6055 216.121 43.4805 215.34 43.4805C214.754 43.4805 214.242 43.5898 213.805 43.8086C213.367 44.0273 213 44.3594 212.703 44.8047C212.406 45.25 212.184 45.8125 212.035 46.4922C211.895 47.1641 211.824 47.9531 211.824 48.8594V50.0664C211.824 50.9492 211.891 51.7266 212.023 52.3984C212.156 53.0625 212.359 53.625 212.633 54.0859C212.914 54.5391 213.273 54.8828 213.711 55.1172C214.156 55.3438 214.691 55.457 215.316 55.457C216.051 55.457 216.656 55.3398 217.133 55.1055C217.609 54.8711 217.973 54.5234 218.223 54.0625C218.48 53.6016 218.633 53.0273 218.68 52.3398ZM230.117 58.2344C229.133 58.2344 228.25 58.0781 227.469 57.7656C226.688 57.4453 226.023 57.0039 225.477 56.4414C224.938 55.8789 224.523 55.2266 224.234 54.4844C223.945 53.7344 223.801 52.9375 223.801 52.0938V51.625C223.801 50.6641 223.938 49.7852 224.211 48.9883C224.484 48.1914 224.875 47.5 225.383 46.9141C225.898 46.3281 226.523 45.8789 227.258 45.5664C227.992 45.2461 228.82 45.0859 229.742 45.0859C230.641 45.0859 231.438 45.2344 232.133 45.5312C232.828 45.8281 233.41 46.25 233.879 46.7969C234.355 47.3438 234.715 48 234.957 48.7656C235.199 49.5234 235.32 50.3672 235.32 51.2969V52.7031H225.242V50.4531H232.004V50.1953C232.004 49.7266 231.918 49.3086 231.746 48.9414C231.582 48.5664 231.332 48.2695 230.996 48.0508C230.66 47.832 230.23 47.7227 229.707 47.7227C229.262 47.7227 228.879 47.8203 228.559 48.0156C228.238 48.2109 227.977 48.4844 227.773 48.8359C227.578 49.1875 227.43 49.6016 227.328 50.0781C227.234 50.5469 227.188 51.0625 227.188 51.625V52.0938C227.188 52.6016 227.258 53.0703 227.398 53.5C227.547 53.9297 227.754 54.3008 228.02 54.6133C228.293 54.9258 228.621 55.168 229.004 55.3398C229.395 55.5117 229.836 55.5977 230.328 55.5977C230.938 55.5977 231.504 55.4805 232.027 55.2461C232.559 55.0039 233.016 54.6406 233.398 54.1562L235.039 55.9375C234.773 56.3203 234.41 56.6875 233.949 57.0391C233.496 57.3906 232.949 57.6797 232.309 57.9062C231.668 58.125 230.938 58.2344 230.117 58.2344ZM240.547 48.0273V58H237.172V45.3203H240.336L240.547 48.0273ZM240.055 51.2148H239.141C239.141 50.2773 239.262 49.4336 239.504 48.6836C239.746 47.9258 240.086 47.2812 240.523 46.75C240.961 46.2109 241.48 45.8008 242.082 45.5195C242.691 45.2305 243.371 45.0859 244.121 45.0859C244.715 45.0859 245.258 45.1719 245.75 45.3438C246.242 45.5156 246.664 45.7891 247.016 46.1641C247.375 46.5391 247.648 47.0352 247.836 47.6523C248.031 48.2695 248.129 49.0234 248.129 49.9141V58H244.73V49.9023C244.73 49.3398 244.652 48.9023 244.496 48.5898C244.34 48.2773 244.109 48.0586 243.805 47.9336C243.508 47.8008 243.141 47.7344 242.703 47.7344C242.25 47.7344 241.855 47.8242 241.52 48.0039C241.191 48.1836 240.918 48.4336 240.699 48.7539C240.488 49.0664 240.328 49.4336 240.219 49.8555C240.109 50.2773 240.055 50.7305 240.055 51.2148ZM256.906 45.3203V47.7109H249.523V45.3203H256.906ZM251.352 42.1914H254.727V54.1797C254.727 54.5469 254.773 54.8281 254.867 55.0234C254.969 55.2188 255.117 55.3555 255.312 55.4336C255.508 55.5039 255.754 55.5391 256.051 55.5391C256.262 55.5391 256.449 55.5312 256.613 55.5156C256.785 55.4922 256.93 55.4688 257.047 55.4453L257.059 57.9297C256.77 58.0234 256.457 58.0977 256.121 58.1523C255.785 58.207 255.414 58.2344 255.008 58.2344C254.266 58.2344 253.617 58.1133 253.062 57.8711C252.516 57.6211 252.094 57.2227 251.797 56.6758C251.5 56.1289 251.352 55.4102 251.352 54.5195V42.1914ZM264.664 58.2344C263.68 58.2344 262.797 58.0781 262.016 57.7656C261.234 57.4453 260.57 57.0039 260.023 56.4414C259.484 55.8789 259.07 55.2266 258.781 54.4844C258.492 53.7344 258.348 52.9375 258.348 52.0938V51.625C258.348 50.6641 258.484 49.7852 258.758 48.9883C259.031 48.1914 259.422 47.5 259.93 46.9141C260.445 46.3281 261.07 45.8789 261.805 45.5664C262.539 45.2461 263.367 45.0859 264.289 45.0859C265.188 45.0859 265.984 45.2344 266.68 45.5312C267.375 45.8281 267.957 46.25 268.426 46.7969C268.902 47.3438 269.262 48 269.504 48.7656C269.746 49.5234 269.867 50.3672 269.867 51.2969V52.7031H259.789V50.4531H266.551V50.1953C266.551 49.7266 266.465 49.3086 266.293 48.9414C266.129 48.5664 265.879 48.2695 265.543 48.0508C265.207 47.832 264.777 47.7227 264.254 47.7227C263.809 47.7227 263.426 47.8203 263.105 48.0156C262.785 48.2109 262.523 48.4844 262.32 48.8359C262.125 49.1875 261.977 49.6016 261.875 50.0781C261.781 50.5469 261.734 51.0625 261.734 51.625V52.0938C261.734 52.6016 261.805 53.0703 261.945 53.5C262.094 53.9297 262.301 54.3008 262.566 54.6133C262.84 54.9258 263.168 55.168 263.551 55.3398C263.941 55.5117 264.383 55.5977 264.875 55.5977C265.484 55.5977 266.051 55.4805 266.574 55.2461C267.105 55.0039 267.562 54.6406 267.945 54.1562L269.586 55.9375C269.32 56.3203 268.957 56.6875 268.496 57.0391C268.043 57.3906 267.496 57.6797 266.855 57.9062C266.215 58.125 265.484 58.2344 264.664 58.2344ZM275.164 48.0859V58H271.789V45.3203H274.965L275.164 48.0859ZM278.984 45.2383L278.926 48.3672C278.762 48.3438 278.562 48.3242 278.328 48.3086C278.102 48.2852 277.895 48.2734 277.707 48.2734C277.23 48.2734 276.816 48.3359 276.465 48.4609C276.121 48.5781 275.832 48.7539 275.598 48.9883C275.371 49.2227 275.199 49.5078 275.082 49.8438C274.973 50.1797 274.91 50.5625 274.895 50.9922L274.215 50.7812C274.215 49.9609 274.297 49.207 274.461 48.5195C274.625 47.8242 274.863 47.2188 275.176 46.7031C275.496 46.1875 275.887 45.7891 276.348 45.5078C276.809 45.2266 277.336 45.0859 277.93 45.0859C278.117 45.0859 278.309 45.1016 278.504 45.1328C278.699 45.1562 278.859 45.1914 278.984 45.2383Z" fill="#888888"/>
<path d="M107.205 107.146H99.251V101.191H107.205C108.289 101.191 109.168 101.008 109.842 100.642C110.516 100.275 111.006 99.77 111.314 99.1255C111.636 98.4663 111.797 97.7266 111.797 96.9062C111.797 96.0273 111.636 95.2144 111.314 94.4673C111.006 93.7202 110.516 93.1196 109.842 92.6655C109.168 92.1968 108.289 91.9624 107.205 91.9624H102.151V118H94.439V86.0078H107.205C109.769 86.0078 111.973 86.4766 113.819 87.4141C115.679 88.3516 117.107 89.6406 118.104 91.2812C119.1 92.9072 119.598 94.7676 119.598 96.8623C119.598 98.9277 119.1 100.729 118.104 102.268C117.107 103.806 115.679 105.007 113.819 105.871C111.973 106.721 109.769 107.146 107.205 107.146ZM130.87 100.114V118H123.465V94.2256H130.386L130.87 100.114ZM137.901 94.0498L137.769 100.927C137.476 100.898 137.081 100.861 136.583 100.817C136.084 100.773 135.667 100.751 135.33 100.751C134.466 100.751 133.719 100.854 133.089 101.059C132.474 101.25 131.961 101.542 131.551 101.938C131.155 102.319 130.862 102.802 130.672 103.388C130.496 103.974 130.416 104.655 130.43 105.432L129.09 104.553C129.09 102.956 129.244 101.506 129.551 100.202C129.874 98.8838 130.328 97.7485 130.914 96.7964C131.5 95.8296 132.21 95.0898 133.045 94.5771C133.88 94.0498 134.817 93.7861 135.857 93.7861C136.224 93.7861 136.583 93.8081 136.934 93.8521C137.3 93.896 137.623 93.9619 137.901 94.0498ZM138.736 106.354V105.893C138.736 104.15 138.985 102.546 139.483 101.081C139.981 99.6016 140.713 98.3198 141.68 97.2358C142.647 96.1519 143.841 95.3096 145.262 94.709C146.683 94.0938 148.323 93.7861 150.184 93.7861C152.059 93.7861 153.707 94.0938 155.127 94.709C156.563 95.3096 157.764 96.1519 158.731 97.2358C159.698 98.3198 160.43 99.6016 160.928 101.081C161.426 102.546 161.675 104.15 161.675 105.893V106.354C161.675 108.083 161.426 109.687 160.928 111.167C160.43 112.631 159.698 113.913 158.731 115.012C157.764 116.096 156.57 116.938 155.149 117.539C153.729 118.139 152.088 118.439 150.228 118.439C148.367 118.439 146.719 118.139 145.284 117.539C143.848 116.938 142.647 116.096 141.68 115.012C140.713 113.913 139.981 112.631 139.483 111.167C138.985 109.687 138.736 108.083 138.736 106.354ZM146.141 105.893V106.354C146.141 107.248 146.207 108.083 146.338 108.859C146.47 109.636 146.69 110.317 146.998 110.903C147.305 111.474 147.723 111.921 148.25 112.243C148.777 112.565 149.437 112.727 150.228 112.727C151.004 112.727 151.648 112.565 152.161 112.243C152.688 111.921 153.106 111.474 153.414 110.903C153.721 110.317 153.941 109.636 154.073 108.859C154.205 108.083 154.271 107.248 154.271 106.354V105.893C154.271 105.029 154.205 104.216 154.073 103.454C153.941 102.678 153.721 101.997 153.414 101.411C153.106 100.81 152.688 100.341 152.161 100.004C151.634 99.6675 150.975 99.499 150.184 99.499C149.407 99.499 148.755 99.6675 148.228 100.004C147.715 100.341 147.305 100.81 146.998 101.411C146.69 101.997 146.47 102.678 146.338 103.454C146.207 104.216 146.141 105.029 146.141 105.893ZM177.496 94.2256V99.3672H163.169V94.2256H177.496ZM166.18 88.3149H173.584V110.244C173.584 110.874 173.658 111.364 173.804 111.716C173.951 112.053 174.2 112.294 174.551 112.441C174.917 112.573 175.401 112.639 176.001 112.639C176.426 112.639 176.778 112.631 177.056 112.617C177.334 112.587 177.598 112.551 177.847 112.507V117.802C177.217 118.007 176.558 118.161 175.87 118.264C175.181 118.381 174.449 118.439 173.672 118.439C172.09 118.439 170.735 118.19 169.607 117.692C168.494 117.194 167.645 116.411 167.059 115.341C166.473 114.272 166.18 112.88 166.18 111.167V88.3149ZM178.858 106.354V105.893C178.858 104.15 179.107 102.546 179.605 101.081C180.103 99.6016 180.835 98.3198 181.802 97.2358C182.769 96.1519 183.963 95.3096 185.384 94.709C186.805 94.0938 188.445 93.7861 190.306 93.7861C192.181 93.7861 193.829 94.0938 195.25 94.709C196.685 95.3096 197.886 96.1519 198.853 97.2358C199.82 98.3198 200.552 99.6016 201.05 101.081C201.548 102.546 201.797 104.15 201.797 105.893V106.354C201.797 108.083 201.548 109.687 201.05 111.167C200.552 112.631 199.82 113.913 198.853 115.012C197.886 116.096 196.692 116.938 195.271 117.539C193.851 118.139 192.21 118.439 190.35 118.439C188.489 118.439 186.841 118.139 185.406 117.539C183.97 116.938 182.769 116.096 181.802 115.012C180.835 113.913 180.103 112.631 179.605 111.167C179.107 109.687 178.858 108.083 178.858 106.354ZM186.263 105.893V106.354C186.263 107.248 186.329 108.083 186.46 108.859C186.592 109.636 186.812 110.317 187.12 110.903C187.427 111.474 187.845 111.921 188.372 112.243C188.899 112.565 189.559 112.727 190.35 112.727C191.126 112.727 191.771 112.565 192.283 112.243C192.811 111.921 193.228 111.474 193.536 110.903C193.843 110.317 194.063 109.636 194.195 108.859C194.327 108.083 194.393 107.248 194.393 106.354V105.893C194.393 105.029 194.327 104.216 194.195 103.454C194.063 102.678 193.843 101.997 193.536 101.411C193.228 100.81 192.811 100.341 192.283 100.004C191.756 99.6675 191.097 99.499 190.306 99.499C189.529 99.499 188.877 99.6675 188.35 100.004C187.837 100.341 187.427 100.81 187.12 101.411C186.812 101.997 186.592 102.678 186.46 103.454C186.329 104.216 186.263 105.029 186.263 105.893ZM217.618 94.2256V99.3672H203.292V94.2256H217.618ZM206.302 88.3149H213.707V110.244C213.707 110.874 213.78 111.364 213.926 111.716C214.073 112.053 214.322 112.294 214.673 112.441C215.04 112.573 215.523 112.639 216.124 112.639C216.548 112.639 216.9 112.631 217.178 112.617C217.457 112.587 217.72 112.551 217.969 112.507V117.802C217.339 118.007 216.68 118.161 215.992 118.264C215.303 118.381 214.571 118.439 213.794 118.439C212.212 118.439 210.857 118.19 209.729 117.692C208.616 117.194 207.767 116.411 207.181 115.341C206.595 114.272 206.302 112.88 206.302 111.167V88.3149ZM227.857 115.209L234.009 94.2256H241.963L232.405 121.538C232.2 122.138 231.929 122.783 231.592 123.471C231.255 124.174 230.794 124.841 230.208 125.471C229.622 126.101 228.868 126.613 227.945 127.009C227.037 127.404 225.909 127.602 224.561 127.602C223.843 127.602 223.316 127.565 222.979 127.492C222.657 127.434 222.159 127.324 221.485 127.163V121.867C221.675 121.867 221.836 121.867 221.968 121.867C222.115 121.867 222.276 121.867 222.452 121.867C223.243 121.867 223.873 121.787 224.341 121.625C224.825 121.464 225.191 121.23 225.44 120.922C225.704 120.615 225.909 120.241 226.055 119.802L227.857 115.209ZM226.297 94.2256L230.977 110.859L231.79 118.703H226.824L218.365 94.2256H226.297ZM251.368 98.7959V127.141H243.963V94.2256H250.862L251.368 98.7959ZM265.958 105.827V106.289C265.958 108.017 265.76 109.621 265.364 111.101C264.969 112.58 264.383 113.869 263.606 114.968C262.83 116.066 261.863 116.923 260.706 117.539C259.563 118.139 258.238 118.439 256.729 118.439C255.308 118.439 254.085 118.125 253.06 117.495C252.034 116.865 251.177 115.993 250.489 114.88C249.8 113.767 249.244 112.492 248.819 111.057C248.394 109.621 248.057 108.105 247.808 106.508V105.915C248.057 104.201 248.394 102.612 248.819 101.147C249.244 99.6675 249.8 98.3784 250.489 97.2798C251.177 96.1812 252.027 95.3242 253.038 94.709C254.063 94.0938 255.286 93.7861 256.707 93.7861C258.216 93.7861 259.542 94.0718 260.684 94.6431C261.841 95.2144 262.808 96.0347 263.584 97.104C264.375 98.1587 264.969 99.4258 265.364 100.905C265.76 102.385 265.958 104.025 265.958 105.827ZM258.553 106.289V105.827C258.553 104.904 258.487 104.062 258.355 103.3C258.223 102.524 258.011 101.85 257.718 101.279C257.439 100.708 257.066 100.268 256.597 99.9604C256.128 99.6528 255.55 99.499 254.861 99.499C254.07 99.499 253.404 99.6235 252.862 99.8726C252.334 100.107 251.91 100.473 251.587 100.971C251.28 101.455 251.06 102.062 250.928 102.795C250.811 103.513 250.76 104.355 250.774 105.322V107.124C250.745 108.237 250.855 109.218 251.104 110.068C251.353 110.903 251.785 111.555 252.4 112.023C253.016 112.492 253.851 112.727 254.905 112.727C255.608 112.727 256.194 112.565 256.663 112.243C257.132 111.906 257.505 111.445 257.784 110.859C258.062 110.258 258.26 109.57 258.377 108.793C258.494 108.017 258.553 107.182 258.553 106.289ZM277.076 94.2256V118H269.649V94.2256H277.076ZM269.209 88.0952C269.209 87.0405 269.59 86.1763 270.352 85.5024C271.114 84.8286 272.103 84.4917 273.318 84.4917C274.534 84.4917 275.523 84.8286 276.285 85.5024C277.046 86.1763 277.427 87.0405 277.427 88.0952C277.427 89.1499 277.046 90.0142 276.285 90.688C275.523 91.3618 274.534 91.6987 273.318 91.6987C272.103 91.6987 271.114 91.3618 270.352 90.688C269.59 90.0142 269.209 89.1499 269.209 88.0952ZM288.919 99.3013V118H281.514V94.2256H288.458L288.919 99.3013ZM288.04 105.3L286.304 105.344C286.304 103.527 286.524 101.909 286.963 100.488C287.403 99.0522 288.025 97.8364 288.831 96.8403C289.637 95.8442 290.596 95.0898 291.709 94.5771C292.837 94.0498 294.09 93.7861 295.467 93.7861C296.565 93.7861 297.569 93.9473 298.477 94.2695C299.4 94.5918 300.191 95.1118 300.85 95.8296C301.524 96.5474 302.037 97.4995 302.388 98.686C302.754 99.8579 302.938 101.308 302.938 103.037V118H295.489V103.015C295.489 102.062 295.357 101.337 295.093 100.839C294.83 100.327 294.449 99.9751 293.951 99.7847C293.453 99.5942 292.845 99.499 292.127 99.499C291.365 99.499 290.721 99.6455 290.193 99.9385C289.666 100.231 289.241 100.642 288.919 101.169C288.611 101.682 288.384 102.29 288.238 102.993C288.106 103.696 288.04 104.465 288.04 105.3ZM321.988 94.2256H328.711V117.077C328.711 119.274 328.206 121.135 327.195 122.658C326.185 124.196 324.771 125.361 322.955 126.152C321.153 126.958 319.043 127.36 316.626 127.36C315.557 127.36 314.466 127.221 313.353 126.943C312.239 126.679 311.199 126.284 310.232 125.756C309.266 125.229 308.453 124.577 307.793 123.801L310.892 119.45C311.492 120.124 312.247 120.695 313.155 121.164C314.063 121.647 315.132 121.889 316.363 121.889C317.432 121.889 318.326 121.699 319.043 121.318C319.776 120.937 320.333 120.38 320.713 119.648C321.094 118.93 321.285 118.059 321.285 117.033V99.8506L321.988 94.2256ZM306.189 106.398V105.937C306.189 104.135 306.409 102.495 306.849 101.015C307.303 99.521 307.947 98.2393 308.782 97.1699C309.632 96.0859 310.657 95.251 311.858 94.665C313.06 94.0791 314.415 93.7861 315.923 93.7861C317.549 93.7861 318.882 94.1011 319.922 94.731C320.977 95.3462 321.819 96.2104 322.449 97.3237C323.094 98.437 323.592 99.7407 323.943 101.235C324.31 102.714 324.617 104.311 324.866 106.025V106.574C324.617 108.186 324.273 109.709 323.833 111.145C323.409 112.565 322.852 113.825 322.164 114.924C321.475 116.022 320.611 116.887 319.571 117.517C318.545 118.132 317.315 118.439 315.879 118.439C314.385 118.439 313.038 118.139 311.836 117.539C310.65 116.938 309.632 116.096 308.782 115.012C307.947 113.928 307.303 112.653 306.849 111.188C306.409 109.724 306.189 108.127 306.189 106.398ZM313.594 105.937V106.398C313.594 107.292 313.675 108.12 313.836 108.881C314.012 109.643 314.275 110.317 314.627 110.903C314.979 111.474 315.411 111.921 315.923 112.243C316.451 112.565 317.066 112.727 317.769 112.727C318.838 112.727 319.703 112.5 320.362 112.045C321.021 111.591 321.497 110.947 321.79 110.112C322.083 109.277 322.208 108.295 322.164 107.167V105.432C322.193 104.465 322.127 103.615 321.966 102.883C321.805 102.136 321.548 101.513 321.197 101.015C320.86 100.517 320.406 100.144 319.834 99.8945C319.278 99.6309 318.604 99.499 317.813 99.499C317.125 99.499 316.517 99.6602 315.989 99.9824C315.462 100.305 315.022 100.759 314.671 101.345C314.319 101.916 314.048 102.597 313.858 103.388C313.682 104.165 313.594 105.014 313.594 105.937Z" fill="#424241"/>
<path d="M1363 15C1363 6.71573 1356.28 0 1348 0H1134V167H1348C1356.28 167 1363 160.284 1363 152V15Z" fill="#006D77"/>
<path fill-rule="evenodd" clip-rule="evenodd" d="M1203 49C1203 47.8954 1203.9 47 1205 47H1292.5C1293.6 47 1294.5 47.8954 1294.5 49V118.996C1294.5 120.101 1293.6 120.996 1292.5 120.996H1205C1203.9 120.996 1203 120.101 1203 118.996V49ZM1207 51V55.4945H1290.5V51H1207ZM1290.5 59.4945H1235.44V116.996H1290.5V59.4945ZM1231.44 116.996V59.4945H1207V116.996H1231.44Z" fill="white"/>
<path fill-rule="evenodd" clip-rule="evenodd" d="M1209.97 64.8004C1209.97 63.6958 1210.87 62.8004 1211.97 62.8004H1225.97C1227.08 62.8004 1227.97 63.6958 1227.97 64.8004V84.1956C1227.97 85.3001 1227.08 86.1956 1225.97 86.1956H1211.97C1210.87 86.1956 1209.97 85.3001 1209.97 84.1956V64.8004ZM1213.97 66.8004V82.1956H1223.97V66.8004H1213.97ZM1239.58 65.6964C1239.58 64.5918 1240.47 63.6964 1241.58 63.6964H1284.5C1285.61 63.6964 1286.5 64.5918 1286.5 65.6964V111.905C1286.5 113.01 1285.61 113.905 1284.5 113.905H1241.58C1240.47 113.905 1239.58 113.01 1239.58 111.905V65.6964ZM1243.58 67.6964V109.905H1282.5V67.6964H1243.58ZM1209.81 95.9363C1209.81 94.8317 1210.71 93.9363 1211.81 93.9363H1220.73C1221.84 93.9363 1222.73 94.8317 1222.73 95.9363C1222.73 97.0409 1221.84 97.9363 1220.73 97.9363H1211.81C1210.71 97.9363 1209.81 97.0409 1209.81 95.9363ZM1209.81 102.936C1209.81 101.832 1210.71 100.936 1211.81 100.936H1226.35C1227.46 100.936 1228.35 101.832 1228.35 102.936C1228.35 104.041 1227.46 104.936 1226.35 104.936H1211.81C1210.71 104.936 1209.81 104.041 1209.81 102.936ZM1209.81 109.936C1209.81 108.832 1210.71 107.936 1211.81 107.936H1220.73C1221.84 107.936 1222.73 108.832 1222.73 109.936C1222.73 111.041 1221.84 111.936 1220.73 111.936H1211.81C1210.71 111.936 1209.81 111.041 1209.81 109.936Z" fill="white"/>
</svg>
